<?xml version="1.0" encoding="UTF-8"?>
<svg id="Layer_1" data-name="Layer 1" xmlns="http://www.w3.org/2000/svg" xmlns:xlink="http://www.w3.org/1999/xlink" viewBox="0 0 866.23 948.81">
  <defs>
    <style>
      .cls-1, .cls-2, .cls-3, .cls-4, .cls-5, .cls-6 {
        fill: none;
      }

      .cls-2 {
        stroke-dasharray: 12.91 12.91;
      }

      .cls-2, .cls-3, .cls-7, .cls-4, .cls-5, .cls-6 {
        stroke: #232873;
      }

      .cls-2, .cls-3, .cls-6 {
        stroke-width: 1.99px;
      }

      .cls-2, .cls-7, .cls-4, .cls-5, .cls-6 {
        stroke-miterlimit: 10;
      }

      .cls-3 {
        stroke-linejoin: round;
      }

      .cls-3, .cls-6 {
        stroke-linecap: round;
      }

      .cls-8 {
        fill: url(#linear-gradient);
      }

      .cls-7, .cls-5 {
        stroke-width: .99px;
      }

      .cls-7, .cls-9 {
        fill: #fff;
      }

      .cls-4 {
        stroke-width: .5px;
      }

      .cls-10 {
        clip-path: url(#clippath-1);
      }

      .cls-11 {
        clip-path: url(#clippath-3);
      }

      .cls-12 {
        clip-path: url(#clippath-4);
      }

      .cls-13 {
        clip-path: url(#clippath-2);
      }

      .cls-14 {
        clip-path: url(#clippath-7);
      }

      .cls-15 {
        clip-path: url(#clippath-6);
      }

      .cls-16 {
        clip-path: url(#clippath-5);
      }

      .cls-17 {
        fill: #232873;
      }

      .cls-18 {
        clip-path: url(#clippath);
      }
    </style>
    <clipPath id="clippath">
      <rect class="cls-1" x="29.28" y="-73.12" width="863.27" height="994.86"/>
    </clipPath>
    <clipPath id="clippath-1">
      <rect class="cls-1" x="29.28" y="-73.12" width="863.27" height="994.86"/>
    </clipPath>
    <clipPath id="clippath-2">
      <rect class="cls-1" x="29.28" y="-73.12" width="863.27" height="994.86"/>
    </clipPath>
    <clipPath id="clippath-3">
      <rect class="cls-1" x="29.28" y="-73.12" width="863.27" height="994.86"/>
    </clipPath>
    <clipPath id="clippath-4">
      <rect class="cls-1" x="29.28" y="-73.12" width="863.27" height="994.86"/>
    </clipPath>
    <clipPath id="clippath-5">
      <rect class="cls-1" x="29.28" y="-73.12" width="863.27" height="994.86"/>
    </clipPath>
    <clipPath id="clippath-6">
      <rect class="cls-1" x="29.28" y="-73.12" width="863.27" height="994.86"/>
    </clipPath>
    <clipPath id="clippath-7">
      <rect class="cls-1" x="29.28" y="-73.12" width="863.27" height="994.86"/>
    </clipPath>
    <linearGradient id="linear-gradient" x1="222.31" y1="112.57" x2="222.31" y2="26.87" gradientUnits="userSpaceOnUse">
      <stop offset=".31" stop-color="#fff" stop-opacity="0"/>
      <stop offset="1" stop-color="#ffdd39"/>
    </linearGradient>
  </defs>
  <g>
    <g class="cls-18">
      <path class="cls-7" d="M749.11,419.92v458.22c0,18.84-15.3,34.11-34.17,34.11h-37.49c-18.87,0-34.17-15.27-34.17-34.11v-4.12c0-18.84-15.3-34.11-34.17-34.11H210.48c-18.87,0-34.17-15.27-34.17-34.11v-37.41c0-18.84,15.3-34.11,34.17-34.11h398.65c18.87,0,34.17-15.27,34.17-34.11v-.35c0-18.84-15.3-34.11-34.17-34.11H210.48c-18.87,0-34.17-15.27-34.17-34.11v-37.43c0-18.84,15.3-34.11,34.17-34.11h398.65c18.87,0,34.17-15.27,34.17-34.11v-.34c0-18.84-15.3-34.11-34.17-34.11H210.48c-18.87,0-34.17-15.27-34.17-34.11V169.01c0-18.84,15.3-34.11,34.17-34.11h37.49c18.87,0,34.17,15.27,34.17,34.11v182.68c0,18.84,15.3,34.11,34.17,34.11h398.65c18.87,0,34.17,15.27,34.17,34.11Z"/>
    </g>
    <g class="cls-10">
      <path class="cls-9" d="M536.44,863.11h-47.53c-1.61,0-2.92-1.31-2.92-2.92v-47.45c0-1.61,1.31-2.92,2.92-2.92h47.53c1.61,0,2.92,1.31,2.92,2.92v47.45c0,1.61-1.31,2.92-2.92,2.92"/>
      <path class="cls-5" d="M536.44,863.11h-47.53c-1.61,0-2.92-1.31-2.92-2.92v-47.45c0-1.61,1.31-2.92,2.92-2.92h47.53c1.61,0,2.92,1.31,2.92,2.92v47.45c0,1.61-1.31,2.92-2.92,2.92Z"/>
      <path class="cls-9" d="M527.44,863.11h-29.47c-1.61,0-2.92-1.31-2.92-2.92v-38.51c0-1.61,1.31-2.92,2.92-2.92h29.47c1.61,0,2.92,1.31,2.92,2.92v38.51c0,1.61-1.31,2.92-2.92,2.92"/>
      <path class="cls-5" d="M527.44,863.11h-29.47c-1.61,0-2.92-1.31-2.92-2.92v-38.51c0-1.61,1.31-2.92,2.92-2.92h29.47c1.61,0,2.92,1.31,2.92,2.92v38.51c0,1.61-1.31,2.92-2.92,2.92Z"/>
      <path class="cls-9" d="M518.92,816.1h-12.43c-.83,0-1.5-.67-1.5-1.5v-.18c0-.83.67-1.5,1.5-1.5h12.43c.83,0,1.5.67,1.5,1.5v.18c0,.83-.67,1.5-1.5,1.5"/>
      <path class="cls-5" d="M506.49,812.92h12.43c.83,0,1.5.67,1.5,1.5v.18c0,.83-.67,1.5-1.5,1.5h-12.43c-.83,0-1.5-.67-1.5-1.5v-.18c0-.83.67-1.5,1.5-1.5Z"/>
      <path class="cls-5" d="M535.11,846.77h0c-1.07,0-1.93-.86-1.93-1.93v-7.81c0-1.06.86-1.93,1.93-1.93s1.93.86,1.93,1.93v7.81c0,1.06-.86,1.93-1.93,1.93Z"/>
      <line class="cls-5" x1="512.7" y1="818.76" x2="512.7" y2="828.62"/>
    </g>
    <path class="cls-17" d="M515.81,844.68h-6.45l-1.22,3.62h-3.56l6.43-16.46h3.18l6.43,16.46h-3.58l-1.22-3.62ZM515.01,842.28l-2.4-7.13-2.43,7.13h4.83Z"/>
    <line class="cls-5" x1="512.7" y1="851.07" x2="512.7" y2="863.11"/>
    <g class="cls-13">
      <path class="cls-9" d="M418,863.11h-47.53c-1.61,0-2.92-1.31-2.92-2.92v-47.45c0-1.61,1.31-2.92,2.92-2.92h47.53c1.61,0,2.92,1.31,2.92,2.92v47.45c0,1.61-1.31,2.92-2.92,2.92"/>
      <path class="cls-5" d="M418,863.11h-47.53c-1.61,0-2.92-1.31-2.92-2.92v-47.45c0-1.61,1.31-2.92,2.92-2.92h47.53c1.61,0,2.92,1.31,2.92,2.92v47.45c0,1.61-1.31,2.92-2.92,2.92Z"/>
      <path class="cls-9" d="M409,863.11h-29.47c-1.61,0-2.92-1.31-2.92-2.92v-38.51c0-1.61,1.31-2.92,2.92-2.92h29.47c1.61,0,2.92,1.31,2.92,2.92v38.51c0,1.61-1.31,2.92-2.92,2.92"/>
      <path class="cls-5" d="M379.52,818.76h29.48c1.61,0,2.92,1.31,2.92,2.92v38.5c0,1.61-1.31,2.92-2.92,2.92h-29.47c-1.61,0-2.92-1.31-2.92-2.92v-38.5c0-1.61,1.31-2.92,2.92-2.92Z"/>
      <path class="cls-9" d="M400.48,816.1h-12.43c-.83,0-1.5-.67-1.5-1.5v-.18c0-.83.67-1.5,1.5-1.5h12.43c.83,0,1.5.67,1.5,1.5v.18c0,.83-.67,1.5-1.5,1.5"/>
      <rect class="cls-5" x="386.54" y="812.92" width="15.44" height="3.19" rx="1.5" ry="1.5"/>
      <path class="cls-5" d="M416.67,846.77h0c-1.07,0-1.93-.86-1.93-1.93v-7.81c0-1.06.86-1.93,1.93-1.93s1.93.86,1.93,1.93v7.81c0,1.06-.86,1.93-1.93,1.93Z"/>
      <line class="cls-5" x1="394.26" y1="818.76" x2="394.26" y2="828.62"/>
    </g>
    <path class="cls-17" d="M400.97,843.6c0,3.08-1.88,4.7-5.35,4.7h-6.52v-16.46h6.19c3.34,0,5.16,1.41,5.16,3.95,0,2.14-1.06,3.48-2.54,3.74,1.58.26,3.06,1.48,3.06,4.07ZM394.89,834.38h-2.59v4.19h2.66c1.58,0,2.31-.59,2.31-2.12s-.82-2.07-2.38-2.07ZM397.81,843.17c0-1.83-.89-2.52-2.68-2.52h-2.83v5.1h2.83c1.79,0,2.68-.73,2.68-2.59Z"/>
    <line class="cls-5" x1="394.26" y1="851.07" x2="394.26" y2="863.11"/>
    <g class="cls-11">
      <path class="cls-9" d="M299.61,863.11h-47.53c-1.61,0-2.92-1.31-2.92-2.92v-47.45c0-1.61,1.31-2.92,2.92-2.92h47.53c1.61,0,2.92,1.31,2.92,2.92v47.45c0,1.61-1.31,2.92-2.92,2.92"/>
      <path class="cls-5" d="M299.61,863.11h-47.53c-1.61,0-2.92-1.31-2.92-2.92v-47.45c0-1.61,1.31-2.92,2.92-2.92h47.53c1.61,0,2.92,1.31,2.92,2.92v47.45c0,1.61-1.31,2.92-2.92,2.92Z"/>
      <path class="cls-9" d="M290.61,863.11h-29.47c-1.61,0-2.92-1.31-2.92-2.92v-38.51c0-1.61,1.31-2.92,2.92-2.92h29.47c1.61,0,2.92,1.31,2.92,2.92v38.51c0,1.61-1.31,2.92-2.92,2.92"/>
      <path class="cls-5" d="M290.61,863.11h-29.47c-1.61,0-2.92-1.31-2.92-2.92v-38.51c0-1.61,1.31-2.92,2.92-2.92h29.47c1.61,0,2.92,1.31,2.92,2.92v38.51c0,1.61-1.31,2.92-2.92,2.92Z"/>
      <path class="cls-9" d="M282.09,816.1h-12.43c-.83,0-1.5-.67-1.5-1.5v-.18c0-.83.67-1.5,1.5-1.5h12.43c.83,0,1.5.67,1.5,1.5v.18c0,.83-.67,1.5-1.5,1.5"/>
      <rect class="cls-5" x="268.15" y="812.92" width="15.44" height="3.19" rx="1.5" ry="1.5"/>
      <path class="cls-5" d="M298.28,846.77h0c-1.07,0-1.93-.86-1.93-1.93v-7.81c0-1.06.86-1.93,1.93-1.93s1.93.86,1.93,1.93v7.81c0,1.06-.86,1.93-1.93,1.93Z"/>
      <line class="cls-5" x1="275.87" y1="818.76" x2="275.87" y2="828.62"/>
    </g>
    <path class="cls-17" d="M268.94,841.53v-2.96c0-4.87,2.12-6.87,6.71-6.87s6.71,2,6.71,6.23h-3.27c0-2.61-1.13-3.76-3.44-3.76s-3.44,1.15-3.44,4.07v3.62c0,2.96,1.13,4.12,3.44,4.12s3.44-1.15,3.44-3.81h3.27c0,4.26-2.14,6.28-6.71,6.28s-6.71-2.02-6.71-6.91Z"/>
    <line class="cls-5" x1="275.87" y1="851.07" x2="275.87" y2="863.11"/>
    <g class="cls-12">
      <path class="cls-9" d="M536.49,756.28h-47.53c-1.61,0-2.92-1.31-2.92-2.92v-47.45c0-1.61,1.31-2.92,2.92-2.92h47.53c1.61,0,2.92,1.31,2.92,2.92v47.45c0,1.61-1.31,2.92-2.92,2.92"/>
      <path class="cls-5" d="M536.49,756.28h-47.53c-1.61,0-2.92-1.31-2.92-2.92v-47.45c0-1.61,1.31-2.92,2.92-2.92h47.53c1.61,0,2.92,1.31,2.92,2.92v47.45c0,1.61-1.31,2.92-2.92,2.92Z"/>
      <path class="cls-9" d="M527.49,756.28h-29.47c-1.61,0-2.92-1.31-2.92-2.92v-38.51c0-1.61,1.31-2.92,2.92-2.92h29.47c1.61,0,2.92,1.31,2.92,2.92v38.51c0,1.61-1.31,2.92-2.92,2.92"/>
      <path class="cls-5" d="M527.49,756.28h-29.47c-1.61,0-2.92-1.31-2.92-2.92v-38.51c0-1.61,1.31-2.92,2.92-2.92h29.47c1.61,0,2.92,1.31,2.92,2.92v38.51c0,1.61-1.31,2.92-2.92,2.92Z"/>
      <path class="cls-9" d="M518.97,709.28h-12.43c-.83,0-1.5-.67-1.5-1.5v-.18c0-.83.67-1.5,1.5-1.5h12.43c.83,0,1.5.67,1.5,1.5v.18c0,.83-.67,1.5-1.5,1.5"/>
      <path class="cls-5" d="M506.54,706.09h12.43c.83,0,1.5.67,1.5,1.5v.18c0,.83-.67,1.5-1.5,1.5h-12.43c-.83,0-1.5-.67-1.5-1.5v-.18c0-.83.67-1.5,1.5-1.5Z"/>
      <path class="cls-5" d="M535.16,739.94h0c-1.07,0-1.93-.86-1.93-1.93v-7.81c0-1.06.86-1.93,1.93-1.93s1.93.86,1.93,1.93v7.81c0,1.06-.86,1.93-1.93,1.93Z"/>
      <line class="cls-5" x1="512.75" y1="711.93" x2="512.75" y2="721.79"/>
    </g>
    <path class="cls-17" d="M519.25,733.24c0,6.7-1.86,8.23-7.44,8.23h-5.72v-16.46h5.72c5.58,0,7.44,1.53,7.44,8.23ZM515.98,733.24c0-4.77-.75-5.62-4.31-5.62h-2.31v11.24h2.31c3.56,0,4.31-.85,4.31-5.62Z"/>
    <line class="cls-5" x1="512.75" y1="744.24" x2="512.75" y2="756.28"/>
    <g class="cls-16">
      <path class="cls-7" d="M234.49,594.16h0c-14.74,0-26.68-11.93-26.68-26.64h0c0-14.72,11.95-26.65,26.68-26.65h0c14.74,0,26.68,11.93,26.68,26.64h0c0,14.72-11.95,26.65-26.69,26.65Z"/>
      <polyline class="cls-3" points="227.51 570.52 227.51 555.71 241.46 555.71 241.46 570.52"/>
      <polyline class="cls-6" points="231.31 589.82 231.31 555.71 237.65 555.71 237.65 589.82"/>
      <rect class="cls-17" x="230.63" y="555.71" width="7.74" height="17.78"/>
      <rect class="cls-5" x="230.63" y="555.7" width="7.74" height="17.78"/>
      <path class="cls-17" d="M237.99,549.07c0,2.13-1.73,3.85-3.85,3.85s-3.86-1.72-3.86-3.85,1.73-3.85,3.86-3.85,3.85,1.72,3.85,3.85"/>
      <path class="cls-5" d="M237.99,549.07c0,2.13-1.73,3.85-3.85,3.85s-3.86-1.72-3.86-3.85,1.73-3.85,3.86-3.85,3.85,1.72,3.85,3.85Z"/>
      <path class="cls-7" d="M234.5,679.3h0c-14.74,0-26.68-11.93-26.68-26.64h0c0-14.72,11.95-26.65,26.68-26.65h0c14.74,0,26.69,11.93,26.69,26.64h0c0,14.72-11.95,26.64-26.69,26.64Z"/>
      <polyline class="cls-3" points="225.13 655.22 228.07 640.84 240.9 640.84 243.87 655.65"/>
      <polyline class="cls-6" points="231.83 674.95 231.83 640.84 236.81 640.84 236.81 674.95"/>
      <path class="cls-17" d="M238.23,634.2c0,2.13-1.73,3.85-3.85,3.85s-3.86-1.72-3.86-3.85,1.73-3.85,3.86-3.85,3.85,1.72,3.85,3.85"/>
      <path class="cls-5" d="M238.23,634.2c0,2.13-1.73,3.85-3.85,3.85s-3.86-1.72-3.86-3.85,1.73-3.85,3.86-3.85,3.85,1.72,3.85,3.85Z"/>
      <path class="cls-17" d="M240.66,662.21h-12.41c-.72,0-1.26-.65-1.14-1.35l3.23-18.56c.1-.55.58-.96,1.14-.96h5.96c.56,0,1.04.4,1.14.96l3.23,18.56c.12.71-.42,1.35-1.14,1.35"/>
      <path class="cls-4" d="M240.66,662.21h-12.41c-.72,0-1.26-.65-1.14-1.35l3.23-18.56c.1-.55.58-.96,1.14-.96h5.96c.56,0,1.04.4,1.14.96l3.23,18.56c.12.71-.42,1.35-1.14,1.35Z"/>
    </g>
    <path class="cls-17" d="M343.08,786.03v7.88h-3.11v-7.61c0-2.81-.85-3.7-2.93-3.7h-2.13v11.31h-5.54v-2.4h2.59v-8.91h-1.79v-2.4h7.53c3.78,0,5.38,1.51,5.38,5.83ZM346.64,793.92v-13.71h3.09v13.71h-3.09ZM353.34,788.2v-8h3.09v8h-3.09ZM365.5,782.6h-6.68v-4.69h2.95v2.29h7.71l-4.85,13.71h-3.23l4.1-11.31ZM382.64,780.2v6.7c0,3.95-1.74,5.67-5.49,6.7l-5.79,1.65-.6-2.33,2.91-.85-2.5-11.86h3.11l2.22,11.04.09-.02c2.27-.64,2.93-1.49,2.93-4.41v-6.61h3.11ZM397.47,786.67v7.25h-6.59v-2.4h3.48v-4.75c0-3.04-.76-4.16-3.09-4.16h-1.08l-1.92,11.31h-3.14l2.04-11.31h-1.9v-2.4h6.55c4.05,0,5.65,1.81,5.65,6.47ZM413.04,786.53c0-3.04-.76-3.93-3.16-3.93h-3.53v-2.4h4.19c4.07,0,5.61,1.51,5.61,6.06v7.66h-3.11v-7.38ZM419.68,793.92v-13.71h3.09v13.71h-3.09ZM436.36,782.6h-1.6v11.31h-3.09v-11.31h-6.25v-2.4h10.94v2.4ZM446.07,782.6h-2.29c-.64.59-1.24,1.78-.64,4.85l1.28,6.47h-3.07l-1.17-6.01c-.62-3.18.09-4.69,1.05-5.26v-.05h-3.04v-2.4h7.87v2.4ZM448.6,793.92v-13.71h3.09v13.71h-3.09ZM461.02,786.53c0-3.04-.76-3.93-3.16-3.93h-3.53v-2.4h4.19c4.07,0,5.61,1.51,5.61,6.06v7.66h-3.11v-7.38ZM478.56,785.92v2.29c0,4.16-1.58,5.71-5.4,5.71h-5.7v-2.4h5.08c2.22,0,2.93-1.03,2.93-3.63v-1.65c0-2.58-.71-3.63-2.93-3.63h-2.13v4.91h-2.95v-7.31h5.7c3.82,0,5.4,1.55,5.4,5.71Z"/>
    <path class="cls-17" d="M343.15,612.8v8.87h-11.83v-13.71h7.32c3.23,0,4.51,1.3,4.51,4.85ZM340.13,613.32c0-2.24-.66-2.97-2.36-2.97h-3.43v8.91h5.79v-5.94ZM346.29,615.95v-8h3.09v8h-3.09ZM365.27,613.78v7.89h-3.11v-7.61c0-2.81-.85-3.7-2.93-3.7h-2.13v11.31h-5.54v-2.4h2.59v-8.91h-1.79v-2.4h7.53c3.78,0,5.38,1.51,5.38,5.83ZM368.83,621.67v-13.71h3.09v13.71h-3.09ZM381.24,614.28c0-3.04-.76-3.93-3.16-3.93h-3.53v-2.4h4.19c4.07,0,5.61,1.51,5.61,6.06v7.66h-3.11v-7.38ZM387.42,615.95v-8h3.09v8h-3.09ZM408.79,615.04c0,4.91-2.08,6.63-6.8,6.63h-7.07l-1.49-13.71h3.02l1.19,11.31h3.8c3.18,0,4.37-.98,4.37-4.55v-6.77h2.98v7.09ZM399.93,607.95h2.93v8.73h-2.93v-8.73ZM424.54,614.28c0-3.04-.76-3.93-3.16-3.93h-3.53v-2.4h4.19c4.07,0,5.61,1.51,5.61,6.06v7.66h-3.11v-7.38ZM431.18,621.67v-13.71h3.09v13.71h-3.09ZM447.86,610.35h-1.6v11.31h-3.09v-11.31h-6.25v-2.4h10.94v2.4ZM457.56,610.35h-2.29c-.64.59-1.24,1.78-.64,4.85l1.28,6.47h-3.07l-1.17-6.01c-.62-3.18.09-4.69,1.05-5.26v-.05h-3.04v-2.4h7.87v2.4ZM460.1,621.67v-13.71h3.09v13.71h-3.09ZM472.52,614.28c0-3.04-.76-3.93-3.16-3.93h-3.53v-2.4h4.19c4.07,0,5.61,1.51,5.61,6.06v7.66h-3.11v-7.38ZM490.06,613.67v2.29c0,4.16-1.58,5.71-5.4,5.71h-5.7v-2.4h5.08c2.22,0,2.93-1.03,2.93-3.63v-1.65c0-2.58-.71-3.63-2.93-3.63h-2.13v4.91h-2.95v-7.31h5.7c3.82,0,5.4,1.55,5.4,5.71Z"/>
    <g class="cls-15">
      <path class="cls-7" d="M771.46,834.07h-44.7c-10.72,0-19.41-8.68-19.41-19.38v-44.63c0-10.71,8.69-19.38,19.41-19.38h44.7c10.72,0,19.41,8.68,19.41,19.38v44.63c0,10.71-8.69,19.38-19.41,19.38Z"/>
    </g>
    <path class="cls-17" d="M739.97,777.06v8.84h-3.49v-8.53c0-3.15-.95-4.15-3.28-4.15h-2.39v12.68h-6.21v-2.69h2.9v-9.99h-2v-2.69h8.44c4.23,0,6.03,1.69,6.03,6.53ZM742.21,785.9v-2.69h1.72c1.49,0,1.9-.59,1.9-2.23v-7.76h-2.46v-2.69h5.95v10.89c0,3.38-.98,4.48-4.05,4.48h-3.05ZM753.2,779.49v-8.97h3.46v8.97h-3.46ZM772.92,776.93v2.56c0,4.66-1.77,6.41-6.06,6.41h-6.39v-2.69h5.7c2.49,0,3.28-1.15,3.28-4.07v-1.84c0-2.9-.8-4.07-3.28-4.07h-2.39v5.51h-3.31v-8.2h6.39c4.29,0,6.06,1.74,6.06,6.41Z"/>
    <path class="cls-17" d="M724.98,813.59h-3.46v-12.68h-9.55v-2.69h13.01v15.37ZM715.51,804.72v8.87h-3.46v-8.87h3.46ZM727.76,813.59v-2.69h1.72c1.49,0,1.9-.59,1.9-2.23v-7.76h-2.46v-2.69h5.95v10.89c0,3.38-.98,4.48-4.05,4.48h-3.05ZM752.81,804.75v8.84h-3.49v-8.53c0-3.15-.95-4.15-3.28-4.15h-2.39v12.68h-6.21v-2.69h2.9v-9.99h-2v-2.69h8.44c4.23,0,6.03,1.69,6.03,6.53ZM769.37,805.47v8.12h-7.39v-2.69h3.9v-5.33c0-3.41-.85-4.66-3.46-4.66h-1.21l-2.16,12.68h-3.52l2.28-12.68h-2.13v-2.69h7.34c4.54,0,6.34,2.02,6.34,7.25ZM785.93,813.59h-3.46v-12.68h-9.55v-2.69h13.01v15.37ZM776.46,804.72v8.87h-3.46v-8.87h3.46Z"/>
    <g class="cls-14">
      <rect class="cls-7" x="635.16" y="379.68" width="96.23" height="17.75" rx="8.88" ry="8.88"/>
      <path class="cls-7" d="M185.2,184.03v78.33c0,4.9-3.98,8.88-8.89,8.88h0c-4.91,0-8.89-3.97-8.89-8.88v-78.33c0-4.9,3.98-8.88,8.89-8.88h0c4.91,0,8.89,3.97,8.89,8.88Z"/>
      <path class="cls-7" d="M185.2,397.43v78.33c0,4.9-3.98,8.88-8.89,8.88h0c-4.91,0-8.89-3.97-8.89-8.88v-78.33c0-4.9,3.98-8.88,8.89-8.88h0c4.91,0,8.89,3.97,8.89,8.88Z"/>
      <path class="cls-7" d="M758,577.13v78.33c0,4.9-3.98,8.88-8.89,8.88h0c-4.91,0-8.89-3.97-8.89-8.88v-78.33c0-4.9,3.98-8.88,8.89-8.88h0c4.91,0,8.89,3.97,8.89,8.88Z"/>
      <polyline class="cls-2" points="229.38 178.74 231.16 436.6 692.08 436.6 692.08 792.37 481.78 793.92"/>
      <polygon class="cls-17" points="229.23 156.42 216.58 187.96 229.39 180.41 242.31 187.78 229.23 156.42"/>
    </g>
  </g>
  <g>
    <ellipse class="cls-8" cx="222.31" cy="69.72" rx="42.91" ry="42.85"/>
    <g>
      <path class="cls-17" d="M223.57,42.87s23.29-26.56,38.34-8.96l-.8,8.45s-9.47-17.71-37.54.51Z"/>
      <path class="cls-17" d="M297.76,51.23s-17.81-31.19-35.84-17.32l-.8,8.45s12.6-15.23,36.65,8.87Z"/>
    </g>
    <g>
      <path class="cls-17" d="M86.54,77.76h-17.97v-12.6h7.94v6.15h20.74l-13.05,36.87h-8.68l11.02-30.42Z"/>
      <path class="cls-17" d="M134.98,92.57c0,11.43-4.49,15.61-14.28,15.61h-3.51v-6.45h2.15c4.68,0,7.32-1.54,7.32-9.03v-14.93h-23.7v-6.45h32v21.26ZM111.53,86.92v30.48h-8.31v-30.48h8.31Z"/>
      <path class="cls-17" d="M144.21,92.82v-21.51h8.31v21.51h-8.31Z"/>
      <path class="cls-17" d="M188.46,77.76h-4.31v30.42h-8.31v-30.42h-16.8v-6.45h29.42v6.45Z"/>
      <path class="cls-17" d="M227.18,88.7v19.48h-17.73v-6.45h9.36v-12.78c0-8.17-2.03-11.18-8.31-11.18h-2.89l-5.17,30.42h-8.43l5.48-30.42h-5.11v-6.45h17.6c10.89,0,15.2,4.85,15.2,17.39Z"/>
      <path class="cls-17" d="M285.21,92.57c0,11.43-4.49,15.61-14.28,15.61h-3.51v-6.45h2.15c4.68,0,7.32-1.54,7.32-9.03v-14.93h-23.7v-6.45h32v21.26ZM261.76,86.92v30.48h-8.31v-30.48h8.31Z"/>
      <path class="cls-17" d="M309.46,88.33c0-8.17-2.03-10.57-8.49-10.57h-9.48v-6.45h11.26c10.96,0,15.08,4.06,15.08,16.28v20.59h-8.37v-19.85Z"/>
      <path class="cls-17" d="M356.42,101.73v6.45h-31.39v-6.45h18.34v-23.97h-18.34v-6.45h26.71v30.42h4.68Z"/>
    </g>
  </g>
</svg>