<?xml version="1.0" encoding="UTF-8"?>
<svg id="Layer_1" data-name="Layer 1" xmlns="http://www.w3.org/2000/svg" xmlns:xlink="http://www.w3.org/1999/xlink" viewBox="0 0 866.23 948.81">
  <defs>
    <style>
      .cls-1, .cls-2, .cls-3, .cls-4, .cls-5, .cls-6 {
        fill: none;
      }

      .cls-2 {
        stroke-dasharray: 12.91 12.91;
      }

      .cls-2, .cls-3, .cls-7, .cls-4, .cls-5, .cls-6 {
        stroke: #232873;
      }

      .cls-2, .cls-3, .cls-6 {
        stroke-width: 1.99px;
      }

      .cls-2, .cls-7, .cls-4, .cls-5, .cls-6 {
        stroke-miterlimit: 10;
      }

      .cls-3 {
        stroke-linejoin: round;
      }

      .cls-3, .cls-6 {
        stroke-linecap: round;
      }

      .cls-8 {
        fill: url(#linear-gradient);
      }

      .cls-7, .cls-5 {
        stroke-width: .99px;
      }

      .cls-7, .cls-9 {
        fill: #fff;
      }

      .cls-10 {
        font-family: AlmoniNeueDL4.0AAA-D-Bold, 'Almoni Neue DL 4.0 AAA';
        font-size: 23.89px;
        font-weight: 700;
      }

      .cls-10, .cls-11 {
        fill: #232873;
      }

      .cls-4 {
        stroke-width: .5px;
      }

      .cls-12 {
        clip-path: url(#clippath-1);
      }

      .cls-13 {
        clip-path: url(#clippath-3);
      }

      .cls-14 {
        clip-path: url(#clippath-4);
      }

      .cls-15 {
        clip-path: url(#clippath-2);
      }

      .cls-16 {
        clip-path: url(#clippath-7);
      }

      .cls-17 {
        clip-path: url(#clippath-6);
      }

      .cls-18 {
        clip-path: url(#clippath-5);
      }

      .cls-19 {
        clip-path: url(#clippath);
      }
    </style>
    <clipPath id="clippath">
      <rect class="cls-1" x="55.05" y="-22.3" width="756.12" height="872.73"/>
    </clipPath>
    <clipPath id="clippath-1">
      <rect class="cls-1" x="55.05" y="-22.3" width="756.12" height="872.73"/>
    </clipPath>
    <clipPath id="clippath-2">
      <rect class="cls-1" x="55.05" y="-22.3" width="756.12" height="872.73"/>
    </clipPath>
    <clipPath id="clippath-3">
      <rect class="cls-1" x="55.05" y="-22.3" width="756.12" height="872.73"/>
    </clipPath>
    <clipPath id="clippath-4">
      <rect class="cls-1" x="55.05" y="-22.3" width="756.12" height="872.73"/>
    </clipPath>
    <clipPath id="clippath-5">
      <rect class="cls-1" x="55.05" y="-22.3" width="756.12" height="872.73"/>
    </clipPath>
    <clipPath id="clippath-6">
      <rect class="cls-1" x="55.05" y="-22.3" width="756.12" height="872.73"/>
    </clipPath>
    <clipPath id="clippath-7">
      <rect class="cls-1" x="55.05" y="-22.3" width="756.12" height="872.73"/>
    </clipPath>
    <linearGradient id="linear-gradient" x1="224.12" y1="140.6" x2="224.12" y2="65.42" gradientUnits="userSpaceOnUse">
      <stop offset=".31" stop-color="#fff" stop-opacity="0"/>
      <stop offset="1" stop-color="#ffdd39"/>
    </linearGradient>
  </defs>
  <g>
    <g class="cls-19">
      <path class="cls-5" d="M685.54,410.22v401.97c0,16.53-13.4,29.93-29.93,29.93h-32.83c-16.53,0-29.93-13.4-29.93-29.93v-3.61c0-16.53-13.4-29.93-29.93-29.93H213.76c-16.53,0-29.93-13.4-29.93-29.93v-32.82c0-16.53,13.4-29.93,29.93-29.93h349.17c16.53,0,29.93-13.4,29.93-29.93v-.31c0-16.53-13.4-29.93-29.93-29.93H213.76c-16.53,0-29.93-13.4-29.93-29.93v-32.83c0-16.53,13.4-29.93,29.93-29.93h349.17c16.53,0,29.93-13.4,29.93-29.93v-.3c0-16.53-13.4-29.93-29.93-29.93H213.76c-16.53,0-29.93-13.4-29.93-29.93v-252.94c0-16.53,13.4-29.93,29.93-29.93h32.83c16.53,0,29.93,13.4,29.93,29.93v160.26c0,16.53,13.4,29.93,29.93,29.93h349.17c16.53,0,29.93,13.4,29.93,29.93Z"/>
    </g>
    <g class="cls-12">
      <path class="cls-9" d="M499.27,799.01h-41.63c-1.41,0-2.56-1.15-2.56-2.56v-41.63c0-1.41,1.15-2.56,2.56-2.56h41.63c1.41,0,2.56,1.15,2.56,2.56v41.63c0,1.41-1.15,2.56-2.56,2.56"/>
      <path class="cls-5" d="M457.64,752.26h41.63c1.41,0,2.56,1.15,2.56,2.56v41.63c0,1.41-1.15,2.56-2.56,2.56h-41.63c-1.41,0-2.56-1.15-2.56-2.56v-41.63c0-1.41,1.15-2.56,2.56-2.56Z"/>
      <path class="cls-9" d="M491.38,799.01h-25.81c-1.41,0-2.56-1.15-2.56-2.56v-33.78c0-1.41,1.15-2.56,2.56-2.56h25.81c1.41,0,2.56,1.15,2.56,2.56v33.78c0,1.41-1.15,2.56-2.56,2.56"/>
      <path class="cls-5" d="M465.57,760.1h25.81c1.41,0,2.56,1.15,2.56,2.56v33.78c0,1.41-1.15,2.56-2.56,2.56h-25.81c-1.41,0-2.56-1.15-2.56-2.56v-33.78c0-1.41,1.15-2.56,2.56-2.56Z"/>
      <path class="cls-9" d="M483.92,757.77h-10.89c-.73,0-1.32-.59-1.32-1.32v-.16c0-.73.59-1.32,1.32-1.32h10.89c.73,0,1.32.59,1.32,1.32v.16c0,.73-.59,1.32-1.32,1.32"/>
      <rect class="cls-5" x="471.71" y="754.97" width="13.52" height="2.8" rx="1.32" ry="1.32"/>
      <path class="cls-5" d="M498.1,784.67h0c-.93,0-1.69-.76-1.69-1.69v-6.85c0-.93.76-1.69,1.69-1.69s1.69.76,1.69,1.69v6.85c0,.93-.76,1.69-1.69,1.69Z"/>
      <line class="cls-5" x1="478.47" y1="760.1" x2="478.47" y2="768.75"/>
    </g>
    <text class="cls-10" transform="translate(471.52 786.01)"><tspan x="0" y="0">A</tspan></text>
    <line class="cls-5" x1="478.47" y1="788.44" x2="478.47" y2="799.01"/>
    <g class="cls-15">
      <path class="cls-9" d="M395.53,799.01h-41.63c-1.41,0-2.56-1.15-2.56-2.56v-41.63c0-1.41,1.14-2.56,2.56-2.56h41.63c1.41,0,2.56,1.15,2.56,2.56v41.63c0,1.41-1.15,2.56-2.56,2.56"/>
      <path class="cls-5" d="M353.9,752.26h41.63c1.41,0,2.56,1.15,2.56,2.56v41.63c0,1.41-1.15,2.56-2.56,2.56h-41.63c-1.41,0-2.56-1.15-2.56-2.56v-41.63c0-1.41,1.15-2.56,2.56-2.56Z"/>
      <path class="cls-9" d="M387.64,799.01h-25.81c-1.41,0-2.56-1.15-2.56-2.56v-33.78c0-1.41,1.15-2.56,2.56-2.56h25.81c1.41,0,2.56,1.15,2.56,2.56v33.78c0,1.41-1.15,2.56-2.56,2.56"/>
      <path class="cls-5" d="M361.83,760.1h25.81c1.41,0,2.56,1.15,2.56,2.56v33.78c0,1.41-1.15,2.56-2.56,2.56h-25.81c-1.41,0-2.56-1.15-2.56-2.56v-33.78c0-1.41,1.15-2.56,2.56-2.56Z"/>
      <path class="cls-9" d="M380.18,757.77h-10.89c-.73,0-1.32-.59-1.32-1.32v-.16c0-.73.59-1.32,1.32-1.32h10.89c.73,0,1.32.59,1.32,1.32v.16c0,.73-.59,1.32-1.32,1.32"/>
      <rect class="cls-5" x="367.97" y="754.97" width="13.52" height="2.8" rx="1.32" ry="1.32"/>
      <path class="cls-5" d="M394.36,784.67h0c-.93,0-1.69-.76-1.69-1.69v-6.85c0-.93.76-1.69,1.69-1.69s1.69.76,1.69,1.69v6.85c0,.93-.76,1.69-1.69,1.69Z"/>
      <line class="cls-5" x1="374.73" y1="760.1" x2="374.73" y2="768.75"/>
    </g>
    <text class="cls-10" transform="translate(368.66 786.01)"><tspan x="0" y="0">B</tspan></text>
    <line class="cls-5" x1="374.73" y1="788.44" x2="374.73" y2="799.01"/>
    <g class="cls-13">
      <path class="cls-9" d="M291.83,799.01h-41.63c-1.41,0-2.56-1.15-2.56-2.56v-41.63c0-1.41,1.15-2.56,2.56-2.56h41.63c1.41,0,2.56,1.15,2.56,2.56v41.63c0,1.41-1.15,2.56-2.56,2.56"/>
      <rect class="cls-5" x="247.64" y="752.26" width="46.75" height="46.75" rx="2.56" ry="2.56"/>
      <path class="cls-9" d="M283.94,799.01h-25.81c-1.41,0-2.56-1.15-2.56-2.56v-33.78c0-1.41,1.15-2.56,2.56-2.56h25.81c1.41,0,2.56,1.15,2.56,2.56v33.78c0,1.41-1.15,2.56-2.56,2.56"/>
      <path class="cls-5" d="M258.13,760.1h25.81c1.41,0,2.56,1.15,2.56,2.56v33.78c0,1.41-1.15,2.56-2.56,2.56h-25.82c-1.41,0-2.56-1.15-2.56-2.56v-33.78c0-1.41,1.15-2.56,2.56-2.56Z"/>
      <path class="cls-9" d="M276.48,757.77h-10.89c-.73,0-1.32-.59-1.32-1.32v-.16c0-.73.59-1.32,1.32-1.32h10.89c.73,0,1.32.59,1.32,1.32v.16c0,.73-.59,1.32-1.32,1.32"/>
      <rect class="cls-5" x="264.27" y="754.97" width="13.52" height="2.8" rx="1.32" ry="1.32"/>
      <path class="cls-5" d="M290.66,784.67h0c-.93,0-1.69-.76-1.69-1.69v-6.85c0-.93.76-1.69,1.69-1.69s1.69.76,1.69,1.69v6.85c0,.93-.76,1.69-1.69,1.69Z"/>
      <line class="cls-5" x1="271.04" y1="760.1" x2="271.04" y2="768.75"/>
    </g>
    <text class="cls-10" transform="translate(263.81 786.01)"><tspan x="0" y="0">C</tspan></text>
    <line class="cls-5" x1="271.04" y1="788.44" x2="271.04" y2="799.01"/>
    <g class="cls-14">
      <path class="cls-9" d="M499.31,705.29h-41.63c-1.41,0-2.56-1.15-2.56-2.56v-41.63c0-1.41,1.15-2.56,2.56-2.56h41.63c1.41,0,2.56,1.15,2.56,2.56v41.63c0,1.41-1.15,2.56-2.56,2.56"/>
      <path class="cls-5" d="M457.68,658.54h41.63c1.41,0,2.56,1.15,2.56,2.56v41.63c0,1.41-1.15,2.56-2.56,2.56h-41.63c-1.41,0-2.56-1.15-2.56-2.56v-41.63c0-1.41,1.15-2.56,2.56-2.56Z"/>
      <path class="cls-9" d="M491.42,705.29h-25.81c-1.41,0-2.56-1.15-2.56-2.56v-33.78c0-1.41,1.15-2.56,2.56-2.56h25.81c1.41,0,2.56,1.15,2.56,2.56v33.78c0,1.41-1.15,2.56-2.56,2.56"/>
      <path class="cls-5" d="M465.61,666.39h25.81c1.41,0,2.56,1.15,2.56,2.56v33.78c0,1.41-1.15,2.56-2.56,2.56h-25.81c-1.41,0-2.56-1.15-2.56-2.56v-33.78c0-1.41,1.15-2.56,2.56-2.56Z"/>
      <path class="cls-9" d="M483.96,664.06h-10.89c-.73,0-1.32-.59-1.32-1.32v-.16c0-.73.59-1.32,1.32-1.32h10.89c.73,0,1.32.59,1.32,1.32v.16c0,.73-.59,1.32-1.32,1.32"/>
      <rect class="cls-5" x="471.75" y="661.26" width="13.52" height="2.8" rx="1.32" ry="1.32"/>
      <path class="cls-5" d="M498.14,690.96h0c-.93,0-1.69-.76-1.69-1.69v-6.85c0-.93.76-1.69,1.69-1.69s1.69.76,1.69,1.69v6.85c0,.93-.76,1.69-1.69,1.69Z"/>
      <line class="cls-5" x1="478.52" y1="666.39" x2="478.52" y2="675.04"/>
    </g>
    <text class="cls-10" transform="translate(471.13 692.3)"><tspan x="0" y="0">D</tspan></text>
    <line class="cls-5" x1="478.52" y1="694.73" x2="478.52" y2="705.29"/>
    <g class="cls-18">
      <path class="cls-7" d="M234.79,516.33h0c12.9,0,23.37,10.47,23.37,23.37h0c0,12.9-10.47,23.37-23.37,23.37h0c-12.9,0-23.37-10.47-23.37-23.37h0c0-12.9,10.47-23.37,23.37-23.37Z"/>
      <polyline class="cls-3" points="228.68 542.33 228.68 529.34 240.9 529.34 240.9 542.33"/>
      <polyline class="cls-6" points="232.01 559.27 232.01 529.34 237.56 529.34 237.56 559.27"/>
      <rect class="cls-11" x="231.41" y="529.34" width="6.78" height="15.6"/>
      <rect class="cls-5" x="231.41" y="529.34" width="6.78" height="15.6"/>
      <path class="cls-11" d="M237.86,523.51c0,1.87-1.51,3.38-3.38,3.38s-3.38-1.51-3.38-3.38,1.51-3.38,3.38-3.38,3.38,1.51,3.38,3.38"/>
      <path class="cls-5" d="M237.86,523.51c0,1.87-1.51,3.38-3.38,3.38s-3.38-1.51-3.38-3.38,1.51-3.38,3.38-3.38,3.38,1.51,3.38,3.38Z"/>
      <path class="cls-7" d="M234.8,591.01h0c12.9,0,23.37,10.47,23.37,23.37h0c0,12.9-10.47,23.37-23.37,23.37h0c-12.9,0-23.37-10.47-23.37-23.37h0c0-12.9,10.47-23.37,23.37-23.37Z"/>
      <polyline class="cls-3" points="226.59 616.64 229.17 604.02 240.4 604.02 243 617.02"/>
      <polyline class="cls-6" points="232.46 633.95 232.46 604.02 236.83 604.02 236.83 633.95"/>
      <path class="cls-11" d="M238.06,598.2c0,1.87-1.51,3.38-3.38,3.38s-3.38-1.51-3.38-3.38,1.51-3.38,3.38-3.38,3.38,1.51,3.38,3.38"/>
      <path class="cls-5" d="M238.06,598.2c0,1.87-1.51,3.38-3.38,3.38s-3.38-1.51-3.38-3.38,1.51-3.38,3.38-3.38,3.38,1.51,3.38,3.38Z"/>
      <path class="cls-11" d="M240.2,622.77h-10.87c-.63,0-1.11-.57-1-1.19l2.83-16.28c.09-.49.51-.84,1-.84h5.22c.49,0,.91.35,1,.84l2.83,16.28c.11.62-.37,1.19-1,1.19"/>
      <path class="cls-4" d="M240.2,622.77h-10.87c-.63,0-1.11-.57-1-1.19l2.83-16.28c.09-.49.51-.84,1-.84h5.22c.49,0,.91.35,1,.84l2.83,16.28c.11.62-.37,1.19-1,1.19Z"/>
    </g>
    <path class="cls-11" d="M329.91,731.39v6.92h-2.73v-6.68c0-2.47-.74-3.25-2.57-3.25h-1.86v9.92h-4.85v-2.11h2.27v-7.82h-1.56v-2.11h6.6c3.31,0,4.71,1.32,4.71,5.11ZM333.02,738.31v-12.03h2.71v12.03h-2.71ZM338.89,733.29v-7.02h2.71v7.02h-2.71ZM349.54,728.38h-5.85v-4.11h2.59v2h6.76l-4.25,12.03h-2.83l3.59-9.92ZM364.55,726.28v5.87c0,3.47-1.52,4.97-4.81,5.87l-5.07,1.44-.52-2.05,2.55-.74-2.19-10.41h2.73l1.94,9.68.08-.02c1.98-.56,2.57-1.3,2.57-3.87v-5.79h2.73ZM377.55,731.95v6.36h-5.77v-2.11h3.05v-4.17c0-2.67-.66-3.65-2.71-3.65h-.94l-1.68,9.92h-2.75l1.78-9.92h-1.66v-2.11h5.73c3.55,0,4.95,1.58,4.95,5.67ZM391.18,731.83c0-2.67-.66-3.45-2.77-3.45h-3.09v-2.11h3.67c3.57,0,4.91,1.32,4.91,5.31v6.72h-2.73v-6.48ZM397,738.31v-12.03h2.71v12.03h-2.71ZM411.6,728.38h-1.4v9.92h-2.71v-9.92h-5.47v-2.11h9.58v2.11ZM420.11,728.38h-2c-.56.52-1.08,1.56-.56,4.25l1.12,5.67h-2.69l-1.02-5.27c-.54-2.79.08-4.11.92-4.61v-.04h-2.67v-2.11h6.9v2.11ZM422.33,738.31v-12.03h2.71v12.03h-2.71ZM433.21,731.83c0-2.67-.66-3.45-2.77-3.45h-3.09v-2.11h3.67c3.57,0,4.91,1.32,4.91,5.31v6.72h-2.73v-6.48ZM448.57,731.29v2c0,3.65-1.38,5.01-4.73,5.01h-4.99v-2.11h4.45c1.94,0,2.57-.9,2.57-3.19v-1.44c0-2.27-.62-3.19-2.57-3.19h-1.86v4.31h-2.59v-6.42h4.99c3.35,0,4.73,1.36,4.73,5.01Z"/>
    <path class="cls-11" d="M329.97,579.42v7.78h-10.37v-12.03h6.42c2.83,0,3.95,1.14,3.95,4.25ZM327.32,579.88c0-1.96-.58-2.61-2.07-2.61h-3.01v7.82h5.07v-5.21ZM332.72,582.19v-7.02h2.71v7.02h-2.71ZM349.34,580.28v6.92h-2.73v-6.68c0-2.47-.74-3.25-2.57-3.25h-1.86v9.92h-4.85v-2.11h2.27v-7.82h-1.56v-2.11h6.6c3.31,0,4.71,1.32,4.71,5.11ZM352.45,587.2v-12.03h2.71v12.03h-2.71ZM363.33,580.73c0-2.67-.66-3.45-2.77-3.45h-3.09v-2.11h3.67c3.57,0,4.91,1.32,4.91,5.31v6.72h-2.73v-6.48ZM368.74,582.19v-7.02h2.71v7.02h-2.71ZM387.46,581.39c0,4.31-1.82,5.81-5.95,5.81h-6.2l-1.3-12.03h2.65l1.04,9.92h3.33c2.79,0,3.83-.86,3.83-3.99v-5.93h2.61v6.22ZM379.7,575.17h2.57v7.66h-2.57v-7.66ZM401.25,580.73c0-2.67-.66-3.45-2.77-3.45h-3.09v-2.11h3.67c3.57,0,4.91,1.32,4.91,5.31v6.72h-2.73v-6.48ZM407.07,587.2v-12.03h2.71v12.03h-2.71ZM421.68,577.28h-1.4v9.92h-2.71v-9.92h-5.47v-2.11h9.58v2.11ZM430.18,577.28h-2c-.56.52-1.08,1.56-.56,4.25l1.12,5.67h-2.69l-1.02-5.27c-.54-2.79.08-4.11.92-4.61v-.04h-2.67v-2.11h6.9v2.11ZM432.4,587.2v-12.03h2.71v12.03h-2.71ZM443.28,580.73c0-2.67-.66-3.45-2.77-3.45h-3.09v-2.11h3.67c3.57,0,4.91,1.32,4.91,5.31v6.72h-2.73v-6.48ZM458.64,580.18v2c0,3.65-1.38,5.01-4.73,5.01h-4.99v-2.11h4.45c1.94,0,2.57-.9,2.57-3.19v-1.44c0-2.27-.62-3.19-2.57-3.19h-1.86v4.31h-2.59v-6.42h4.99c3.35,0,4.73,1.36,4.73,5.01Z"/>
    <g class="cls-17">
      <path class="cls-7" d="M665.96,700.37h39.16c9.38,0,17,7.62,17,17v39.16c0,9.39-7.62,17-17,17h-39.15c-9.39,0-17-7.62-17-17v-39.15c0-9.39,7.62-17,17-17Z"/>
    </g>
    <path class="cls-11" d="M677.53,723.52v7.76h-3.06v-7.49c0-2.76-.83-3.64-2.88-3.64h-2.09v11.13h-5.44v-2.36h2.54v-8.77h-1.75v-2.36h7.4c3.71,0,5.28,1.48,5.28,5.73ZM679.49,731.27v-2.36h1.51c1.3,0,1.66-.52,1.66-1.96v-6.81h-2.16v-2.36h5.21v9.55c0,2.97-.85,3.93-3.55,3.93h-2.67ZM689.12,725.65v-7.87h3.03v7.87h-3.03ZM706.39,723.4v2.25c0,4.09-1.55,5.62-5.3,5.62h-5.6v-2.36h4.99c2.18,0,2.88-1.01,2.88-3.57v-1.62c0-2.54-.7-3.57-2.88-3.57h-2.09v4.83h-2.9v-7.19h5.6c3.75,0,5.3,1.53,5.3,5.62Z"/>
    <path class="cls-11" d="M664.4,755.56h-3.03v-11.13h-8.36v-2.36h11.4v13.49ZM656.11,747.79v7.78h-3.03v-7.78h3.03ZM666.84,755.56v-2.36h1.51c1.3,0,1.66-.52,1.66-1.96v-6.81h-2.16v-2.36h5.21v9.55c0,2.97-.85,3.93-3.55,3.93h-2.67ZM688.78,747.81v7.76h-3.06v-7.49c0-2.76-.83-3.64-2.88-3.64h-2.09v11.13h-5.44v-2.36h2.54v-8.77h-1.75v-2.36h7.4c3.71,0,5.28,1.48,5.28,5.73ZM703.28,748.44v7.13h-6.47v-2.36h3.42v-4.68c0-2.99-.74-4.09-3.03-4.09h-1.06l-1.89,11.13h-3.08l2-11.13h-1.87v-2.36h6.43c3.98,0,5.55,1.78,5.55,6.36ZM717.79,755.56h-3.03v-11.13h-8.36v-2.36h11.4v13.49ZM709.49,747.79v7.78h-3.03v-7.78h3.03Z"/>
    <g class="cls-16">
      <path class="cls-7" d="M593.51,374.92h68.71c4.3,0,7.79,3.49,7.79,7.79h0c0,4.3-3.49,7.79-7.79,7.79h-68.71c-4.3,0-7.79-3.49-7.79-7.79h0c0-4.3,3.49-7.79,7.79-7.79Z"/>
      <path class="cls-7" d="M183.83,195.5h0c4.3,0,7.79,3.49,7.79,7.79v68.71c0,4.3-3.49,7.79-7.79,7.79h0c-4.3,0-7.79-3.49-7.79-7.79v-68.71c0-4.3,3.49-7.79,7.79-7.79Z"/>
      <path class="cls-7" d="M183.83,382.71h0c4.3,0,7.79,3.49,7.79,7.79v68.71c0,4.3-3.49,7.79-7.79,7.79h0c-4.3,0-7.79-3.49-7.79-7.79v-68.71c0-4.3,3.49-7.79,7.79-7.79Z"/>
      <path class="cls-7" d="M685.54,540.35h0c4.3,0,7.79,3.49,7.79,7.79v68.71c0,4.3-3.49,7.79-7.79,7.79h0c-4.3,0-7.79-3.49-7.79-7.79v-68.71c0-4.3,3.49-7.79,7.79-7.79Z"/>
      <polyline class="cls-2" points="230.32 198.65 231.88 424.85 635.59 424.85 635.59 736.95 553.66 736.95"/>
      <polygon class="cls-11" points="230.18 179.07 219.1 206.73 230.33 200.11 241.64 206.58 230.18 179.07"/>
    </g>
  </g>
  <g>
    <circle class="cls-8" cx="224.12" cy="103.01" r="37.59"/>
    <g>
      <path class="cls-11" d="M225.23,79.46s20.4-23.3,33.58-7.86l-.7,7.41s-8.3-15.54-32.88.45Z"/>
      <path class="cls-11" d="M290.2,86.79s-15.6-27.36-31.4-15.2l-.7,7.41s11.04-13.36,32.1,7.78Z"/>
    </g>
    <g>
      <path class="cls-11" d="M105.21,110.06h-15.74v-11.05h6.95v5.39h18.17l-11.43,32.34h-7.6l9.65-26.68Z"/>
      <path class="cls-11" d="M147.63,123.05c0,10.03-3.94,13.69-12.51,13.69h-3.07v-5.66h1.89c4.1,0,6.42-1.35,6.42-7.92v-13.1h-20.75v-5.66h28.03v18.65ZM127.09,118.1v26.74h-7.28v-26.74h7.28Z"/>
      <path class="cls-11" d="M155.72,123.27v-18.87h7.28v18.87h-7.28Z"/>
      <path class="cls-11" d="M194.48,110.06h-3.77v26.68h-7.28v-26.68h-14.72v-5.66h25.77v5.66Z"/>
      <path class="cls-11" d="M228.38,119.66v17.09h-15.53v-5.66h8.19v-11.21c0-7.17-1.78-9.81-7.28-9.81h-2.53l-4.53,26.68h-7.39l4.8-26.68h-4.47v-5.66h15.42c9.54,0,13.32,4.26,13.32,15.26Z"/>
      <path class="cls-11" d="M279.22,123.05c0,10.03-3.94,13.69-12.51,13.69h-3.07v-5.66h1.89c4.1,0,6.42-1.35,6.42-7.92v-13.1h-20.75v-5.66h28.03v18.65ZM258.68,118.1v26.74h-7.28v-26.74h7.28Z"/>
      <path class="cls-11" d="M300.46,119.34c0-7.17-1.78-9.27-7.44-9.27h-8.3v-5.66h9.87c9.6,0,13.21,3.56,13.21,14.29v18.06h-7.33v-17.41Z"/>
      <path class="cls-11" d="M341.59,131.09v5.66h-27.49v-5.66h16.06v-21.02h-16.06v-5.66h23.4v26.68h4.1Z"/>
    </g>
  </g>
</svg>