<?xml version="1.0" encoding="UTF-8"?>
<svg id="Layer_2" data-name="Layer 2" xmlns="http://www.w3.org/2000/svg" viewBox="0 0 172.73 51.22">
  <defs>
    <style>
      .cls-1 {
        fill: #dae3ed;
      }

      .cls-2 {
        fill: #fff;
      }

      .cls-3 {
        fill: #3d4272;
      }

      .cls-3, .cls-4 {
        stroke: #3d4272;
        stroke-miterlimit: 10;
      }

      .cls-4 {
        fill: none;
      }
    </style>
  </defs>
  <rect class="cls-1" x="10.3" y="5.52" width="154.19" height="40.08" rx="20.04" ry="20.04"/>
  <rect class="cls-4" x="15.57" y="9.81" width="143.66" height="31.98" rx="15.99" ry="15.99"/>
  <rect class="cls-3" x="89.5" y="9.81" width="69.32" height="31.98" rx="15.99" ry="15.99"/>
  <g>
    <path class="cls-2" d="M111.23,26.6v6.24h-1.7v-6.09c0-2.66-.87-3.46-2.74-3.46h-2.23v9.55h-3.86v-1.32h2.23v-8.23h-1.61v-1.32h5.84c2.79,0,4.08,1.14,4.08,4.64Z"/>
    <path class="cls-2" d="M114.1,28.12v-6.16h1.7v6.16h-1.7Z"/>
    <path class="cls-2" d="M123.74,27.04c0-2.95-.76-3.75-3.03-3.75h-2.76v-1.32h3.12c3.19,0,4.37,1.14,4.37,4.93v5.95h-1.7v-5.8Z"/>
    <path class="cls-2" d="M137,31.51v1.32h-9.14v-1.32h5.96v-8.23h-5.96v-1.32h7.67v9.55h1.47Z"/>
    <path class="cls-2" d="M146.7,21.96v5.33c0,3.03-1.2,4.42-4.21,5.24l-4.3,1.2-.33-1.29,2.54-.73-2.03-9.75h1.71l1.88,9.32.24-.07c2.16-.6,2.79-1.52,2.79-3.95v-5.29h1.7Z"/>
  </g>
  <g>
    <path class="cls-2" d="M31.65,31.17v1.4h-8.37v-12.69h8.23v1.4h-6.49v3.9h5.78v1.31h-5.78v4.69h6.63Z"/>
    <path class="cls-2" d="M42.04,26.58v5.98h-1.65v-5.98c0-1.79-.83-2.85-2.43-2.85-1.74,0-2.56,1.11-2.56,2.99l-.02-.02.02,5.85h-1.67v-9.97h1.65v1.27c.6-.87,1.59-1.36,2.99-1.36,2.48,0,3.66,1.49,3.66,4.08Z"/>
    <path class="cls-2" d="M52.79,22.6v9.7c0,2.92-1.34,3.99-4.13,3.99-1.18,0-2.08-.16-2.97-.38l.24-1.18c.78.18,1.47.33,2.59.33,1.85,0,2.61-.76,2.61-2.88v-1.83c-.58,1.12-1.69,1.72-3.06,1.72-2.68,0-4.06-1.79-4.06-4.77s1.38-4.77,4.06-4.77c1.4,0,2.48.63,3.06,1.74v-1.67h1.67ZM51.2,27.29c0-2.23-.94-3.59-2.77-3.59s-2.76,1.36-2.76,3.59.92,3.61,2.76,3.61,2.77-1.38,2.77-3.61Z"/>
    <path class="cls-2" d="M55.66,30.54v-11.57h1.65v11.37c0,.82.25,1,.92,1h.54v1.23h-.96c-1.58,0-2.16-.36-2.16-2.03Z"/>
    <path class="cls-2" d="M60.74,18.97h1.65v1.74h-1.65v-1.74ZM60.74,22.6h1.65v9.97h-1.65v-9.97Z"/>
    <path class="cls-2" d="M64.51,29.19h1.5c-.15,1.63.6,2.28,2.1,2.28s2.12-.54,2.1-1.36c0-.89-.45-1.34-2.45-2.19-2.48-1.07-3.12-1.81-3.12-3.08s1.12-2.34,3.46-2.34c2.94,0,3.62,1.34,3.54,3.03h-1.49c.05-1-.34-1.85-2.03-1.85-1.32,0-1.87.54-1.87,1.21,0,.73.51,1.14,2.27,1.87,2.65,1.11,3.28,1.89,3.28,3.41s-1.31,2.48-3.77,2.48-3.81-.87-3.54-3.46Z"/>
    <path class="cls-2" d="M82.21,26.62v5.95h-1.67v-5.95c0-1.81-.83-2.86-2.41-2.86-1.76,0-2.57,1.11-2.57,3.01v5.8h-1.65v-13.6h1.65v4.79c.6-.8,1.56-1.23,2.9-1.23,2.48,0,3.75,1.5,3.75,4.1Z"/>
  </g>
</svg>