<?xml version="1.0" encoding="UTF-8"?>
<svg id="Layer_1" data-name="Layer 1" xmlns="http://www.w3.org/2000/svg" viewBox="0 0 450 450">
  <defs>
    <style>
      .cls-1 {
        fill: #fefcee;
      }

      .cls-1, .cls-2, .cls-3, .cls-4, .cls-5, .cls-6 {
        stroke-linecap: round;
        stroke-width: 2px;
      }

      .cls-1, .cls-2, .cls-3, .cls-6 {
        stroke-linejoin: round;
      }

      .cls-1, .cls-3, .cls-4, .cls-5, .cls-6 {
        stroke: #181d4c;
      }

      .cls-2 {
        stroke: #fff;
      }

      .cls-2, .cls-3, .cls-4 {
        fill: none;
      }

      .cls-4, .cls-5 {
        stroke-miterlimit: 10;
      }

      .cls-7 {
        fill: #ebf6ff;
      }

      .cls-5 {
        fill: #fff;
      }

      .cls-6 {
        fill: #181d4c;
      }
    </style>
  </defs>
  <circle class="cls-7" cx="225" cy="225" r="208.64"/>
  <line class="cls-4" x1="258.81" y1="244.99" x2="258.8" y2="244.99"/>
  <path class="cls-4" d="M194.17,246.39s0,.01,0,.01"/>
  <g>
    <path class="cls-5" d="M330.77,346.68c-16.94,3.23-51.22-17.45-51.22-17.45-80.67,32.36-155.88-36.13-155.88-36.13-48.31-21.43-16.38-51.26-16.38-51.26,7.56-59.23,91.17-99.32,91.17-99.32,0,0,11.08-24.09,26.11-30.97,10.85-4.96,43.74-5,61.16-4.65,7.21.16,13.41,2.84,17.91,8.47,6.63,8.3,10.53,21.73,9.36,26.11-3.76,14.14-24.51,11.5-24.51,11.5,0,0,14.41,8.29,10.09,12.45-1.79,1.73-5.32,2.54-8.83,2.9-5.29.55-10.51-1.49-14.04-5.47-2.58-2.93-6.08-5.9-9.58-5.9-6.87,0-20.94-13.11-20.94-13.11l-7.75,3.58s-36.89,31.26-36.89,48.17-6.22,49.97-6.37,50.79c7.52-9.94,19.44-16.35,32.86-16.35s24.21,5.82,31.77,14.95c31.47-20.48,72.11-2.18,72.11-2.18h0c4.59.5,8.3,23.56,8.3,51.93s-3.79,51.94-8.45,51.94"/>
    <path class="cls-5" d="M304.2,116.05s13.54,19.76,13.03,22.66-1.01,10.92-10.48,12.63"/>
    <path class="cls-5" d="M300.3,117.2s1.92.4,3.05,5.32c1.14,4.93,4.27,27.05,3.39,28.81s-1.55,4.06-11.01,2.47"/>
    <path class="cls-5" d="M290.71,111.43s4.67-.13,4.93,5.18,5.86,33.49,1.64,36.44c-4.22,2.95-10.99-.83-10.99-.83"/>
    <path class="cls-5" d="M282.25,113.96s5.3-1.39,5.3,8.59-1.26,29.68-1.26,29.68c0,0-19.83,4.17-23.36-6.19-2.43-7.13,3.03-7.49,6.67-7.03,1.58.2,3-.98,3.07-2.57l.23-5.05"/>
    <path class="cls-5" d="M193.8,246.39c-5.24,6.91-8.35,15.53-8.35,24.88"/>
    <path class="cls-5" d="M267.89,271.26c0-9.99-3.55-19.14-9.45-26.27"/>
  </g>
  <g>
    <path class="cls-1" d="M188.2,115.24c-5.32-30.97-33.47-51.98-62.89-46.93-29.42,5.05-48.96,34.25-43.64,65.21l106.53-18.29Z"/>
    <rect class="cls-1" x="107.02" y="65.53" width="44.56" height="52" rx="16.33" ry="16.33" transform="translate(-13.62 23.19) rotate(-9.74)"/>
    <rect class="cls-1" x="77.68" y="122.87" width="116.96" height="17.34" rx="7.09" ry="7.09" transform="translate(-20.29 24.93) rotate(-9.74)"/>
  </g>
  <g>
    <path class="cls-6" d="M347.76,154.42l-25.38,46.24c-1.13,2.05-.34,4.65,1.76,5.8l30.79,16.9c2.1,1.15,4.71.42,5.84-1.63l25.38-46.24"/>
    <path class="cls-1" d="M395.05,159.25l1.66-3.02c1.15-2.1.38-4.73-1.71-5.88l-30.79-16.9c-2.1-1.15-4.73-.38-5.88,1.71l-1.66,3.02"/>
    <polyline class="cls-1" points="383.08 152.68 353.05 136.2 344.5 151.77 390.12 176.81 398.67 161.24 390.88 156.96"/>
    <g>
      <line class="cls-3" x1="351.92" y1="154.75" x2="357.72" y2="144.19"/>
      <line class="cls-3" x1="359.84" y1="159.11" x2="365.64" y2="148.54"/>
      <line class="cls-3" x1="367.77" y1="163.46" x2="373.57" y2="152.89"/>
      <line class="cls-3" x1="375.69" y1="167.81" x2="381.5" y2="157.24"/>
      <line class="cls-3" x1="383.62" y1="172.16" x2="389.42" y2="161.59"/>
    </g>
    <line class="cls-2" x1="343.51" y1="170.23" x2="362.28" y2="180.53"/>
    <line class="cls-2" x1="339.85" y1="176.9" x2="359.01" y2="187.42"/>
    <line class="cls-2" x1="335.65" y1="183.9" x2="354.82" y2="194.42"/>
  </g>
  <line class="cls-3" x1="78.88" y1="176.12" x2="93.09" y2="158.75"/>
  <line class="cls-3" x1="72.36" y1="184.1" x2="75.32" y2="180.48"/>
  <line class="cls-3" x1="65.89" y1="192.01" x2="68.84" y2="188.4"/>
  <line class="cls-3" x1="69.82" y1="163.92" x2="72.77" y2="160.31"/>
  <line class="cls-3" x1="63.22" y1="171.99" x2="66.17" y2="168.38"/>
</svg>