<svg xmlns="http://www.w3.org/2000/svg" id="Layer_1" data-name="Layer 1" viewBox="0 0 450 450"><defs><style>.cls-1,.cls-2,.cls-4,.cls-6,.cls-7{stroke-linecap:round;stroke-width:2px}.cls-1,.cls-2,.cls-4,.cls-6{stroke-linejoin:round}.cls-1,.cls-4,.cls-6,.cls-7{stroke:#181d4c}.cls-1{fill:#fff}.cls-2{stroke:#ebf6ff;fill:#181d4c}.cls-7{fill:#181d4c;stroke-miterlimit:10}.cls-4{fill:#fefcee}.cls-6{fill:none}</style></defs><circle cx="225" cy="225" r="208.64" style="fill:#ebf6ff"/><path d="M192.9 156.04 145.86 176a40.17 40.17 0 0 0-23.3 27.32l-5.76 23.27c-3.37 13.59 6.92 26.74 20.93 26.74h169.32c14.59 0 24.96-14.19 20.55-28.09l-8.47-26.65a40.18 40.18 0 0 0-23.32-25.11l-43.35-17.39-59.54-.05Z" class="cls-2"/><path d="M192.33 150.22h59.66l-26.61 28.47h-5.1zm0 0-13.97 11.37 38.36 41.95 3.9-23.71zm59.66 0 13.04 11.37-37.42 41.95-2.3-23.42zm-29.66 103.37v-49.4" class="cls-2"/><path d="m216.2 276.66 13.29-3.41c2.79-.72 5.62.86 6.3 3.53l20.3 79.15c.68 2.67-1.03 5.41-3.82 6.13l-123.28 31.61c-2.79.72-5.62-.86-6.3-3.53l-20.3-79.15c-.68-2.67 1.03-5.41 3.82-6.13l13.47-3.45m95.8-25.7 12.66-3.25.6-.15c2.79-.72 5.28-2.21 5.55-3.34l8.96-33.78c.03-.15.02-.28-.03-.4-.32-1.05-2.73-2.18-5.53-1.46l-18.15 4.65L98.19 269.1l-18.15 4.65c-3.16.81-5.09 3.12-4.31 3.98l10.21 10.7 14.22 14.93c.78.86 3.68.98 6.48.26l.6-.15 11.92-3.06" class="cls-1"/><path d="M210.7 366.24c.26 1-.53 2.06-1.74 2.37l-38.87 9.97c-1.21.31-2.42-.24-2.67-1.24l-5.19-20.24c-.25-.99.53-2.06 1.75-2.37l38.87-9.97c1.21-.31 2.41.25 2.67 1.24l5.19 20.24Z" class="cls-6"/><path d="m87.26 278 18.69 19.64 120.3-30.85 6.92-26.2z" class="cls-4"/><path d="M215.28 275.16c-.05-.21-.23-.34-.39-.3l-95.1 24.39c-.16.04-.25.24-.2.46l1.58 6.18c.05.21.23.34.39.3l95.1-24.39c.16-.04.25-.25.2-.45l-1.58-6.18Z" class="cls-1"/><path d="m116.8 315.05 6.4-1.65m2.86-.73 6.41-1.64m2.86-.74 6.4-1.64m2.86-.73 6.4-1.64m2.86-.74 6.41-1.64m2.86-.73 6.4-1.64m2.86-.74 6.41-1.64m2.86-.73 6.4-1.64m2.86-.74 6.41-1.64m2.85-.73 6.41-1.65m2.86-.73 6.4-1.64m2.86-.73 6.41-1.65m-106.28 35.68 6.4-1.64m2.86-.73 6.4-1.64m2.86-.74 6.41-1.64m2.86-.73 6.4-1.64m2.86-.74 6.41-1.64m2.86-.73 6.4-1.64m2.86-.74 6.41-1.64m2.86-.73 6.4-1.65m2.86-.73 6.4-1.64m2.86-.73 6.41-1.65m2.86-.73 6.4-1.64m2.86-.74 6.41-1.64m-106.29 35.68 6.41-1.64m2.86-.73 6.4-1.64m2.86-.74 6.41-1.64m2.86-.73 6.4-1.65m2.86-.73 6.4-1.64m2.86-.73 6.41-1.65m2.86-.73 6.4-1.64m2.86-.74 6.41-1.64m2.86-.73 6.4-1.64m2.86-.74 6.41-1.64m2.85-.73 6.41-1.64m2.86-.74 6.4-1.64m-106.28 35.68 6.4-1.64m2.87-.73 6.4-1.65m2.86-.73 6.4-1.64m2.86-.74 6.41-1.64m2.86-.73 6.4-1.64m2.86-.74 6.41-1.64m2.86-.73 6.4-1.64m2.86-.74 6.4-1.64m2.86-.73 6.41-1.64m2.86-.74 6.4-1.64m2.86-.73 6.41-1.65m2.86-.73 6.4-1.64m-106.28 35.68 6.4-1.64m2.86-.74 6.41-1.64m2.86-.73 6.4-1.64m2.86-.74 6.41-1.64m2.86-.73 6.4-1.64m2.86-.74 6.4-1.64m2.86-.73 6.41-1.65m2.86-.73 6.4-1.64m2.86-.73 6.41-1.65m2.86-.73 6.4-1.64m2.86-.73 6.4-1.65m2.86-.73 6.41-1.64m-106.28 35.68 6.4-1.65m2.86-.73 6.41-1.64m2.86-.74 6.4-1.64m2.86-.73 6.4-1.64m2.86-.74 34.29-8.79m2.77-.71 6.4-1.64m2.86-.73 6.41-1.65m2.86-.73 6.4-1.64m2.86-.73 6.41-1.65M362.01 210.1c14.55 49.54-44.24 71.91-57.92 106.55-7.18 18.19 2.07 39.09 20.69 44.83 15.7 4.84 38.6-1.01 62.1-51.86" class="cls-6"/><ellipse cx="393.06" cy="294.89" class="cls-4" rx="15.43" ry="15.53" transform="rotate(-11.52 393.208 294.984)"/><path d="M393.07 301.09c-2.91 0-5.46-2.09-6.04-4.97-.68-3.35 1.47-6.63 4.79-7.31.4-.08.82-.12 1.23-.12 2.91 0 5.46 2.09 6.04 4.97.33 1.62.01 3.28-.89 4.66a6.1 6.1 0 0 1-3.9 2.65q-.615.12-1.23.12" style="fill:#fff"/><path d="M393.05 289.68c2.44 0 4.57 1.76 5.06 4.17.57 2.81-1.23 5.56-4.01 6.13-.34.07-.69.1-1.03.1-2.44 0-4.57-1.76-5.06-4.17-.28-1.36-.01-2.75.75-3.91a5.16 5.16 0 0 1 3.26-2.22c.34-.07.69-.1 1.03-.1m0-2c-.47 0-.95.05-1.43.14-3.87.79-6.37 4.59-5.57 8.49.7 3.42 3.69 5.77 7.02 5.77.47 0 .95-.05 1.43-.14 3.87-.79 6.37-4.59 5.57-8.49-.7-3.42-3.69-5.77-7.02-5.77" style="fill:#181d4c"/><path d="M312.86 101.91c-32.87 1.28-7.01 123.12 52.13 107.09 58.63-15.9 22.5-136.69-9.27-118.01" class="cls-6"/><path d="m354.07 95.3-5.87 2.6a2.72 2.72 0 0 1-3.59-1.4l-.14-.31c-.6-1.38.02-3 1.39-3.61l5.87-2.6a2.72 2.72 0 0 1 3.59 1.4l.14.31c.6 1.38-.02 3-1.39 3.61m-37.92 9.44 6.4-.43c1.5-.1 2.64-1.41 2.54-2.91l-.02-.34a2.72 2.72 0 0 0-2.89-2.55l-6.4.43c-1.5.1-2.64 1.41-2.54 2.91l.02.34a2.72 2.72 0 0 0 2.89 2.55m-84.38.22c-6.46-37.62-40.66-63.14-76.4-57.01s-59.47 41.6-53.02 79.22l129.41-22.21Z" class="cls-4"/><rect width="54.13" height="63.17" x="133.15" y="44.58" class="cls-4" rx="16.33" ry="16.33" transform="rotate(-9.74 160.197 76.187)"/><rect width="142.08" height="21.06" x="97.51" y="114.23" class="cls-4" rx="7.09" ry="7.09" transform="rotate(-9.74 168.53 124.776)"/><path d="m79.1 172.01 16.52-20.19m-24.1 29.46 3.44-4.2M64 190.48l3.43-4.2m1.14-28.45 3.43-4.2m-11.1 13.58 3.43-4.2" class="cls-6"/><path d="m54.38 224.22-7.9 29.83c-.35 1.32.46 2.69 1.81 3.05l19.86 5.26c1.35.36 2.73-.43 3.08-1.75l7.9-29.83" style="stroke-linecap:round;stroke-width:2px;stroke-linejoin:round;stroke:#181d4c;fill:#181d4c"/><path d="m81.91 220.3.52-1.95c.36-1.35-.45-2.74-1.8-3.1l-19.86-5.26c-1.35-.36-2.74.45-3.1 1.8l-.52 1.95m17.04 4.52-19.37-5.13-2.66 10.05 29.42 7.79 2.66-10.05-5.02-1.33" class="cls-4"/><path d="m56.79 223.83 1.8-6.82m3.31 8.17 1.8-6.82m3.31 8.17 1.81-6.81m3.3 8.17 1.81-6.82m3.31 8.17 1.8-6.82" class="cls-6"/><path d="M54.19 233.8 66.3 237m-13.25 1.1 12.36 3.27m-13.75 1.3 12.36 3.27" style="stroke-linecap:round;stroke-width:2px;stroke-linejoin:round;stroke:#fff;fill:none"/><rect width="84.05" height="48.83" x="256.5" y="220.77" class="cls-1" rx="14.23" ry="14.23" transform="rotate(4.14 298.356 245.055)"/><rect width="23.93" height="30.75" x="263.88" y="228.17" rx="4.16" ry="4.16" style="stroke-width:2px;stroke:#181d4c;stroke-miterlimit:10;fill:#fefcee" transform="rotate(4.14 275.717 243.38)"/><path d="m285.45 258.36.24-3.28a6.577 6.577 0 0 0-6.09-7.04l-8.21-.59a6.577 6.577 0 0 0-7.04 6.09l-.24 3.28zm-3.72-18.75a5.764 5.764 0 0 0-5.33-6.16 5.764 5.764 0 0 0-6.16 5.33 5.764 5.764 0 0 0 5.33 6.16c3.17.23 5.93-2.16 6.16-5.33Z" style="stroke-linecap:round;stroke:#181d4c;fill:#181d4c;stroke-miterlimit:10"/><path d="m295.11 235.5 35.56 2.57m-36.12 3.27 35.7 2.58" class="cls-7"/><path d="M294.8 253.49s8.58.44 10.22-.9c1.65-1.33-4.82-4-4.21-.92.61 3.09 13.88 4.75 19.08 4.21s8.41-1.46 11.75.39" class="cls-6"/><path d="m297.99 259.64 31.37 2.27" class="cls-7"/></svg>