<?xml version="1.0" encoding="UTF-8"?>
<svg id="Layer_1" data-name="Layer 1" xmlns="http://www.w3.org/2000/svg" viewBox="0 0 450 450">
  <defs>
    <style>
      .cls-1, .cls-2, .cls-3, .cls-4, .cls-5, .cls-6, .cls-7, .cls-8 {
        stroke-linecap: round;
      }

      .cls-1, .cls-2, .cls-4, .cls-5, .cls-6, .cls-7, .cls-9, .cls-8 {
        stroke-width: 2px;
      }

      .cls-1, .cls-2, .cls-4, .cls-5, .cls-6, .cls-8 {
        stroke-linejoin: round;
      }

      .cls-1, .cls-3, .cls-4, .cls-6, .cls-7, .cls-9, .cls-8 {
        stroke: #181d4c;
      }

      .cls-1, .cls-10 {
        fill: #fff;
      }

      .cls-2 {
        stroke: #ebf6ff;
      }

      .cls-2, .cls-3, .cls-7, .cls-11, .cls-8 {
        fill: #181d4c;
      }

      .cls-3, .cls-7, .cls-9 {
        stroke-miterlimit: 10;
      }

      .cls-4, .cls-9 {
        fill: #fefcee;
      }

      .cls-5 {
        stroke: #fff;
      }

      .cls-5, .cls-6 {
        fill: none;
      }

      .cls-12 {
        fill: #ebf6ff;
      }
    </style>
  </defs>
  <circle class="cls-12" cx="225" cy="225" r="208.64"/>
  <g>
    <path class="cls-2" d="M192.9,156.04l-47.04,19.96c-11.63,4.93-20.26,15.06-23.3,27.32l-5.76,23.27c-3.37,13.59,6.92,26.74,20.93,26.74h169.32c14.59,0,24.96-14.19,20.55-28.09l-8.47-26.65c-3.63-11.43-12.19-20.64-23.32-25.11l-43.35-17.39-59.54-.05Z"/>
    <polygon class="cls-2" points="192.33 150.22 251.99 150.22 225.38 178.69 220.28 178.69 192.33 150.22"/>
    <polygon class="cls-2" points="192.33 150.22 178.36 161.59 216.72 203.54 220.62 179.83 192.33 150.22"/>
    <polygon class="cls-2" points="251.99 150.22 265.03 161.59 227.61 203.54 225.31 180.12 251.99 150.22"/>
    <line class="cls-2" x1="222.33" y1="253.59" x2="222.33" y2="204.19"/>
  </g>
  <g>
    <path class="cls-1" d="M216.2,276.66l13.29-3.41c2.79-.72,5.62.86,6.3,3.53l20.3,79.15c.68,2.67-1.03,5.41-3.82,6.13l-123.28,31.61c-2.79.72-5.62-.86-6.3-3.53l-20.3-79.15c-.68-2.67,1.03-5.41,3.82-6.13l13.47-3.45"/>
    <path class="cls-1" d="M215.48,275.71l12.66-3.25.6-.15c2.79-.72,5.28-2.21,5.55-3.34l8.96-33.78c.03-.15.02-.28-.03-.4-.32-1.05-2.73-2.18-5.53-1.46l-18.15,4.65-121.35,31.12-18.15,4.65c-3.16.81-5.09,3.12-4.31,3.98l10.21,10.7,14.22,14.93c.78.86,3.68.98,6.48.26l.6-.15,11.92-3.06"/>
    <path class="cls-6" d="M210.7,366.24c.26,1-.53,2.06-1.74,2.37l-38.87,9.97c-1.21.31-2.42-.24-2.67-1.24l-5.19-20.24c-.25-.99.53-2.06,1.75-2.37l38.87-9.97c1.21-.31,2.41.25,2.67,1.24l5.19,20.24Z"/>
    <polygon class="cls-4" points="87.26 278 105.95 297.64 226.25 266.79 233.17 240.59 87.26 278"/>
    <path class="cls-1" d="M215.28,275.16c-.05-.21-.23-.34-.39-.3l-95.1,24.39c-.16.04-.25.24-.2.46l1.58,6.18c.05.21.23.34.39.3l95.1-24.39c.16-.04.25-.25.2-.45l-1.58-6.18Z"/>
    <g>
      <line class="cls-6" x1="116.8" y1="315.05" x2="123.2" y2="313.4"/>
      <line class="cls-6" x1="126.06" y1="312.67" x2="132.47" y2="311.03"/>
      <line class="cls-6" x1="135.33" y1="310.29" x2="141.73" y2="308.65"/>
      <line class="cls-6" x1="144.59" y1="307.92" x2="150.99" y2="306.28"/>
      <line class="cls-6" x1="153.85" y1="305.54" x2="160.26" y2="303.9"/>
      <line class="cls-6" x1="163.12" y1="303.17" x2="169.52" y2="301.53"/>
      <line class="cls-6" x1="172.38" y1="300.79" x2="178.79" y2="299.15"/>
      <line class="cls-6" x1="181.65" y1="298.42" x2="188.05" y2="296.78"/>
      <line class="cls-6" x1="190.91" y1="296.04" x2="197.32" y2="294.4"/>
      <line class="cls-6" x1="200.17" y1="293.67" x2="206.58" y2="292.02"/>
      <line class="cls-6" x1="209.44" y1="291.29" x2="215.84" y2="289.65"/>
      <line class="cls-6" x1="218.7" y1="288.92" x2="225.11" y2="287.27"/>
    </g>
    <g>
      <line class="cls-6" x1="118.83" y1="322.95" x2="125.23" y2="321.31"/>
      <line class="cls-6" x1="128.09" y1="320.58" x2="134.49" y2="318.94"/>
      <line class="cls-6" x1="137.35" y1="318.2" x2="143.76" y2="316.56"/>
      <line class="cls-6" x1="146.62" y1="315.83" x2="153.02" y2="314.19"/>
      <line class="cls-6" x1="155.88" y1="313.45" x2="162.29" y2="311.81"/>
      <line class="cls-6" x1="165.15" y1="311.08" x2="171.55" y2="309.44"/>
      <line class="cls-6" x1="174.41" y1="308.7" x2="180.82" y2="307.06"/>
      <line class="cls-6" x1="183.68" y1="306.33" x2="190.08" y2="304.68"/>
      <line class="cls-6" x1="192.94" y1="303.95" x2="199.34" y2="302.31"/>
      <line class="cls-6" x1="202.2" y1="301.58" x2="208.61" y2="299.93"/>
      <line class="cls-6" x1="211.47" y1="299.2" x2="217.87" y2="297.56"/>
      <line class="cls-6" x1="220.73" y1="296.82" x2="227.14" y2="295.18"/>
    </g>
    <g>
      <line class="cls-6" x1="120.85" y1="330.86" x2="127.26" y2="329.22"/>
      <line class="cls-6" x1="130.12" y1="328.49" x2="136.52" y2="326.85"/>
      <line class="cls-6" x1="139.38" y1="326.11" x2="145.79" y2="324.47"/>
      <line class="cls-6" x1="148.65" y1="323.74" x2="155.05" y2="322.09"/>
      <line class="cls-6" x1="157.91" y1="321.36" x2="164.31" y2="319.72"/>
      <line class="cls-6" x1="167.17" y1="318.99" x2="173.58" y2="317.34"/>
      <line class="cls-6" x1="176.44" y1="316.61" x2="182.84" y2="314.97"/>
      <line class="cls-6" x1="185.7" y1="314.23" x2="192.11" y2="312.59"/>
      <line class="cls-6" x1="194.97" y1="311.86" x2="201.37" y2="310.22"/>
      <line class="cls-6" x1="204.23" y1="309.48" x2="210.64" y2="307.84"/>
      <line class="cls-6" x1="213.49" y1="307.11" x2="219.9" y2="305.47"/>
      <line class="cls-6" x1="222.76" y1="304.73" x2="229.16" y2="303.09"/>
    </g>
    <g>
      <line class="cls-6" x1="122.88" y1="338.77" x2="129.28" y2="337.13"/>
      <line class="cls-6" x1="132.15" y1="336.4" x2="138.55" y2="334.75"/>
      <line class="cls-6" x1="141.41" y1="334.02" x2="147.81" y2="332.38"/>
      <line class="cls-6" x1="150.67" y1="331.64" x2="157.08" y2="330"/>
      <line class="cls-6" x1="159.94" y1="329.27" x2="166.34" y2="327.63"/>
      <line class="cls-6" x1="169.2" y1="326.89" x2="175.61" y2="325.25"/>
      <line class="cls-6" x1="178.47" y1="324.52" x2="184.87" y2="322.88"/>
      <line class="cls-6" x1="187.73" y1="322.14" x2="194.13" y2="320.5"/>
      <line class="cls-6" x1="196.99" y1="319.77" x2="203.4" y2="318.13"/>
      <line class="cls-6" x1="206.26" y1="317.39" x2="212.66" y2="315.75"/>
      <line class="cls-6" x1="215.52" y1="315.02" x2="221.93" y2="313.37"/>
      <line class="cls-6" x1="224.79" y1="312.64" x2="231.19" y2="311"/>
    </g>
    <g>
      <line class="cls-6" x1="124.91" y1="346.68" x2="131.31" y2="345.04"/>
      <line class="cls-6" x1="134.17" y1="344.3" x2="140.58" y2="342.66"/>
      <line class="cls-6" x1="143.44" y1="341.93" x2="149.84" y2="340.29"/>
      <line class="cls-6" x1="152.7" y1="339.55" x2="159.11" y2="337.91"/>
      <line class="cls-6" x1="161.97" y1="337.18" x2="168.37" y2="335.54"/>
      <line class="cls-6" x1="171.23" y1="334.8" x2="177.63" y2="333.16"/>
      <line class="cls-6" x1="180.49" y1="332.43" x2="186.9" y2="330.78"/>
      <line class="cls-6" x1="189.76" y1="330.05" x2="196.16" y2="328.41"/>
      <line class="cls-6" x1="199.02" y1="327.68" x2="205.43" y2="326.03"/>
      <line class="cls-6" x1="208.29" y1="325.3" x2="214.69" y2="323.66"/>
      <line class="cls-6" x1="217.55" y1="322.93" x2="223.95" y2="321.28"/>
      <line class="cls-6" x1="226.81" y1="320.55" x2="233.22" y2="318.91"/>
    </g>
    <g>
      <line class="cls-6" x1="126.94" y1="354.59" x2="133.34" y2="352.94"/>
      <line class="cls-6" x1="136.2" y1="352.21" x2="142.61" y2="350.57"/>
      <line class="cls-6" x1="145.47" y1="349.83" x2="151.87" y2="348.19"/>
      <line class="cls-6" x1="154.73" y1="347.46" x2="161.13" y2="345.82"/>
      <line class="cls-6" x1="163.99" y1="345.08" x2="198.28" y2="336.29"/>
      <line class="cls-6" x1="201.05" y1="335.58" x2="207.45" y2="333.94"/>
      <line class="cls-6" x1="210.31" y1="333.21" x2="216.72" y2="331.56"/>
      <line class="cls-6" x1="219.58" y1="330.83" x2="225.98" y2="329.19"/>
      <line class="cls-6" x1="228.84" y1="328.46" x2="235.25" y2="326.81"/>
    </g>
  </g>
  <g>
    <g>
      <path class="cls-6" d="M362.01,210.1c14.55,49.54-44.24,71.91-57.92,106.55-7.18,18.19,2.07,39.09,20.69,44.83,15.7,4.84,38.6-1.01,62.1-51.86"/>
      <ellipse class="cls-4" cx="393.06" cy="294.89" rx="15.43" ry="15.53" transform="translate(-50.99 84.47) rotate(-11.52)"/>
      <g>
        <path class="cls-10" d="M393.07,301.09c-2.91,0-5.46-2.09-6.04-4.97-.68-3.35,1.47-6.63,4.79-7.31.4-.08.82-.12,1.23-.12,2.91,0,5.46,2.09,6.04,4.97.33,1.62.01,3.28-.89,4.66-.91,1.38-2.29,2.32-3.9,2.65-.41.08-.82.12-1.23.12Z"/>
        <path class="cls-11" d="M393.05,289.68c2.44,0,4.57,1.76,5.06,4.17.57,2.81-1.23,5.56-4.01,6.13-.34.07-.69.1-1.03.1-2.44,0-4.57-1.76-5.06-4.17-.28-1.36-.01-2.75.75-3.91.76-1.15,1.92-1.94,3.26-2.22.34-.07.69-.1,1.03-.1M393.05,287.68c-.47,0-.95.05-1.43.14-3.87.79-6.37,4.59-5.57,8.49.7,3.42,3.69,5.77,7.02,5.77.47,0,.95-.05,1.43-.14,3.87-.79,6.37-4.59,5.57-8.49-.7-3.42-3.69-5.77-7.02-5.77h0Z"/>
      </g>
    </g>
    <path class="cls-6" d="M312.86,101.91c-32.87,1.28-7.01,123.12,52.13,107.09,58.63-15.9,22.5-136.69-9.27-118.01"/>
    <path class="cls-4" d="M354.07,95.3l-5.87,2.6c-1.38.61-2.98-.02-3.59-1.4l-.14-.31c-.6-1.38.02-3,1.39-3.61l5.87-2.6c1.38-.61,2.98.02,3.59,1.4l.14.31c.6,1.38-.02,3-1.39,3.61Z"/>
    <path class="cls-4" d="M316.15,104.74l6.4-.43c1.5-.1,2.64-1.41,2.54-2.91l-.02-.34c-.1-1.51-1.39-2.65-2.89-2.55l-6.4.43c-1.5.1-2.64,1.41-2.54,2.91l.02.34c.1,1.51,1.39,2.65,2.89,2.55Z"/>
  </g>
  <g>
    <g>
      <path class="cls-4" d="M231.77,104.96c-6.46-37.62-40.66-63.14-76.4-57.01-35.74,6.13-59.47,41.6-53.02,79.22l129.41-22.21Z"/>
      <rect class="cls-4" x="133.15" y="44.58" width="54.13" height="63.17" rx="16.33" ry="16.33" transform="translate(-10.58 28.2) rotate(-9.74)"/>
      <rect class="cls-4" x="97.51" y="114.23" width="142.08" height="21.06" rx="7.09" ry="7.09" transform="translate(-18.68 30.31) rotate(-9.74)"/>
    </g>
    <line class="cls-6" x1="79.1" y1="172.01" x2="95.62" y2="151.82"/>
    <line class="cls-6" x1="71.52" y1="181.28" x2="74.96" y2="177.08"/>
    <line class="cls-6" x1="64" y1="190.48" x2="67.43" y2="186.28"/>
    <line class="cls-6" x1="68.57" y1="157.83" x2="72" y2="153.63"/>
    <line class="cls-6" x1="60.9" y1="167.21" x2="64.33" y2="163.01"/>
  </g>
  <g>
    <path class="cls-8" d="M54.38,224.22l-7.9,29.83c-.35,1.32.46,2.69,1.81,3.05l19.86,5.26c1.35.36,2.73-.43,3.08-1.75l7.9-29.83"/>
    <path class="cls-4" d="M81.91,220.3l.52-1.95c.36-1.35-.45-2.74-1.8-3.1l-19.86-5.26c-1.35-.36-2.74.45-3.1,1.8l-.52,1.95"/>
    <polyline class="cls-4" points="74.19 218.26 54.82 213.13 52.16 223.18 81.58 230.97 84.24 220.92 79.22 219.59"/>
    <g>
      <line class="cls-6" x1="56.79" y1="223.83" x2="58.59" y2="217.01"/>
      <line class="cls-6" x1="61.9" y1="225.18" x2="63.7" y2="218.36"/>
      <line class="cls-6" x1="67.01" y1="226.53" x2="68.82" y2="219.72"/>
      <line class="cls-6" x1="72.12" y1="227.89" x2="73.93" y2="221.07"/>
      <line class="cls-6" x1="77.24" y1="229.24" x2="79.04" y2="222.42"/>
    </g>
    <line class="cls-5" x1="54.19" y1="233.8" x2="66.3" y2="237"/>
    <line class="cls-5" x1="53.05" y1="238.1" x2="65.41" y2="241.37"/>
    <line class="cls-5" x1="51.66" y1="242.67" x2="64.02" y2="245.94"/>
  </g>
  <g>
    <rect class="cls-1" x="256.5" y="220.77" width="84.05" height="48.83" rx="14.23" ry="14.23" transform="translate(18.47 -20.9) rotate(4.14)"/>
    <rect class="cls-9" x="263.88" y="228.17" width="23.93" height="30.75" rx="4.16" ry="4.16" transform="translate(18.29 -19.27) rotate(4.14)"/>
    <path class="cls-3" d="M285.45,258.36l.24-3.28c.26-3.63-2.46-6.78-6.09-7.04l-8.21-.59c-3.63-.26-6.78,2.46-7.04,6.09l-.24,3.28,21.34,1.54Z"/>
    <path class="cls-3" d="M281.73,239.61c.23-3.17-2.16-5.93-5.33-6.16-3.17-.23-5.93,2.16-6.16,5.33-.23,3.17,2.16,5.93,5.33,6.16,3.17.23,5.93-2.16,6.16-5.33Z"/>
    <line class="cls-7" x1="295.11" y1="235.5" x2="330.67" y2="238.07"/>
    <line class="cls-7" x1="294.55" y1="241.34" x2="330.25" y2="243.92"/>
    <path class="cls-6" d="M294.8,253.49s8.58.44,10.22-.9c1.65-1.33-4.82-4-4.21-.92.61,3.09,13.88,4.75,19.08,4.21s8.41-1.46,11.75.39"/>
    <line class="cls-7" x1="297.99" y1="259.64" x2="329.36" y2="261.91"/>
  </g>
</svg>