<svg xmlns="http://www.w3.org/2000/svg" id="Layer_1" data-name="Layer 1" viewBox="0 0 450 450"><defs><style>.cls-1,.cls-2,.cls-3,.cls-4,.cls-5,.cls-6{stroke:#181d4c;stroke-width:2px}.cls-1,.cls-2,.cls-3{stroke-linecap:round}.cls-1,.cls-2,.cls-5{fill:#fff}.cls-1,.cls-3{stroke-linejoin:round}.cls-3,.cls-4{fill:none}.cls-4,.cls-5,.cls-6{stroke-miterlimit:10}.cls-6{fill:#fefcee}</style></defs><circle cx="225" cy="225" r="208.64" style="fill:#ebf6ff"/><path d="M316.89 294.61h.02c49.64 0 90.02-40.4 90.02-90.04 0-46.89-36.04-85.48-81.86-89.63V98.8l-40.04 33.45 40.04 31.82v-16.26c27.77 3.99 49.22 27.89 49.22 56.76 0 31.65-25.74 57.41-57.38 57.41h0c-15.33 0-29.74-5.96-40.58-16.81-10.77-10.76-16.72-25.07-16.8-40.3H226.9c.07 23.94 9.42 46.44 26.35 63.39 17 16.99 39.61 26.36 63.65 26.36Z" style="stroke:#181d4c;stroke-width:2px;stroke-linecap:round;stroke-linejoin:round;fill:#181d4c"/><path d="m242.38 285.79 10.06-19.07c3.12-6.55 10.89-9.42 17.52-6.49 2.99 1.32 6.28 5.79 1.2 11.76l-9.42 18.65.19.05 16.05-25.72c3.7-6.24 11.92-8.78 18.03-4.88 5.04 3.22.39 9.44-1.23 12.27l-7.29 15.35 9.59-15.81c6.5-8.16 16.6-7.54 18.78-.55 1.05 3.37-2.77 5.06-4.96 7.41l-29 40.2a9.1 9.1 0 0 1-7.77 3.76l-69.51-3.1 16.22 67.49-4.48 1.22a83.3 83.3 0 0 1-47.79-1.22h0l-14.91-71.58c-7.19-30.64 12.5-61.12 43.38-67.16l26.08-5.11c1.88-.37 27.63 6.21-20.6 29.42l39.89 13.11Z" class="cls-1"/><path d="m272.34 314.74 16.21-28.94m-37.11 26.74 11.11-23.48m-57.95 12.77 30.75-2.43 7.03-13.61m-37.78 33.82h-12.74" class="cls-3"/><path d="M194.68 281.17s22.26-5.78 24.66 19.1" class="cls-3"/><path d="M317.14 209.93c-4.38-4.38-4.38-11.49 0-15.88 4.38-4.38 11.49-4.38 15.88 0l21.99 21.99c4.39 4.39 4.39 11.5 0 15.88s-11.5 4.38-15.88 0z" class="cls-5"/><path d="m344.14 205.17-11.12-11.12c-4.39-4.38-11.49-4.38-15.88 0-4.39 4.39-4.39 11.5 0 15.88l11.12 11.12z" class="cls-6"/><path d="M81.55 251.83c18.72 18.72 49.08 18.72 67.8 0s18.72-49.08 0-67.8-49.08-18.72-67.8 0-18.72 49.08 0 67.8Zm54.15-54.16c11.19 11.19 11.19 29.32 0 40.51s-29.32 11.19-40.51 0-11.19-29.32 0-40.51 29.32-11.19 40.51 0Z" class="cls-5"/><path d="M81.55 251.83c.21.21.43.4.64.61l13.64-13.64c-.21-.2-.43-.4-.64-.61C84 227 84 208.87 95.19 197.68c3.75-3.75 8.27-6.23 13.05-7.47l-4.99-18.64a47.67 47.67 0 0 0-21.7 12.46c-18.72 18.72-18.72 49.08 0 67.8Z" style="stroke:#181d4c;stroke-width:2px;stroke-miterlimit:10;fill:#181d4c"/><path d="m124.29 263.45-3.44-17.39c-8.72 1.67-18.06-.75-24.98-7.23l-13.64 13.64c11.64 11.21 27.55 15.39 42.37 12.52l-.31-1.55Zm151.63-136.77-134.31 31.3-1.68-7.23c-1.25-5.37 2.09-10.73 7.46-11.98L262.26 112c5.36-1.25 10.73 2.08 11.98 7.45z" class="cls-6"/><path d="m291.88 239.12-114.87 26.77c-5.37 1.25-10.73-2.08-11.98-7.45l-23.42-100.46 134.31-31.3 23.42 100.46c1.25 5.36-2.09 10.73-7.46 11.98Z" class="cls-5"/><path d="m171.6 206.78-.24-1.01a6.55 6.55 0 0 1 4.9-7.87l81.8-19.06a6.55 6.55 0 0 1 7.87 4.9l.24 1.01a6.55 6.55 0 0 1-4.9 7.87l-81.8 19.06a6.55 6.55 0 0 1-7.87-4.9Z" class="cls-5"/><path d="m236.904 183.793 22.069-5.144a6.553 6.553 0 0 1 7.866 4.893l.236 1.012a6.553 6.553 0 0 1-4.893 7.866l-22.068 5.144a6.553 6.553 0 0 1-7.866-4.892l-.236-1.013a6.553 6.553 0 0 1 4.892-7.866Z" class="cls-5"/><path d="m202.26 176.5 20.57-4.79m-36.73-2.56 47.98-11.18" class="cls-1"/><path d="m240.54 189.82 18.31-4.27" class="cls-2"/><path d="m279.92 91.1-16.87 16.86a5.56 5.56 0 0 0-1.4 5.51l-2.03 2.03a2.656 2.656 0 0 0 0 3.76 2.656 2.656 0 0 0 3.76 0l2.03-2.03c1.89.55 4.02.09 5.51-1.4l16.86-16.87" class="cls-6"/><path d="m292.05 96.43 14-14c2.57-2.57 2.5-6.8-.15-9.45s-6.88-2.72-9.45-.15l-14 14" class="cls-4"/><path d="m277.471 87.93 3.324-3.324 13.498 13.498-3.323 3.324z" class="cls-4"/><path d="m87.36 92.95 53.7-22.82 19.13 7.73 31.78 74.8-67.13 28.52z" class="cls-1"/><path d="m139.14 70.95 6.52 15.34 15.35-6.51" class="cls-2"/><path d="m104.27 112.97 49.58-20.51m-45.61 29.08 49.59-20.52m-45.61 29.08 49.59-20.52m-45.61 29.08 49.59-20.51m-45.61 29.08 49.59-20.52m-45.61 29.08 49.58-20.52" class="cls-1"/></svg>