<?xml version="1.0" encoding="UTF-8"?>
<svg id="Layer_1" data-name="Layer 1" xmlns="http://www.w3.org/2000/svg" viewBox="0 0 450 450">
  <defs>
    <style>
      .cls-1, .cls-2, .cls-3, .cls-4, .cls-5, .cls-6, .cls-7, .cls-8 {
        stroke: #181d4c;
        stroke-width: 2px;
      }

      .cls-1, .cls-2, .cls-3, .cls-8 {
        stroke-linecap: round;
      }

      .cls-1, .cls-2, .cls-5 {
        fill: #fff;
      }

      .cls-1, .cls-3, .cls-8 {
        stroke-linejoin: round;
      }

      .cls-3, .cls-4 {
        fill: none;
      }

      .cls-4, .cls-5, .cls-6, .cls-7 {
        stroke-miterlimit: 10;
      }

      .cls-6 {
        fill: #fefcee;
      }

      .cls-9 {
        fill: #ebf6ff;
      }

      .cls-7, .cls-8 {
        fill: #181d4c;
      }
    </style>
  </defs>
  <circle class="cls-9" cx="225" cy="225" r="208.64"/>
  <path class="cls-8" d="M316.89,294.61h.02c49.64,0,90.02-40.4,90.02-90.04,0-46.89-36.04-85.48-81.86-89.63v-16.14l-40.04,33.45,40.04,31.82v-16.26c27.77,3.99,49.22,27.89,49.22,56.76,0,31.65-25.74,57.41-57.38,57.41h0c-15.33,0-29.74-5.96-40.58-16.81-10.77-10.76-16.72-25.07-16.8-40.3h-32.63c.07,23.94,9.42,46.44,26.35,63.39,17,16.99,39.61,26.36,63.65,26.36Z"/>
  <g>
    <path class="cls-1" d="M242.38,285.79l10.06-19.07c3.12-6.55,10.89-9.42,17.52-6.49,2.99,1.32,6.28,5.79,1.2,11.76l-9.42,18.65.19.05,16.05-25.72c3.7-6.24,11.92-8.78,18.03-4.88,5.04,3.22.39,9.44-1.23,12.27l-7.29,15.35,9.59-15.81c6.5-8.16,16.6-7.54,18.78-.55,1.05,3.37-2.77,5.06-4.96,7.41l-29,40.2c-1.79,2.48-4.71,3.89-7.77,3.76l-69.51-3.1,16.22,67.49-4.48,1.22c-15.71,4.27-32.32,3.85-47.79-1.22h0l-14.91-71.58c-7.19-30.64,12.5-61.12,43.38-67.16l26.08-5.11c1.88-.37,27.63,6.21-20.6,29.42l39.89,13.11Z"/>
    <line class="cls-3" x1="272.34" y1="314.74" x2="288.55" y2="285.8"/>
    <line class="cls-3" x1="251.44" y1="312.54" x2="262.55" y2="289.06"/>
    <polyline class="cls-3" points="204.6 301.83 235.35 299.4 242.38 285.79"/>
    <line class="cls-3" x1="204.6" y1="319.61" x2="191.86" y2="319.61"/>
    <path class="cls-3" d="M194.68,281.17s22.26-5.78,24.66,19.1"/>
  </g>
  <g>
    <g>
      <path class="cls-5" d="M317.14,209.93c-4.38-4.38-4.38-11.49,0-15.88h0c4.38-4.38,11.49-4.38,15.88,0l21.99,21.99c4.39,4.39,4.39,11.5,0,15.88h0c-4.39,4.38-11.5,4.38-15.88,0l-21.99-21.99Z"/>
      <path class="cls-6" d="M344.14,205.17l-11.12-11.12c-4.39-4.38-11.49-4.38-15.88,0-4.39,4.39-4.39,11.5,0,15.88l11.12,11.12,15.88-15.88Z"/>
    </g>
    <g>
      <path class="cls-5" d="M81.55,251.83c18.72,18.72,49.08,18.72,67.8,0,18.72-18.72,18.72-49.08,0-67.8-18.72-18.72-49.08-18.72-67.8,0-18.72,18.72-18.72,49.08,0,67.8ZM135.7,197.67c11.19,11.19,11.19,29.32,0,40.51s-29.32,11.19-40.51,0c-11.19-11.19-11.19-29.32,0-40.51,11.19-11.19,29.32-11.19,40.51,0Z"/>
      <path class="cls-7" d="M81.55,251.83c.21.21.43.4.64.61l13.64-13.64c-.21-.2-.43-.4-.64-.61-11.19-11.19-11.19-29.32,0-40.51,3.75-3.75,8.27-6.23,13.05-7.47l-4.99-18.64c-7.95,2.08-15.47,6.23-21.7,12.46-18.72,18.72-18.72,49.08,0,67.8Z"/>
      <path class="cls-6" d="M124.29,263.45l-3.44-17.39c-8.72,1.67-18.06-.75-24.98-7.23l-13.64,13.64c11.64,11.21,27.55,15.39,42.37,12.52l-.31-1.55Z"/>
    </g>
    <g>
      <path class="cls-6" d="M275.92,126.68l-134.31,31.3-1.68-7.23c-1.25-5.37,2.09-10.73,7.46-11.98l114.87-26.77c5.36-1.25,10.73,2.08,11.98,7.45l1.68,7.23Z"/>
      <path class="cls-5" d="M291.88,239.12l-114.87,26.77c-5.37,1.25-10.73-2.08-11.98-7.45l-23.42-100.46,134.31-31.3,23.42,100.46c1.25,5.36-2.09,10.73-7.46,11.98Z"/>
      <path class="cls-5" d="M171.6,206.78l-.24-1.01c-.82-3.53,1.37-7.05,4.9-7.87l81.8-19.06c3.53-.82,7.05,1.37,7.87,4.9l.24,1.01c.82,3.53-1.37,7.05-4.9,7.87l-81.8,19.06c-3.53.82-7.05-1.37-7.87-4.9Z"/>
      <path class="cls-5" d="M238.21,181.03h22.66c3.61,0,6.55,2.93,6.55,6.55v1.04c0,3.61-2.93,6.55-6.55,6.55h-22.66c-3.61,0-6.55-2.93-6.55-6.55v-1.04c0-3.61,2.93-6.55,6.55-6.55Z" transform="translate(-36.18 61.56) rotate(-13.12)"/>
      <line class="cls-1" x1="202.26" y1="176.5" x2="222.83" y2="171.71"/>
      <line class="cls-1" x1="186.1" y1="169.15" x2="234.08" y2="157.97"/>
      <line class="cls-2" x1="240.54" y1="189.82" x2="258.85" y2="185.55"/>
    </g>
    <g>
      <path class="cls-6" d="M279.92,91.1l-16.87,16.86c-1.49,1.49-1.96,3.62-1.4,5.51l-2.03,2.03c-1.04,1.04-1.04,2.72,0,3.76,1.04,1.04,2.72,1.04,3.76,0l2.03-2.03c1.89.55,4.02.09,5.51-1.4l16.86-16.87"/>
      <path class="cls-4" d="M292.05,96.43l14-14c2.57-2.57,2.5-6.8-.15-9.45-2.65-2.65-6.88-2.72-9.45-.15l-14,14"/>
      <rect class="cls-4" x="283.53" y="83.46" width="4.7" height="19.09" transform="translate(17.97 229.4) rotate(-45)"/>
    </g>
  </g>
  <g>
    <polygon class="cls-1" points="87.36 92.95 141.06 70.13 160.19 77.86 191.97 152.66 124.84 181.18 87.36 92.95"/>
    <polyline class="cls-2" points="139.14 70.95 145.66 86.29 161.01 79.78"/>
    <line class="cls-1" x1="104.27" y1="112.97" x2="153.85" y2="92.46"/>
    <line class="cls-1" x1="108.24" y1="121.54" x2="157.83" y2="101.02"/>
    <line class="cls-1" x1="112.22" y1="130.1" x2="161.81" y2="109.58"/>
    <line class="cls-1" x1="116.2" y1="138.66" x2="165.79" y2="118.15"/>
    <line class="cls-1" x1="120.18" y1="147.23" x2="169.77" y2="126.71"/>
    <line class="cls-1" x1="124.16" y1="155.79" x2="173.74" y2="135.27"/>
  </g>
</svg>