<?xml version="1.0" encoding="UTF-8"?>
<svg id="Layer_1" data-name="Layer 1" xmlns="http://www.w3.org/2000/svg" viewBox="0 0 450 450">
  <defs>
    <style>
      .cls-1, .cls-2, .cls-3, .cls-4, .cls-5, .cls-6, .cls-7, .cls-8, .cls-9, .cls-10, .cls-11, .cls-12 {
        stroke-linecap: round;
      }

      .cls-1, .cls-2, .cls-3, .cls-4, .cls-5, .cls-6, .cls-7, .cls-8, .cls-9, .cls-10, .cls-11, .cls-12, .cls-13, .cls-14 {
        stroke: #181d4c;
        stroke-width: 2px;
      }

      .cls-1, .cls-2, .cls-13 {
        fill: #fff;
      }

      .cls-1, .cls-5, .cls-8 {
        stroke-linejoin: round;
      }

      .cls-3, .cls-4, .cls-11, .cls-15 {
        fill: #ebf6ff;
      }

      .cls-3, .cls-6, .cls-7, .cls-10, .cls-12 {
        stroke-miterlimit: 10;
      }

      .cls-4 {
        stroke-linejoin: bevel;
      }

      .cls-5, .cls-7 {
        fill: #fefcee;
      }

      .cls-6 {
        stroke-dasharray: 7.21 7.21;
      }

      .cls-6, .cls-8, .cls-9, .cls-12 {
        fill: none;
      }

      .cls-10, .cls-14 {
        fill: #181d4c;
      }
    </style>
  </defs>
  <circle class="cls-15" cx="225" cy="225" r="208.64"/>
  <g>
    <g>
      <path class="cls-5" d="M347.57,317.7c0,2.07-.78,4.13-2.36,5.7l-7.81,7.81-11.4-11.4,7.81-7.81c3.15-3.15,8.25-3.15,11.4,0,1.58,1.58,2.36,3.64,2.36,5.7Z"/>
      <path class="cls-1" d="M337.4,331.21l-7.98,7.98c-3.15,3.15-8.26,3.15-11.4,0-3.15-3.15-3.15-8.25,0-11.4l7.98-7.98,11.4,11.4Z"/>
    </g>
    <g>
      <path class="cls-1" d="M374.72,293.74l-285.47,43.43c-5.03.77-9.71-2.71-10.43-7.74l-23.22-162.32,303.95-43.42,22.85,159.72c.71,4.96-2.72,9.57-7.68,10.33Z"/>
      <path class="cls-5" d="M359.78,125.26L55.96,169.56l-2.53-17.73c-.47-3.27,1.42-6.25,4.21-6.65l293.44-44.74c2.79-.4,5.43,1.93,5.9,5.2l2.8,19.62Z"/>
      <g>
        <path class="cls-7" d="M72.37,156.73c.26,1.79-.99,3.44-2.77,3.7-1.79.26-3.44-.99-3.7-2.77-.26-1.79.99-3.44,2.77-3.7,1.79-.26,3.44.99,3.7,2.77Z"/>
        <path class="cls-7" d="M81.87,155.37c.26,1.79-.99,3.44-2.77,3.7-1.79.26-3.44-.99-3.7-2.77-.26-1.79.98-3.44,2.77-3.7,1.79-.26,3.44.99,3.7,2.77Z"/>
        <path class="cls-7" d="M91.38,154.01c.26,1.79-.99,3.44-2.77,3.7-1.79.26-3.44-.99-3.7-2.77-.26-1.79.99-3.44,2.77-3.7,1.79-.26,3.44.99,3.7,2.77Z"/>
      </g>
    </g>
    <g>
      <polygon class="cls-1" points="197.91 135.24 308.94 162.07 329.99 196.54 292.62 351.18 153.83 317.64 197.91 135.24"/>
      <polyline class="cls-2" points="304.97 161.11 297.31 192.84 329.03 200.5"/>
      <line class="cls-2" x1="258.05" y1="233.71" x2="289.77" y2="241.38"/>
      <line class="cls-2" x1="261.89" y1="217.85" x2="301.54" y2="227.43"/>
      <line class="cls-2" x1="210.73" y1="255.85" x2="286.07" y2="274.06"/>
      <line class="cls-2" x1="206.9" y1="271.71" x2="282.24" y2="289.92"/>
      <line class="cls-2" x1="203.07" y1="287.57" x2="278.41" y2="305.78"/>
      <line class="cls-2" x1="194.87" y1="252.02" x2="202.8" y2="253.93"/>
      <line class="cls-2" x1="191.04" y1="267.88" x2="198.97" y2="269.79"/>
      <line class="cls-2" x1="187.21" y1="283.74" x2="195.14" y2="285.66"/>
      <path class="cls-10" d="M239.22,233.35l1.47-6.09c1.63-6.73-2.51-13.5-9.24-15.12l-15.23-3.68c-6.73-1.63-13.5,2.51-15.12,9.24l-1.47,6.09,39.59,9.57Z"/>
      <path class="cls-10" d="M238.09,196.99c1.42-5.89-2.2-11.81-8.08-13.23-5.89-1.42-11.81,2.2-13.23,8.08-1.42,5.89,2.19,11.81,8.08,13.23,5.88,1.42,11.81-2.19,13.23-8.08Z"/>
    </g>
    <g>
      <polygon class="cls-4" points="155.01 271.22 165.15 288.06 146.02 283.83 155.01 271.22"/>
      <path class="cls-11" d="M88.02,222.16l-6.12-4.48c-2.25-1.65-5.43-1.14-7.1,1.13l-3.02,4.12c-1.67,2.27-1.19,5.46,1.07,7.11l6.12,4.48,67.05,49.32,8.98-12.61-66.99-49.06Z"/>
      <line class="cls-11" x1="169.15" y1="291.16" x2="163.03" y2="286.68"/>
      <line class="cls-11" x1="78.92" y1="233.72" x2="87.8" y2="221.59"/>
      <line class="cls-11" x1="128.02" y1="270.27" x2="136.91" y2="258.14"/>
    </g>
    <g>
      <polygon class="cls-3" points="171.16 108.93 128.16 108.93 112.99 98.82 112.99 108.93 105.4 108.93 105.4 212.63 171.16 212.63 171.16 108.93"/>
      <line class="cls-11" x1="158.51" y1="197.45" x2="118.05" y2="197.45"/>
      <line class="cls-11" x1="158.51" y1="187.34" x2="118.05" y2="187.34"/>
      <line class="cls-11" x1="158.51" y1="177.22" x2="118.05" y2="177.22"/>
      <line class="cls-11" x1="158.51" y1="146.87" x2="118.05" y2="146.87"/>
      <line class="cls-11" x1="158.51" y1="136.75" x2="118.05" y2="136.75"/>
      <line class="cls-11" x1="158.51" y1="126.64" x2="118.05" y2="126.64"/>
      <g>
        <line class="cls-11" x1="125.63" y1="162.05" x2="130.69" y2="162.05"/>
        <line class="cls-11" x1="135.75" y1="162.05" x2="140.81" y2="162.05"/>
        <line class="cls-11" x1="145.87" y1="162.05" x2="150.93" y2="162.05"/>
      </g>
    </g>
    <g>
      <path class="cls-12" d="M267.37,187.34c.44-1.01,1.01-2.23,1.72-3.61"/>
      <path class="cls-6" d="M272.73,177.51c7.2-10.97,21-25.2,44.7-26.76"/>
      <path class="cls-12" d="M321.04,150.61c1.31-.01,2.64.01,4,.08"/>
    </g>
  </g>
  <polyline class="cls-8" points="410.01 150.32 391.64 150.32 380.72 150.32 374.9 161.11 367.32 136.36 360.63 151.59 330.27 150.98"/>
  <g>
    <path class="cls-14" d="M274.82,121.58c-5.25,3.67-12.48,2.4-16.15-2.85-3.67-5.25-2.4-12.48,2.85-16.15,5.25-3.67,12.48-2.4,16.15,2.85,3.67,5.25,2.4,12.48-2.84,16.15Z"/>
    <path class="cls-13" d="M275.92,118.88c-5.25,3.67-12.48,2.4-16.15-2.85-3.67-5.25-2.4-12.48,2.85-16.15,5.25-3.67,12.48-2.4,16.15,2.85,3.67,5.25,2.4,12.48-2.84,16.15Z"/>
    <line class="cls-9" x1="278.7" y1="102.77" x2="263.44" y2="113.46"/>
  </g>
</svg>