<?xml version="1.0" encoding="UTF-8"?>
<svg id="Layer_1" data-name="Layer 1" xmlns="http://www.w3.org/2000/svg" viewBox="0 0 391.95 235.68">
  <defs>
    <style>
      .cls-1, .cls-2 {
        fill: #181d4c;
      }

      .cls-2, .cls-3, .cls-4, .cls-5 {
        stroke: #181d4c;
      }

      .cls-2, .cls-3, .cls-5 {
        stroke-linejoin: round;
      }

      .cls-3 {
        fill: #fff;
      }

      .cls-6, .cls-4, .cls-5 {
        fill: #ebf6ff;
      }

      .cls-4 {
        stroke-miterlimit: 10;
      }
    </style>
  </defs>
  <path class="cls-6" d="M99.21,152.89l-36.48,33.11,58.95,9.29s6.25-5.24,15.2-6.42,39.02,5.57,39.02,5.57l23.48-33.27-64.18-6.42-33.57.77-2.41-2.63Z"/>
  <rect class="cls-1" x="63.54" y="170.27" width="49.75" height="20.06"/>
  <path class="cls-5" d="M190.34,97.6l3.74,7.82s-8.56-4.83-11.05-7.26c.08,4.54,3.63,14.4,7.43,19.68,0,0,1.48,12.58,6.07,18.06,0,0-9.82,16.67-11.2,26.95l-5.96,4.22,3.3,4.04s9.39-.52,12.91.52l6.63-4.08s12.21-21.04,21.57-30.21l-4.07-10.12s-3.46-3.25-5.16-6.42l-19.41-18.93-4.81-4.26Z"/>
  <path class="cls-5" d="M290.7,77.93s-45.2-12.64-59.11-3.16,6.32,83.45,16.44,69.86l5.06,5.06,20.55-1.9s9.17-16.44,3.48-29.4c0,0,33.48,20.56,37.3-7.27,5.69-41.41-23.71-33.19-23.71-33.19Z"/>
  <path class="cls-2" d="M279.91,151.66s22.84-4.44,28.36-8.12c5.52-3.68,11.7-5.36,13.23-2.29l3.97-.41,3.49,18.95s-3.53,0-2.3,5.06,8.74,21-14.71,24.52c0,0-4.29,1.23-5.82-2.91s3.83-7.05,3.83-7.05c0,0-.44-2.6,1.38-3.93,0,0-4.21-5.25-3.75-9.39l-23.85,9.18s-5.21-7.36-3.83-23.6Z"/>
  <path class="cls-2" d="M273.63,147.79l-.38,22.87s5.41,8.62,3.53,16.78c0,0,2.35,2.67,1.49,7.29,0,0-6.04,3.45-12.78,3.21l-.31-2.35-1.02,2.43s-25.4,3.92-30.18,1.25-3.65-9.79,6.43-12.23c17.28-4.18,12.69-37.35,12.69-37.35l20.55-1.9Z"/>
  <path class="cls-5" d="M276.68,150.05s1.37-1.08,3.23,1.61c0,0-2.08,13.8,3.83,23.6,0,0-1.04,5.97-6.59,6.44,0,0-.86-6.3-3.91-11.05l.38-22.87,3.06,2.26Z"/>
  <path class="cls-5" d="M245.12,146.28l-22.26,25.1s2.93,17.2,15.29,15.96c20.07-2.01,14.93-37.66,14.93-37.66l-5.06-5.06s-.78,1.83-2.9,1.66Z"/>
  <path class="cls-5" d="M299.26,77.28s-43.16-44.61-95.53-26.41c0,0-29.07,13.87,8.43,63.47,0,0,4.54,12.77,7.68,15.1,0,0-1.35,6.55,1.79,7.9,0,0-2.69,1.71-1.53,3.77,0,0-15.7,17.25-17.91,26.44l-6.63,4.08s14.8,12.08,11.23,17.86l38.32-43.21s-2.34.57-6.88-7.09-8.89-26.86-8.89-26.86c0,0-3-17.75-2.52-24.71s1.74-13.06,9.19-14.89,13.83-1.45,13.83-1.45c0,0,20.89,1.06,31.33,4.35l10.15,2.32s4.16-1.16,6.77-.68h1.16Z"/>
  <path class="cls-3" d="M195.57,171.63s-13.44-2.38-20.56,1.64c0,0-6.39-.62-2.68,4.23,0,0,9.9-.41,11.34.83s-2.17,7.73-15.37,14.64c0,0,9.33,10.69,38.49-3.47,0,0,1.94-1.99-1.05-6.94-2.99-4.95-10.17-10.92-10.17-10.92Z"/>
  <path class="cls-5" d="M203.73,50.87s-9.25.84-12.05,4.04c0,0,3.2,5.19,2,9.19,0,0,2.92-9.14,10.05-13.23Z"/>
  <path class="cls-5" d="M191.69,54.91s-1.33-2-6.66-.8c0,0-3.22-.43-6.15,1.57,0,0,7.27,8.18,7.69,30.62l10.18,11.62.5-8.29s-3.96-9.29-4.36-16.48.8-9.06.8-9.06c0,0,1.33-3.73-2-9.19Z"/>
  <path class="cls-5" d="M186.57,86.3l9.3,16.28,18.68,18.21-2.38-6.45s-9.92-13.22-14.92-24.71l-.5,8.29-10.18-11.62Z"/>
  <path class="cls-3" d="M178.88,55.68l-3.5-1.27c-3.68,9.16-23.95,32.99-23.95,32.99,0,0,6.28,8.47,7.83,8.74s2.91-2.55,2.91-2.55c0,0,5.28.09,9.92,1.37s7.55-9.5,7.55-9.5l3.15,5.81,13.08,11.31-9.3-16.28s.29-19.62-7.69-30.62Z"/>
  <path class="cls-3" d="M179.36,167.07s-10.17,1.1-11.81,3.93c0,0,3.09.67,3.5,3.24,0,0,1.05-1.38,3.97-.97,0,0,3.99-2,7.65-2.16l-3.3-4.04Z"/>
  <path class="cls-5" d="M296.44,125.45s-14.64,6.09-19.47,14.72c0,0,4.38-12.48.13-21.78,0,0,12.23,6.94,19.34,7.06Z"/>
  <path class="cls-5" d="M192.74,53.41s-8.39-2.99,5.26-16.77c0,0,.43-4.83,8.39-8.1,7.96-3.27,40.23-1.42,70.36,10.38,0,0,4.66,9.1.13,15.16-4.53,6.06-8.03,1.79-8.03,1.79,0,0-11.36-5.55-22.28-7.51-10.93-1.96-20.66-2.31-26.3-1.37-5.64.94-17.59,4.18-17.59,4.18,0,0-4.26.07-7.58,1.56l-1.9.97-.47-.29Z"/>
  <path class="cls-2" d="M175.38,54.41s3.61-9.72-18.95-14.47-27.68,24.03-27.68,24.03c0,0-4.02,13.29,13.05,26.59,0,0-3.05,6.95.61,5.12s11.46-10.98,11.46-10.98l14.51-18.78s5.89-8.46,7-11.5"/>
  <polygon class="cls-2" points="172.55 59.67 172.58 59.79 178.55 88 177.18 91.55 164.49 70.99 172.55 59.67"/>
  <polygon class="cls-5" points="179.64 85.46 194.46 101.21 182.79 91.27 179.64 85.46"/>
  <path class="cls-5" d="M179.68,85.83s-.79,9.66,3.35,12.34,10.76,7.23,10.76,7.23l-3.45-7.79-7.54-6.34-3.11-5.44Z"/>
  <path class="cls-5" d="M195.98,38.71l2.02-2.07c.36-1.57,2.9-8.47,13.98-9.55,11.08-1.08,30.86,2.26,30.86,2.26-.54-8.28-21.72-7.74-36.77-5.48s-10.18,14.95-10.18,14.95c0,0-2.16,1.6-4.95,7.48s2.28,7.41,2.28,7.41l-1.52,1.21c-2.11-1.71-4.08-1.08-4.08-1.08-4.52-11.84,7.54-18.82,7.54-18.82l.82,3.7Z"/>
  <path class="cls-5" d="M200.59,192.54s20.32-3.07,32.93-2.44c0,0,4.78-2.93,5.83-2.99,0,0-3.39,1.1-7.96-1.02s-8.63-11.84-8.53-14.7l-16.06,18.11-6.21,3.05Z"/>
  <path class="cls-5" d="M193.47,130.45s-8.09,6.76-9.83,12.5c0,0-14.55,4.1-15.67,10.04,0,0,4.61-2.05,8.6,4.81s2.79,9.27,2.79,9.27l5.96-4.22s2.26-13.51,11.2-26.95c0,0-2.07-2.62-3.05-5.45Z"/>
  <path class="cls-3" d="M115.4,168.26c.03,2.89-.61,6.29-2.33,10.19l-18.17,2.08-21.5-26.97s6.28-8.46,7.83-8.74c1.55-.28,2.91,2.55,2.91,2.55,0,0,5.29-.09,9.93-1.37,4.64-1.28,7.55,9.51,7.55,9.51l7.04-.56h.11s.39.25.98.76c1.08.93,2.83,2.73,4.1,5.46h0c-.7,1.18-1.23,2.22-1.33,2.84-.32,1.93,2.32,3.85,2.89,4.24Z"/>
  <path class="cls-2" d="M90.35,175.06l-14.51-18.78s-7.81-9.15-11.46-10.98-.61,5.12-.61,5.12c-23.73,16.34-9.31,35.09-9.31,35.09"/>
  <polygon class="cls-2" points="94.9 180.53 94.9 180.53 100.53 152.98 99.16 149.43 86.47 169.99 94.9 180.53"/>
  <path class="cls-3" d="M113.91,179.75s6.58-1.04,8.55,2.41,7.16,5.18,8.39,8.76.12,7.77.12,7.77l-83.4,1.97s-.74-8.76,2.34-10.49,3.82-3.58,3.82-3.58c0,0,6.91-7.53,16.28-5.18,9.38,2.34,25.17,2.96,35.16-.86,9.99-3.82,8.72-.81,8.72-.81Z"/>
  <path class="cls-5" d="M113.24,152.32c5.76-2.86,16.9-6.7,32.17-4.31,23,3.61,22.31,4.97,22.31,4.97,0,0,3.25-1.55,7.16,2.56,3.91,4.1,4.74,9.6,4.19,11.53,0,0-9.77,1.06-11.76,3.93,0,0-13.63-.98-17.37-.82,0,0-20.91-7.43-28.15-.56,0,0-4.85,4.43-2.86,10.06"/>
  <path class="cls-4" d="M130.48,190.36s12.54.61,16.2,1.33,21.63,1.27,21.63,1.27c5.41-2.25,2.45-19.05,2.45-19.05"/>
  <path class="cls-5" d="M121.49,157.68l-5.99,10.65-.11-.07c-.56-.39-3.21-2.31-2.89-4.24.11-.63.63-1.67,1.33-2.84h0c1.71-2.86,4.44-6.46,4.44-6.46,0,0,.44,2.59,3.2,2.95Z"/>
  <path class="cls-5" d="M118.29,154.73s-6.61,1.65-8.54,1c-.59-.52-.98-.77-.98-.77h-.11c-.5-.54-.27-.88-.27-.88,0,0,2.44-1,4.83-1.74,0,0,.01,0,.02,0,2.48-.78,4.89-1.29,4.43-.15-.07.18-.13.35-.17.5-.5,1.79.8,2.05.8,2.05Z"/>
  <path class="cls-5" d="M109.75,155.72c-.09-.03-.17-.06-.23-.11-.4-.24-.68-.46-.85-.66h.11s.39.25.98.76Z"/>
  <path class="cls-5" d="M118.29,154.73s10.57-4.29,25.88-3.03,21.59,3.77,21.59,3.77"/>
  <path class="cls-5" d="M184.32,163.5c.06-.45-3.15-15.62-16.2-10.99,0,0,5.01-.64,8.61,5.4s2.36,9.16,2.36,9.16l5.22-3.57Z"/>
</svg>