<svg xmlns="http://www.w3.org/2000/svg" id="Layer_1" data-name="Layer 1" viewBox="0 0 450 450"><defs><style>.cls-1,.cls-11,.cls-12,.cls-5{stroke-linecap:round;stroke:#181d4c;stroke-width:2px}.cls-1{fill:#fff}.cls-1,.cls-5{stroke-linejoin:round}.cls-11{fill:#ebf6ff}.cls-12{stroke-miterlimit:10}.cls-5{fill:#fefcee}.cls-12{fill:none}</style></defs><circle cx="225" cy="225" r="208.64" style="fill:#ebf6ff"/><path d="M347.57 317.7c0 2.07-.78 4.13-2.36 5.7l-7.81 7.81-11.4-11.4 7.81-7.81a8.057 8.057 0 0 1 11.4 0 8.03 8.03 0 0 1 2.36 5.7" class="cls-5"/><path d="m337.4 331.21-7.98 7.98c-3.15 3.15-8.26 3.15-11.4 0a8.057 8.057 0 0 1 0-11.4l7.98-7.98zm37.32-37.47L89.25 337.17a9.137 9.137 0 0 1-10.43-7.74L55.6 167.11l303.95-43.42 22.85 159.72c.71 4.96-2.72 9.57-7.68 10.33" class="cls-1"/><path d="m359.78 125.26-303.82 44.3-2.53-17.73c-.47-3.27 1.42-6.25 4.21-6.65l293.44-44.74c2.79-.4 5.43 1.93 5.9 5.2z" class="cls-5"/><path d="M72.37 156.73a3.27 3.27 0 0 1-2.77 3.7 3.27 3.27 0 0 1-3.7-2.77 3.27 3.27 0 0 1 2.77-3.7 3.27 3.27 0 0 1 3.7 2.77Zm9.5-1.36a3.27 3.27 0 0 1-2.77 3.7 3.27 3.27 0 0 1-3.7-2.77c-.26-1.79.98-3.44 2.77-3.7a3.27 3.27 0 0 1 3.7 2.77Zm9.51-1.36a3.27 3.27 0 0 1-2.77 3.7 3.27 3.27 0 0 1-3.7-2.77 3.27 3.27 0 0 1 2.77-3.7 3.27 3.27 0 0 1 3.7 2.77Z" style="stroke-linecap:round;stroke:#181d4c;stroke-width:2px;stroke-miterlimit:10;fill:#fefcee"/><path d="m197.91 135.24 111.03 26.83 21.05 34.47-37.37 154.64-138.79-33.54z" class="cls-1"/><path d="m304.97 161.11-7.66 31.73 31.72 7.66m-70.98 33.21 31.72 7.67m-27.88-23.53 39.65 9.58m-90.81 28.42 75.34 18.21m-79.17-2.35 75.34 18.21m-79.17-2.35 75.34 18.21m-83.54-53.76 7.93 1.91m-11.76 13.95 7.93 1.91m-11.76 13.95 7.93 1.92" style="stroke-linecap:round;stroke:#181d4c;stroke-width:2px;fill:#fff"/><path d="m239.22 233.35 1.47-6.09c1.63-6.73-2.51-13.5-9.24-15.12l-15.23-3.68c-6.73-1.63-13.5 2.51-15.12 9.24l-1.47 6.09 39.59 9.57Zm-1.13-36.36c1.42-5.89-2.2-11.81-8.08-13.23-5.89-1.42-11.81 2.2-13.23 8.08-1.42 5.89 2.19 11.81 8.08 13.23 5.88 1.42 11.81-2.19 13.23-8.08Z" style="stroke-linecap:round;stroke:#181d4c;stroke-width:2px;stroke-miterlimit:10;fill:#181d4c"/><path d="m155.01 271.22 10.14 16.84-19.13-4.23z" style="stroke-linecap:round;stroke:#181d4c;stroke-width:2px;fill:#ebf6ff;stroke-linejoin:bevel"/><path d="m88.02 222.16-6.12-4.48c-2.25-1.65-5.43-1.14-7.1 1.13l-3.02 4.12c-1.67 2.27-1.19 5.46 1.07 7.11l6.12 4.48 67.05 49.32 8.98-12.61-66.99-49.06Zm81.13 69-6.12-4.48m-84.11-52.96 8.88-12.13m40.22 48.68 8.89-12.13" class="cls-11"/><path d="M171.16 108.93h-43l-15.17-10.11v10.11h-7.59v103.7h65.76z" style="stroke-linecap:round;stroke:#181d4c;stroke-width:2px;fill:#ebf6ff;stroke-miterlimit:10"/><path d="M158.51 197.45h-40.46m40.46-10.11h-40.46m40.46-10.12h-40.46m40.46-30.35h-40.46m40.46-10.12h-40.46m40.46-10.11h-40.46m7.58 35.41h5.06m5.06 0h5.06m5.06 0h5.06" class="cls-11"/><path d="M267.37 187.34c.44-1.01 1.01-2.23 1.72-3.61" class="cls-12"/><path d="M272.73 177.51c7.2-10.97 21-25.2 44.7-26.76" style="stroke-linecap:round;stroke:#181d4c;stroke-width:2px;stroke-miterlimit:10;stroke-dasharray:7.21 7.21;fill:none"/><path d="M321.04 150.61c1.31-.01 2.64.01 4 .08" class="cls-12"/><path d="M410.01 150.32h-29.29l-5.82 10.79-7.58-24.75-6.69 15.23-30.36-.61" style="stroke-linecap:round;stroke:#181d4c;stroke-width:2px;stroke-linejoin:round;fill:none"/><path d="M274.82 121.58c-5.25 3.67-12.48 2.4-16.15-2.85s-2.4-12.48 2.85-16.15 12.48-2.4 16.15 2.85 2.4 12.48-2.84 16.15Z" style="stroke:#181d4c;stroke-width:2px;fill:#181d4c"/><path d="M275.92 118.88c-5.25 3.67-12.48 2.4-16.15-2.85s-2.4-12.48 2.85-16.15 12.48-2.4 16.15 2.85 2.4 12.48-2.84 16.15Z" style="stroke:#181d4c;stroke-width:2px;fill:#fff"/><path d="m278.7 102.77-15.26 10.69" style="stroke-linecap:round;stroke:#181d4c;stroke-width:2px;fill:none"/></svg>