<svg xmlns="http://www.w3.org/2000/svg" id="Layer_1" data-name="Layer 1" viewBox="0 0 450 450"><defs><style>.cls-3,.cls-5,.cls-7,.cls-8{stroke-linecap:round}.cls-3,.cls-5,.cls-8{stroke-linejoin:round}.cls-10,.cls-3,.cls-5,.cls-7,.cls-8,.cls-9{stroke:#181d4c}.cls-5,.cls-9{fill:none}.cls-3,.cls-7{fill:#fff}.cls-10,.cls-3,.cls-5,.cls-7,.cls-8,.cls-9{stroke-width:2px}.cls-8{fill:#181d4c}.cls-10,.cls-7,.cls-9{stroke-miterlimit:10}.cls-10{fill:#fefcee}</style></defs><circle cx="225" cy="225" r="208.64" style="fill:#ebf6ff"/><path d="m374.01 223.94 5.25 7.02c.81 1.46 1.07 1.96 1.23 2.49 3.47 11.6-5.61 44.74-7.23 47.88-6.59 12.74-36.98 43.88-36.98 43.88l18.52 29.4c1.27 2.02.55 4.69-1.57 5.79h0a48.04 48.04 0 0 1-47.83-2.04c-.05-.1-18.28-54.65-13.78-69.55 4.59-15.18 20.18-63.07 20.33-63.55.17-.54.73-.87 1.29-.75.36.07 8.84 1.89 9.44 9.03.44 5.29.23 23.87.13 30.65 4.67-4.04 16.9-15.36 22.44-27.46.26-.57.92-.82 1.49-.55.32.15.53.43.61.75.13-.07.28-.12.43-.13.03 0 .05.01.08.01-.99-1.58-2.15-3.4-3.42-5.3-2.73-4.05-3.68-7.85-2.84-11.29 1.11-4.55 4.97-6.7 5.13-6.79.03-.02.07-.02.1-.03-.12-.15-.25-.3-.36-.44-5.46-6.58-2.51-16.21.58-19.28.71-.71 1.82-1.08 5.22 2.91l9.05 11.41c.28-8.31.08-20.06 2.3-23.51 2.53-3.94 8.52-6.25 8.86-6.37.21-.08.64-.12 1.02.14.46.32.47.86.48.91.02 14.92.04 29.85.05 44.77Z" class="cls-7"/><path d="M353.76 279.55s-28.24-10.81-33.05 13.51m47.6-36.88-21.22-20.65s-.03.04-.08.12c-4.06 5.72-3.51 13.29 1.24 18.02l13.59 13.56" class="cls-3"/><path d="m346.81 213.39 24.87 28.16" class="cls-5"/><path d="M374.01 223.94 361.3 208" class="cls-7"/><rect width="206.31" height="123.8" x="36.96" y="169.91" class="cls-8" rx="28.47" ry="28.47" transform="rotate(-7.24 140.068 231.752)"/><path d="M105.12 148.37h52.58c9.95 0 18.02 8.08 18.02 18.02v11.82H87.1v-11.82c0-9.95 8.08-18.02 18.02-18.02" style="stroke-width:9px;stroke-linecap:round;stroke-linejoin:round;stroke:#181d4c;fill:none" transform="rotate(-7.24 131.387 163.28)"/><path d="m33.34 218.05 206.02-23.58" style="stroke-linecap:round;stroke-linejoin:round;fill:#fff;stroke:#ebf6ff;stroke-width:4px"/><path d="M259.42 380.37c0 2.87-2.32 5.19-5.19 5.19H129.07c-1.43 0-2.73-.58-3.67-1.52a5.14 5.14 0 0 1-1.52-3.67c0-2.87 2.32-5.19 5.19-5.19h125.16c1.43 0 2.73.58 3.67 1.52.94.93 1.52 2.23 1.52 3.67Zm-11.64-16.85v9.18c0 .85-.09 1.68-.28 2.48H132.02c-.18-.79-.28-1.62-.28-2.48v-9.18c0-6.2 5.02-11.21 11.21-11.21h93.62c6.19 0 11.21 5.02 11.21 11.21Zm106.51-191.18c-1.14 1.54-2.79 2.47-4.55 2.74s-3.61-.14-5.15-1.28l-82.28-60.77-12.87 17.43-46.03-33.99 33.99-46.02 46.03 33.99-12.88 17.43 82.28 60.77a6.933 6.933 0 0 1 1.46 9.7Z" class="cls-10"/><rect width="79.48" height="14.14" x="224.36" y="55.39" class="cls-10" rx="7.07" ry="7.07" transform="rotate(36.45 264.08 62.444)"/><rect width="79.48" height="14.14" x="183.38" y="112.74" class="cls-10" rx="7.07" ry="7.07" transform="rotate(36.45 223.106 119.782)"/><path d="M87.19 91.33h53.2m-53.2 15.96h88.45m-88.45 7.98h88.45m-88.45 7.98h88.45m-88.45 7.98h60.52" style="stroke-linecap:round;stroke:#181d4c;fill:none;stroke-width:2px;stroke-miterlimit:10"/><circle cx="108.34" cy="334.15" r="11.97" class="cls-9"/><circle cx="108.34" cy="334.15" r="7.1" class="cls-9"/><path d="M126.33 333.26s13.06-.28 15.41-2.48-7.75-5.55-6.49-.93c1.26 4.61 21.58 5.69 29.41 4.3s12.6-3.14 17.86-.7" class="cls-5"/><rect width="111.66" height="46.65" x="155.34" y="265.74" class="cls-3" rx="14.54" ry="14.54" transform="rotate(10.93 211.19 289.062)"/><path d="m203.34 284.18 42.02 8.11m-43.35-.8 42.02 8.12" class="cls-5"/><path d="M193.58 297.58s.2-.85.3-1.29a7.94 7.94 0 0 0-5.96-9.53c-1.41-.33-6.33-1.46-7.75-1.79a7.94 7.94 0 0 0-9.53 5.96c-.1.44-.3 1.29-.3 1.29zm-2.29-19.56a5.3 5.3 0 0 1-6.36 3.97 5.3 5.3 0 0 1-3.97-6.36 5.3 5.3 0 0 1 6.36-3.97 5.3 5.3 0 0 1 3.97 6.36" class="cls-8"/><circle cx="137.09" cy="208" r="13.23" style="stroke-linecap:round;stroke-linejoin:round;stroke:#ebf6ff;stroke-width:4px;fill:#181d4c"/></svg>