<?xml version="1.0" encoding="UTF-8"?>
<svg id="Layer_1" data-name="Layer 1" xmlns="http://www.w3.org/2000/svg" viewBox="0 0 450 450">
  <defs>
    <style>
      .cls-1 {
        stroke-width: 9px;
      }

      .cls-1, .cls-2, .cls-3, .cls-4, .cls-5, .cls-6, .cls-7, .cls-8 {
        stroke-linecap: round;
      }

      .cls-1, .cls-2, .cls-3, .cls-4, .cls-5, .cls-8 {
        stroke-linejoin: round;
      }

      .cls-1, .cls-3, .cls-5, .cls-6, .cls-9, .cls-10, .cls-7, .cls-8 {
        stroke: #181d4c;
      }

      .cls-1, .cls-5, .cls-6, .cls-9 {
        fill: none;
      }

      .cls-2, .cls-3, .cls-7 {
        fill: #fff;
      }

      .cls-2, .cls-4 {
        stroke: #ebf6ff;
        stroke-width: 4px;
      }

      .cls-3, .cls-5, .cls-6, .cls-9, .cls-10, .cls-7, .cls-8 {
        stroke-width: 2px;
      }

      .cls-4, .cls-8 {
        fill: #181d4c;
      }

      .cls-6, .cls-9, .cls-10, .cls-7 {
        stroke-miterlimit: 10;
      }

      .cls-10 {
        fill: #fefcee;
      }

      .cls-11 {
        fill: #ebf6ff;
      }
    </style>
  </defs>
  <circle class="cls-11" cx="225" cy="225" r="208.64"/>
  <g>
    <g>
      <path class="cls-7" d="M374.01,223.94c1.75,2.34,3.5,4.68,5.25,7.02.81,1.46,1.07,1.96,1.23,2.49,3.47,11.6-5.61,44.74-7.23,47.88-6.59,12.74-36.98,43.88-36.98,43.88l18.52,29.4c1.27,2.02.55,4.69-1.57,5.79h0c-15.17,7.88-33.39,7.1-47.83-2.04-.05-.1-18.28-54.65-13.78-69.55,4.59-15.18,20.18-63.07,20.33-63.55.17-.54.73-.87,1.29-.75.36.07,8.84,1.89,9.44,9.03.44,5.29.23,23.87.13,30.65,4.67-4.04,16.9-15.36,22.44-27.46.26-.57.92-.82,1.49-.55.32.15.53.43.61.75.13-.07.28-.12.43-.13.03,0,.05.01.08.01-.99-1.58-2.15-3.4-3.42-5.3-2.73-4.05-3.68-7.85-2.84-11.29,1.11-4.55,4.97-6.7,5.13-6.79.03-.02.07-.02.1-.03-.12-.15-.25-.3-.36-.44-5.46-6.58-2.51-16.21.58-19.28.71-.71,1.82-1.08,5.22,2.91l9.05,11.41c.28-8.31.08-20.06,2.3-23.51,2.53-3.94,8.52-6.25,8.86-6.37.21-.08.64-.12,1.02.14.46.32.47.86.48.91.02,14.92.04,29.85.05,44.77Z"/>
      <path class="cls-3" d="M353.76,279.55s-28.24-10.81-33.05,13.51"/>
      <path class="cls-3" d="M368.31,256.18l-21.22-20.65s-.03.04-.08.12c-4.06,5.72-3.51,13.29,1.24,18.02l13.59,13.56"/>
    </g>
    <line class="cls-5" x1="346.81" y1="213.39" x2="371.68" y2="241.55"/>
    <line class="cls-7" x1="374.01" y1="223.94" x2="361.3" y2="208"/>
  </g>
  <g>
    <rect class="cls-8" x="36.96" y="169.91" width="206.31" height="123.8" rx="28.47" ry="28.47" transform="translate(-28.09 19.5) rotate(-7.24)"/>
    <path class="cls-1" d="M105.12,148.37h52.58c9.95,0,18.02,8.08,18.02,18.02v11.82h-88.62v-11.82c0-9.95,8.08-18.02,18.02-18.02Z" transform="translate(-19.53 17.86) rotate(-7.24)"/>
    <line class="cls-2" x1="33.34" y1="218.05" x2="239.36" y2="194.47"/>
  </g>
  <path class="cls-10" d="M259.42,380.37c0,2.87-2.32,5.19-5.19,5.19h-125.16c-1.43,0-2.73-.58-3.67-1.52-.94-.93-1.52-2.23-1.52-3.67,0-2.87,2.32-5.19,5.19-5.19h125.16c1.43,0,2.73.58,3.67,1.52.94.93,1.52,2.23,1.52,3.67Z"/>
  <path class="cls-10" d="M247.78,363.52v9.18c0,.85-.09,1.68-.28,2.48h-115.48c-.18-.79-.28-1.62-.28-2.48v-9.18c0-6.2,5.02-11.21,11.21-11.21h93.62c6.19,0,11.21,5.02,11.21,11.21Z"/>
  <g>
    <path class="cls-10" d="M354.29,172.34c-1.14,1.54-2.79,2.47-4.55,2.74s-3.61-.14-5.15-1.28l-82.28-60.77-12.87,17.43-46.03-33.99,33.99-46.02,46.03,33.99-12.88,17.43,82.28,60.77c3.08,2.28,3.74,6.61,1.46,9.7Z"/>
    <rect class="cls-10" x="224.36" y="55.39" width="79.48" height="14.14" rx="7.07" ry="7.07" transform="translate(88.76 -144.68) rotate(36.45)"/>
    <rect class="cls-10" x="183.38" y="112.74" width="79.48" height="14.14" rx="7.07" ry="7.07" transform="translate(114.81 -109.12) rotate(36.45)"/>
  </g>
  <g>
    <line class="cls-6" x1="87.19" y1="91.33" x2="140.39" y2="91.33"/>
    <line class="cls-6" x1="87.19" y1="107.29" x2="175.64" y2="107.29"/>
    <line class="cls-6" x1="87.19" y1="115.27" x2="175.64" y2="115.27"/>
    <line class="cls-6" x1="87.19" y1="123.25" x2="175.64" y2="123.25"/>
    <line class="cls-6" x1="87.19" y1="131.23" x2="147.71" y2="131.23"/>
    <circle class="cls-9" cx="108.34" cy="334.15" r="11.97"/>
    <circle class="cls-9" cx="108.34" cy="334.15" r="7.1"/>
    <path class="cls-5" d="M126.33,333.26s13.06-.28,15.41-2.48c2.35-2.2-7.75-5.55-6.49-.93,1.26,4.61,21.58,5.69,29.41,4.3,7.83-1.39,12.6-3.14,17.86-.7"/>
  </g>
  <rect class="cls-3" x="155.34" y="265.74" width="111.66" height="46.65" rx="14.54" ry="14.54" transform="translate(58.64 -34.8) rotate(10.93)"/>
  <line class="cls-5" x1="203.34" y1="284.18" x2="245.36" y2="292.29"/>
  <line class="cls-5" x1="202.01" y1="291.49" x2="244.03" y2="299.61"/>
  <g>
    <path class="cls-8" d="M193.58,297.58s.2-.85.3-1.29c.99-4.28-1.68-8.55-5.96-9.53-1.41-.33-6.33-1.46-7.75-1.79-4.28-.99-8.55,1.68-9.53,5.96-.1.44-.3,1.29-.3,1.29l23.24,5.36Z"/>
    <path class="cls-8" d="M191.29,278.02c-.66,2.85-3.5,4.63-6.36,3.97-2.85-.66-4.63-3.5-3.97-6.36.66-2.85,3.5-4.63,6.36-3.97,2.85.66,4.63,3.5,3.97,6.36Z"/>
  </g>
  <circle class="cls-4" cx="137.09" cy="208" r="13.23"/>
</svg>