<?xml version="1.0" encoding="UTF-8"?>
<svg id="Layer_1" data-name="Layer 1" xmlns="http://www.w3.org/2000/svg" viewBox="0 0 450 450">
  <defs>
    <style>
      .cls-1 {
        stroke: #ebf6ff;
      }

      .cls-1, .cls-2, .cls-3 {
        stroke-linejoin: round;
      }

      .cls-1, .cls-2, .cls-4, .cls-5, .cls-6, .cls-7 {
        stroke-width: 2px;
      }

      .cls-1, .cls-2, .cls-4, .cls-7 {
        stroke-linecap: round;
      }

      .cls-1, .cls-8, .cls-3 {
        fill: #181d4c;
      }

      .cls-2, .cls-3, .cls-4, .cls-5, .cls-6, .cls-7 {
        stroke: #181d4c;
      }

      .cls-2, .cls-4, .cls-5 {
        fill: none;
      }

      .cls-4, .cls-5, .cls-6, .cls-7 {
        stroke-miterlimit: 10;
      }

      .cls-6 {
        fill: #fefcee;
      }

      .cls-9 {
        fill: #ebf6ff;
      }

      .cls-7 {
        fill: #fff;
      }
    </style>
  </defs>
  <circle class="cls-9" cx="225" cy="225" r="208.64"/>
  <g>
    <path class="cls-3" d="M356.57,221.01s25.11,7.77,33.97-50.03c8.86-57.8-64.74-66.71-64.74-66.71,0,0-34.23-8.32-65.48,36.79,0,0-18.03-6.74-12.88,2.27,5.15,9.01,29.41,27.48,29.41,27.48l25.43,17.48,24.17,16.62s22.26,13.71,30.12,16.11"/>
    <polygon class="cls-3" points="265.98 246.63 294.38 182.86 310.28 193.78 272.68 253.5 265.98 246.63"/>
    <path class="cls-1" d="M265.76,142.96s56.47,59.3,104.05,61.91"/>
  </g>
  <g>
    <path class="cls-8" d="M126.57,114.28c0,4.26-1.53,7.61-4.31,11.07l-12.38,15.67h-6.19l11.87-14.82c-1.08.34-2.39.57-3.8.57-6.98,0-12.09-4.66-12.09-12.49,0-8.35,4.94-13.34,13.46-13.34s13.46,5,13.46,13.34ZM121.24,114.23c0-5.68-3.18-9.25-8.12-9.25s-8.06,3.58-8.06,9.25,3.12,9.14,8.06,9.14,8.12-3.52,8.12-9.14Z"/>
    <path class="cls-8" d="M148.83,105.66h-17.6v-4.37h24.41l-14.02,39.74h-5.56l12.77-35.37Z"/>
  </g>
  <g>
    <path class="cls-8" d="M341.77,267.24c0,7.09-4.2,11.34-11.43,11.34s-11.43-4.25-11.43-11.34c0-3.62,1.3-6.46,3.67-9.41l10.52-13.32h5.26l-10.08,12.59c.92-.29,1.98-.48,3.18-.48,5.98,0,10.32,3.96,10.32,10.61ZM337.19,267.29c0-4.78-2.65-7.77-6.85-7.77s-6.9,2.99-6.9,7.77,2.7,7.86,6.9,7.86,6.85-3.04,6.85-7.86Z"/>
    <path class="cls-8" d="M369.51,271.78h-3.91v6.51h-4.29v-6.51h-16.26v-1.74l11.39-25.52h4.54l-10.42,23.78h10.76v-8.73h4.29v8.73h3.91v3.47Z"/>
  </g>
  <g>
    <path class="cls-8" d="M241.86,376.52c0,3.82-2.91,6.21-7.47,6.21s-7.47-2.39-7.47-6.21c0-2.91,1.62-5.02,4.28-5.9-1.96-.8-3.12-2.39-3.12-4.41,0-3.15,2.48-5.26,6.3-5.26s6.27,2.11,6.27,5.26c0,2.02-1.16,3.61-3.09,4.41,2.66.89,4.28,3,4.28,5.9ZM238.92,376.31c0-2.78-1.77-4.59-4.53-4.59s-4.53,1.81-4.53,4.59,1.77,4.41,4.53,4.41,4.53-1.71,4.53-4.41ZM230.78,366.43c0,1.96,1.41,3.24,3.61,3.24s3.61-1.28,3.61-3.24c0-2.14-1.41-3.55-3.61-3.55s-3.61,1.41-3.61,3.55Z"/>
    <path class="cls-8" d="M258.72,380.32v2.23h-13.58l7.59-9.97c1.99-2.51,2.69-4.28,2.69-5.87,0-2.11-1.28-3.52-3.76-3.52-3,0-4.19,2.39-3.98,5.6h-2.78c-.37-5.23,2.42-7.83,6.82-7.83s6.58,2.2,6.58,5.84c0,2.11-.95,4.28-2.78,6.67l-5.51,6.85h8.72Z"/>
  </g>
  <circle class="cls-5" cx="318.9" cy="336.85" r="41.91"/>
  <circle class="cls-6" cx="318.9" cy="336.85" r="24.86"/>
  <g>
    <circle class="cls-5" cx="203.65" cy="87.74" r="19.16"/>
    <circle class="cls-5" cx="203.65" cy="87.74" r="11.36"/>
    <line class="cls-2" x1="203.65" y1="56.22" x2="203.65" y2="80.94"/>
    <line class="cls-2" x1="203.65" y1="96.26" x2="203.65" y2="120.98"/>
    <line class="cls-2" x1="174.28" y1="87.74" x2="199" y2="87.74"/>
    <line class="cls-2" x1="208.29" y1="87.74" x2="233.01" y2="87.74"/>
  </g>
  <g>
    <rect class="cls-7" x="97.92" y="148.46" width="156" height="199.65" transform="translate(-35.82 29.75) rotate(-8.78)"/>
    <line class="cls-4" x1="99.66" y1="188.85" x2="230.77" y2="168.32"/>
    <line class="cls-4" x1="101.92" y1="203.3" x2="233.03" y2="182.77"/>
    <line class="cls-4" x1="104.13" y1="217.76" x2="235.23" y2="197.23"/>
    <line class="cls-4" x1="106.47" y1="232.2" x2="237.57" y2="211.67"/>
    <line class="cls-4" x1="108.73" y1="246.65" x2="239.83" y2="226.12"/>
    <line class="cls-4" x1="110.93" y1="261.11" x2="242.04" y2="240.58"/>
    <line class="cls-4" x1="113.04" y1="275.59" x2="244.14" y2="255.06"/>
    <line class="cls-4" x1="115.3" y1="290.04" x2="246.41" y2="269.51"/>
    <line class="cls-4" x1="117.5" y1="304.5" x2="248.61" y2="283.97"/>
    <line class="cls-4" x1="121.49" y1="330.32" x2="203.15" y2="317.54"/>
    <path class="cls-4" d="M158.79,322.69c1.74-8.9,3.42-15.87,4.42-15.76,1.78.2-1.19,22.65,3.72,24.1,5.25,1.55,16.07-21.85,18.57-20.69,1.9.88-4.05,14.55-1.48,15.99,2.45,1.38,12.57-8.39,10.85-11.87-1.35-2.72-10.55-2.8-44.61,8.51"/>
  </g>
  <g>
    <rect class="cls-7" x="81.45" y="165.43" width="156" height="199.65" transform="translate(-38.6 27.43) rotate(-8.78)"/>
    <line class="cls-4" x1="83.19" y1="205.81" x2="214.3" y2="185.29"/>
    <line class="cls-4" x1="85.45" y1="220.26" x2="216.56" y2="199.74"/>
    <line class="cls-4" x1="87.65" y1="234.72" x2="218.76" y2="214.2"/>
    <line class="cls-4" x1="89.99" y1="249.16" x2="221.1" y2="228.64"/>
    <line class="cls-4" x1="92.26" y1="263.61" x2="223.36" y2="243.09"/>
    <line class="cls-4" x1="94.46" y1="278.07" x2="225.56" y2="257.55"/>
    <line class="cls-4" x1="96.57" y1="292.55" x2="227.67" y2="272.02"/>
    <line class="cls-4" x1="98.83" y1="307" x2="229.93" y2="286.47"/>
    <line class="cls-4" x1="101.03" y1="321.46" x2="232.14" y2="300.93"/>
    <line class="cls-4" x1="105.02" y1="347.29" x2="186.68" y2="334.5"/>
    <path class="cls-4" d="M142.32,339.65c1.74-8.9,3.42-15.87,4.42-15.76,1.78.2-1.19,22.65,3.72,24.1,5.25,1.55,16.07-21.85,18.57-20.69,1.9.88-4.05,14.55-1.48,15.99,2.45,1.38,12.57-8.39,10.85-11.87-1.35-2.72-10.55-2.8-44.61,8.51"/>
  </g>
</svg>