<svg xmlns="http://www.w3.org/2000/svg" id="Layer_1" data-name="Layer 1" viewBox="0 0 450 450"><defs><style>.cls-3{stroke-linejoin:round}.cls-4,.cls-5,.cls-7{stroke-width:2px}.cls-4,.cls-7{stroke-linecap:round}.cls-3{fill:#181d4c}.cls-3,.cls-4,.cls-5,.cls-7{stroke:#181d4c}.cls-4,.cls-5{fill:none}.cls-4,.cls-5,.cls-7{stroke-miterlimit:10}.cls-7{fill:#fff}</style></defs><circle cx="225" cy="225" r="208.64" style="fill:#ebf6ff"/><path d="M356.57 221.01s25.11 7.77 33.97-50.03-64.74-66.71-64.74-66.71-34.23-8.32-65.48 36.79c0 0-18.03-6.74-12.88 2.27s29.41 27.48 29.41 27.48l25.43 17.48 24.17 16.62s22.26 13.71 30.12 16.11" class="cls-3"/><path d="m265.98 246.63 28.4-63.77 15.9 10.92-37.6 59.72z" class="cls-3"/><path d="M265.76 142.96s56.47 59.3 104.05 61.91" style="stroke:#ebf6ff;stroke-linejoin:round;stroke-width:2px;stroke-linecap:round;fill:#181d4c"/><path d="M126.57 114.28c0 4.26-1.53 7.61-4.31 11.07l-12.38 15.67h-6.19l11.87-14.82c-1.08.34-2.39.57-3.8.57-6.98 0-12.09-4.66-12.09-12.49 0-8.35 4.94-13.34 13.46-13.34s13.46 5 13.46 13.34Zm-5.33-.05c0-5.68-3.18-9.25-8.12-9.25s-8.06 3.58-8.06 9.25 3.12 9.14 8.06 9.14 8.12-3.52 8.12-9.14m27.59-8.57h-17.6v-4.37h24.41l-14.02 39.74h-5.56zm192.94 161.58c0 7.09-4.2 11.34-11.43 11.34s-11.43-4.25-11.43-11.34c0-3.62 1.3-6.46 3.67-9.41l10.52-13.32h5.26l-10.08 12.59c.92-.29 1.98-.48 3.18-.48 5.98 0 10.32 3.96 10.32 10.61Zm-4.58.05c0-4.78-2.65-7.77-6.85-7.77s-6.9 2.99-6.9 7.77 2.7 7.86 6.9 7.86 6.85-3.04 6.85-7.86m32.32 4.49h-3.91v6.51h-4.29v-6.51h-16.26v-1.74l11.39-25.52h4.54l-10.42 23.78h10.76v-8.73h4.29v8.73h3.91v3.47ZM241.86 376.52c0 3.82-2.91 6.21-7.47 6.21s-7.47-2.39-7.47-6.21c0-2.91 1.62-5.02 4.28-5.9-1.96-.8-3.12-2.39-3.12-4.41 0-3.15 2.48-5.26 6.3-5.26s6.27 2.11 6.27 5.26c0 2.02-1.16 3.61-3.09 4.41 2.66.89 4.28 3 4.28 5.9Zm-2.94-.21c0-2.78-1.77-4.59-4.53-4.59s-4.53 1.81-4.53 4.59 1.77 4.41 4.53 4.41 4.53-1.71 4.53-4.41m-8.14-9.88c0 1.96 1.41 3.24 3.61 3.24s3.61-1.28 3.61-3.24c0-2.14-1.41-3.55-3.61-3.55s-3.61 1.41-3.61 3.55m27.94 13.89v2.23h-13.58l7.59-9.97c1.99-2.51 2.69-4.28 2.69-5.87 0-2.11-1.28-3.52-3.76-3.52-3 0-4.19 2.39-3.98 5.6h-2.78c-.37-5.23 2.42-7.83 6.82-7.83s6.58 2.2 6.58 5.84c0 2.11-.95 4.28-2.78 6.67l-5.51 6.85h8.72Z" style="fill:#181d4c"/><circle cx="318.9" cy="336.85" r="41.91" class="cls-5"/><circle cx="318.9" cy="336.85" r="24.86" style="stroke-width:2px;stroke:#181d4c;stroke-miterlimit:10;fill:#fefcee"/><circle cx="203.65" cy="87.74" r="19.16" class="cls-5"/><circle cx="203.65" cy="87.74" r="11.36" class="cls-5"/><path d="M203.65 56.22v24.72m0 15.32v24.72m-29.37-33.24H199m9.29 0h24.72" style="stroke-linejoin:round;stroke-width:2px;stroke-linecap:round;stroke:#181d4c;fill:none"/><path d="m83.614 161.524 154.172-23.812 30.474 197.31-154.172 23.812z" class="cls-7"/><path d="m99.66 188.85 131.11-20.53M101.92 203.3l131.11-20.53m-128.9 34.99 131.1-20.53M106.47 232.2l131.1-20.53m-128.84 34.98 131.1-20.53m-128.9 34.99 131.11-20.53m-129 35.01 131.1-20.53M115.3 290.04l131.11-20.53M117.5 304.5l131.11-20.53m-127.12 46.35 81.66-12.78m-44.36 5.15c1.74-8.9 3.42-15.87 4.42-15.76 1.78.2-1.19 22.65 3.72 24.1 5.25 1.55 16.07-21.85 18.57-20.69 1.9.88-4.05 14.55-1.48 15.99 2.45 1.38 12.57-8.39 10.85-11.87-1.35-2.72-10.55-2.8-44.61 8.51" class="cls-4"/><path d="m67.147 178.489 154.172-23.812 30.475 197.31L97.622 375.8z" class="cls-7"/><path d="m83.19 205.81 131.11-20.52M85.45 220.26l131.11-20.52M87.65 234.72l131.11-20.52M89.99 249.16l131.11-20.52M92.26 263.61l131.1-20.52m-128.9 34.98 131.1-20.52m-128.99 35 131.1-20.53M98.83 307l131.1-20.53m-128.9 34.99 131.11-20.53m-127.12 46.36 81.66-12.79m-44.36 5.15c1.74-8.9 3.42-15.87 4.42-15.76 1.78.2-1.19 22.65 3.72 24.1 5.25 1.55 16.07-21.85 18.57-20.69 1.9.88-4.05 14.55-1.48 15.99 2.45 1.38 12.57-8.39 10.85-11.87-1.35-2.72-10.55-2.8-44.61 8.51" class="cls-4"/></svg>