<?xml version="1.0" encoding="UTF-8"?>
<svg id="Layer_1" data-name="Layer 1" xmlns="http://www.w3.org/2000/svg" viewBox="0 0 450 450">
  <defs>
    <style>
      .cls-1 {
        fill: #fff;
      }

      .cls-1, .cls-2 {
        stroke: #181d4c;
        stroke-miterlimit: 10;
        stroke-width: 2px;
      }

      .cls-2 {
        fill: #fefcee;
      }

      .cls-3 {
        fill: #ebf6ff;
      }
    </style>
  </defs>
  <circle class="cls-3" cx="225" cy="225" r="208.64"/>
  <g>
    <path class="cls-2" d="M184.09,138.55l-15.62,14.1c-3.24,2.93-8.25,2.67-11.18-.57s-2.67-8.25.57-11.18l15.62-14.1c3.24-2.93,8.25-2.67,11.18.57s2.67,8.25-.57,11.18ZM225.53,129.46c-2.93-3.24-7.93-3.5-11.18-.57l-15.62,14.1c-3.24,2.93-3.5,7.93-.57,11.18,2.93,3.24,7.93,3.5,11.18.57l15.62-14.1c3.24-2.93,3.5-7.93.57-11.18ZM327.79,274.57c-2.93-3.24-7.93-3.5-11.18-.57l-15.62,14.1c-3.24,2.93-3.5,7.93-.57,11.18,2.93,3.24,7.93,3.5,11.18.57l15.62-14.1c3.24-2.93,3.5-7.93.57-11.18ZM329.88,233.71c-2.93-3.24-7.93-3.5-11.18-.57l-15.62,14.1c-3.24,2.93-3.5,7.93-.57,11.18s7.93,3.5,11.18.57l15.62-14.1c3.24-2.93,3.5-7.93.57-11.18Z"/>
    <path class="cls-1" d="M109.06,276.53l41.37,16.68c3.18,1.28,5.47,3.91,6.46,6.94l12.57,38.97c1.85,5.75-1.3,11.91-7.05,13.76-4.69,1.51-9.65-.31-12.33-4.16l-1.9-2.74-24.41-35.15,13.65,14.66-36.71-28.22-2.43-1.87c-4.8-3.69-5.7-10.58-2.01-15.38,3.07-3.99,8.35-5.28,12.8-3.49h0ZM276.58,145.13l-155.16-7.94c-1.25-.06-2.48.37-3.41,1.21l-16.44,14.84c-3.74,3.38-.32,9.49,4.52,8.05l16.27-4.82c.76-.23,1.57-.26,2.35-.09l112.56,29.52M274.93,216.29l17.88,114.98c.09.79-.02,1.59-.33,2.33l-6.46,15.69c-1.92,4.66,3.81,8.7,7.55,5.32l16.44-14.84c.93-.84,1.49-2.02,1.56-3.27l7.94-155.16"/>
    <path class="cls-1" d="M354.8,115.11l.25,1.54c.1.52.16,1.11.25,1.83l.15,1.16.12,1.27c.2,1.83.3,3.93.4,6.38.08,2.64.04,5.28-.1,7.91-.15,2.84-.46,5.83-.89,8.97-.43,3.15-.84,6.61-1.81,9.73-.48,1.56-1.1,3.04-1.87,4.41-.77,1.37-1.7,2.63-2.73,3.84-2.04,2.44-4.18,5.01-6.45,7.65-4.53,5.3-9.51,10.94-14.95,16.73-5.44,5.79-11.34,11.72-17.61,17.65-3.13,2.97-6.34,5.97-9.63,8.96-3.28,3-6.59,6.04-9.96,9.07-6.74,6.07-13.55,12.28-20.22,18.63l-10.01,9.5c-3.34,3.15-6.62,6.33-9.96,9.4-6.65,6.16-13.36,12.05-20.19,17.37-6.59,5.15-13.44,9.97-20.51,14.45-3.3,2.1-6.64,4.14-10.02,6.11-3.26,1.94-6.52,3.7-9.8,5.23-3.28,1.52-6.53,2.86-9.74,4-3.11,1.1-6.26,2.06-9.46,2.86-6.15,1.56-11.93,2.46-16.97,2.9-5.05.42-9.29.45-12.31.32l-2.02-.11-1.51-.12-1.27-.14c-1.17-.13-2.05-1.11-2.07-2.29v-1.28s.02-1.51.02-1.51l.1-2.02c.18-3.02.64-7.24,1.58-12.21.95-4.96,2.43-10.62,4.61-16.58,1.13-3.1,2.4-6.14,3.81-9.12,1.46-3.08,3.13-6.17,4.98-9.28,1.86-3.1,3.94-6.16,6.2-9.21,2.24-3.08,4.61-6.2,7.1-9.35,5.17-6.57,10.67-12.89,16.46-18.92,5.99-6.25,12.53-12.33,19.34-18.32,3.39-3.01,6.89-5.96,10.36-8.95l10.47-8.99c7-5.99,13.87-12.13,20.6-18.21,3.36-3.04,6.72-6.03,10.04-8.98,3.31-2.96,6.62-5.85,9.9-8.66,6.55-5.64,13.04-10.9,19.36-15.72,6.31-4.82,12.44-9.2,18.17-13.17,2.86-1.99,5.64-3.85,8.27-5.63,1.31-.9,2.66-1.69,4.1-2.32,1.44-.63,2.97-1.09,4.57-1.41,3.2-.64,6.69-.7,9.87-.8,3.17-.11,6.17-.11,9.02.03,2.64.12,5.27.36,7.88.7,2.43.36,4.51.67,6.31,1.05l1.25.25,1.14.26c.71.17,1.28.29,1.79.44l1.51.41c1.08.29,1.88,1.19,2.07,2.29h0Z"/>
    <path class="cls-2" d="M180.36,270.5l.12.51c.09.42.14.85.17,1.28.03.27.02.53.01.81v.45s-.06.44-.06.44c-.09.59-.25,1.2-.55,1.77-.29.57-.74,1.05-1.18,1.63l-1.46,1.85-3.51,4.43-4.19,5.19-4.74,5.72c-1.7,2.02-3.42,4.03-5.16,6.02-1.78,2.03-3.59,4.08-5.43,6.1-1.84,2.02-3.67,4.05-5.51,6.01l-5.39,5.76-2.59,2.74c-.85.89-1.65,1.8-2.53,2.57-.88.77-1.84,1.4-2.93,1.84-1.08.45-2.22.76-3.33,1.06-2.07.54-4.17.99-6.28,1.35-.97.16-1.91.27-2.77.4-.86.12-1.7.17-2.43.25-1.18.1-2.37.16-3.56.18h-1.33s.12-1.34.12-1.34c.14-1.18.32-2.35.54-3.52.15-.72.29-1.55.5-2.39.21-.84.42-1.77.68-2.71.57-2.07,1.23-4.11,1.98-6.11.41-1.07.84-2.18,1.4-3.2.55-1.03,1.27-1.93,2.13-2.72.86-.8,1.85-1.49,2.81-2.25l2.99-2.29,6.28-4.78c2.14-1.63,4.34-3.24,6.54-4.87,2.19-1.63,4.42-3.22,6.62-4.78,2.2-1.56,4.38-3.07,6.51-4.52l6.17-4.14,5.59-3.64,4.76-3.04,1.99-1.26c.62-.38,1.15-.78,1.75-1.01.59-.23,1.22-.33,1.81-.36h.44s.45.03.45.03c.28.02.54.04.81.1.42.07.84.17,1.25.3l.49.17h0Z"/>
    <path class="cls-2" d="M305.27,119.04h6.55c11.52,0,20.88,9.36,20.88,20.88v9.02c0,12.54-10.18,22.73-22.73,22.73h-4.7v-52.63h0Z" transform="translate(-15.2 251.2) rotate(-42.07)"/>
  </g>
</svg>