<svg xmlns="http://www.w3.org/2000/svg" id="Layer_1" data-name="Layer 1" viewBox="0 0 450 450"><defs><style>.cls-4,.cls-6{stroke:#181d4c;stroke-width:2px;stroke-miterlimit:10}.cls-4{fill:#ebf6ff}.cls-6{fill:#fefcee}</style></defs><circle cx="225" cy="225" r="208.64" style="fill:#ebf6ff"/><path d="m231.64 104.58-17.75-6.91 1.24-3.18c2.03-4.91-.63-10.98-5.63-12.8l-6.37-2.48c-4.92-1.92-10.89.71-12.8 5.63L189 88.26l-7.03-2.74c.78-2.2 2.82-5.35.02-7.04l-14.35-8.66c-3.33-2.11-8.08-.36-9.41 3.34l-5.98 15.38c-1.52 3.62.79 8.12 4.68 8.82l16.43 3.32c3.2.65 3.83-3.04 4.75-5.2l7.03 2.74-3.65 9.39c-20.11-6.14-41.93 4.18-49.68 24.09l-3.84 9.88 94.81 36.89 3.84-9.88c7.75-19.91-1.36-42.26-20.33-51.33l2.66-6.84 17.72 6.9a5.15 5.15 0 0 0 6.66-2.89l1.24-3.1a5.16 5.16 0 0 0-2.92-6.73ZM75.918 275.712l48.215-123.92 94.806 36.887-48.215 123.92zM66.4 301.66c-6.77 17.39 1.85 36.98 19.24 43.75l31.82 12.38c17.37 6.76 36.99-1.87 43.75-19.24l6.19-15.91-94.81-36.89z" style="stroke-linecap:round;stroke-linejoin:round;stroke:#181d4c;stroke-width:2px;fill:#181d4c"/><path d="M229.59 110.12c2.49-2.55 41.83-29.27 75.95-18.03 33.1 10.9 50.71 48.51 42.68 86.17-14.48 67.97-103.29 91.87-141.85 124.05-20.25 16.9-22.65 47.57-4.13 66.35 15.61 15.83 46.66 23.63 107.35-21.41" style="fill:none;stroke-width:9px;stroke-linecap:round;stroke-linejoin:round;stroke:#181d4c"/><circle cx="317.2" cy="340.05" r="13.94" style="fill:#181d4c"/><path d="m323.82 316.64 3.69 4.34a8.14 8.14 0 0 0-.79 5.27c.82 4.47 5.1 7.43 9.57 6.61.37-.07.74-.16 1.08-.28l3.69 4.34a4.996 4.996 0 0 1-.58 7.05l-1.88 1.59a4.986 4.986 0 0 1-7.05-.57l-17.22-20.28c-1.8-2.1-1.54-5.27.57-7.05l1.89-1.59c2.1-1.8 5.26-1.53 7.05.57Z" style="stroke-linecap:round;stroke-linejoin:round;stroke:#ebf6ff;stroke-width:2px;fill:#181d4c"/><path d="M253.05 214.02c-.62.09-1.25.19-1.87.28.62-.11 1.25-.2 1.87-.28Z" style="stroke:#181d4c;stroke-width:2px;fill:#181d4c;stroke-miterlimit:10"/><path d="M249.2 315.72c1.87-.05 11.67-.81 16.6-1.21h.02c.98-.07 1.96-.21 2.92-.41h.02c4.84-.99 14.31-2.97 16.13-3.44m0 0c13.34-3.38 25.35-8.34 33.4-14.63 6.61-5.16 14.25-11.4 18.68-18.54 6.96-11.25 8.85-26.23 7.81-39.28-.81-10.15-2.57-15.69-11.64-21.02-1.06-.62-3.8-1.58-4.38-2.14-.94-.92-2.44-4.36-3.62-5.83-11-13.83-40.52-16.07-56.99-15.43-4.91.19-10.96.74-17.55 1.72l-.35.06c-6.61.88-12.57 2.04-17.34 3.22-16 3.98-43.73 14.35-50.44 30.69-.72 1.74-1.2 5.45-1.85 6.61-.4.71-2.78 2.39-3.62 3.27-7.22 7.65-7.37 13.45-5.32 23.43 2.63 12.82 8.6 26.68 18.42 35.55 6.23 5.62 15.33 9.49 23.1 12.6 9.48 3.8 22.41 5.23 36.15 4.77" style="stroke:#ebf6ff;stroke-width:2px;fill:#181d4c;stroke-miterlimit:10"/><path d="M324.94 279.31c-7.44 7.35-24.57 16.37-34.66 10.51-12.23-7.1-13.96-33.92-28.66-35.26-.31-.02-.62-.05-.93-.05-.66-.02-1.28-.01-1.9.05-.59.12-1.21.27-1.84.48-.29.09-.58.19-.88.31-13.75 5.38-7.94 31.62-17.71 41.84-8.06 8.45-27.01 4.52-36.21-.45-13.33-7.22-22.68-28.1-23.22-42.79-.47-12.49 21.37-20.79 31.04-24.1 13.29-4.54 27.58-7.92 41.97-10.06h.08c.29-.06.59-.11.88-.14.6-.09 1.21-.18 1.81-.26.29-.05.59-.08.88-.12h.08c14.43-1.96 29.09-2.69 43.12-2.03 10.21.48 33.5 2.39 36.53 14.5 3.56 14.27.39 36.92-10.4 47.56Z" style="stroke:#181d4c;stroke-width:2px;stroke-miterlimit:10;fill:#fff"/><circle cx="367.41" cy="277.28" r="14.73" class="cls-4"/><circle cx="360.61" cy="232.73" r="10.45" class="cls-4"/><circle cx="373.65" cy="190.54" r="8.5" class="cls-4"/><rect width="119.61" height="15.23" x="113.04" y="158.63" class="cls-6" rx="4.22" ry="4.22" transform="rotate(20.99 172.834 166.221)"/><rect width="119.61" height="15.23" x="61.62" y="291.19" class="cls-6" rx="4.22" ry="4.22" transform="rotate(20.99 121.427 298.774)"/></svg>