<?xml version="1.0" encoding="UTF-8"?>
<svg id="Layer_1" data-name="Layer 1" xmlns="http://www.w3.org/2000/svg" viewBox="0 0 450 450">
  <defs>
    <style>
      .cls-1 {
        fill: none;
        stroke-width: 9px;
      }

      .cls-1, .cls-2, .cls-3 {
        stroke-linecap: round;
        stroke-linejoin: round;
      }

      .cls-1, .cls-4, .cls-5, .cls-6, .cls-7, .cls-3 {
        stroke: #181d4c;
      }

      .cls-8, .cls-2 {
        stroke: #ebf6ff;
      }

      .cls-8, .cls-2, .cls-4, .cls-5, .cls-6, .cls-7, .cls-3 {
        stroke-width: 2px;
      }

      .cls-8, .cls-2, .cls-9, .cls-7, .cls-3 {
        fill: #181d4c;
      }

      .cls-8, .cls-4, .cls-5, .cls-6, .cls-7 {
        stroke-miterlimit: 10;
      }

      .cls-4, .cls-10 {
        fill: #ebf6ff;
      }

      .cls-5 {
        fill: #fff;
      }

      .cls-6 {
        fill: #fefcee;
      }
    </style>
  </defs>
  <circle class="cls-10" cx="225" cy="225" r="208.64"/>
  <g>
    <path class="cls-3" d="M231.64,104.58l-17.75-6.91,1.24-3.18c2.03-4.91-.63-10.98-5.63-12.8,0,0-6.37-2.48-6.37-2.48-4.92-1.92-10.89.71-12.8,5.63l-1.33,3.42-7.03-2.74c.78-2.2,2.82-5.35.02-7.04,0,0-14.35-8.66-14.35-8.66-3.33-2.11-8.08-.36-9.41,3.34,0,0-5.98,15.38-5.98,15.38-1.52,3.62.79,8.12,4.68,8.82,0,0,16.43,3.32,16.43,3.32,3.2.65,3.83-3.04,4.75-5.2l7.03,2.74-3.65,9.39c-20.11-6.14-41.93,4.18-49.68,24.09l-3.84,9.88,94.81,36.89,3.84-9.88c7.75-19.91-1.36-42.26-20.33-51.33l2.66-6.84,17.72,6.9c2.64,1.03,5.61-.26,6.66-2.89l1.24-3.1c1.07-2.66-.24-5.69-2.92-6.73Z"/>
    <rect class="cls-3" x="80.94" y="181.34" width="132.97" height="101.73" transform="translate(-122.43 285.39) rotate(-68.74)"/>
    <path class="cls-3" d="M66.4,301.66c-6.77,17.39,1.85,36.98,19.24,43.75l31.82,12.38c17.37,6.76,36.99-1.87,43.75-19.24l6.19-15.91-94.81-36.89-6.19,15.91Z"/>
  </g>
  <g>
    <path class="cls-1" d="M229.59,110.12c2.49-2.55,41.83-29.27,75.95-18.03,33.1,10.9,50.71,48.51,42.68,86.17-14.48,67.97-103.29,91.87-141.85,124.05-20.25,16.9-22.65,47.57-4.13,66.35,15.61,15.83,46.66,23.63,107.35-21.41"/>
    <circle class="cls-9" cx="317.2" cy="340.05" r="13.94"/>
    <path class="cls-2" d="M323.82,316.64l3.69,4.34c-.81,1.56-1.14,3.39-.79,5.27.82,4.47,5.1,7.43,9.57,6.61.37-.07.74-.16,1.08-.28l3.69,4.34c1.79,2.1,1.53,5.27-.58,7.05l-1.88,1.59c-2.1,1.8-5.27,1.54-7.05-.57l-17.22-20.28c-1.8-2.1-1.54-5.27.57-7.05l1.89-1.59c2.1-1.8,5.26-1.53,7.05.57Z"/>
  </g>
  <g>
    <path class="cls-7" d="M253.05,214.02c-.62.09-1.25.19-1.87.28h0c.62-.11,1.25-.2,1.87-.28Z"/>
    <path class="cls-8" d="M249.2,315.72c1.87-.05,11.67-.81,16.6-1.21h.02c.98-.07,1.96-.21,2.92-.41h.02c4.84-.99,14.31-2.97,16.13-3.44M284.89,310.66c13.34-3.38,25.35-8.34,33.4-14.63,6.61-5.16,14.25-11.4,18.68-18.54,6.96-11.25,8.85-26.23,7.81-39.28-.81-10.15-2.57-15.69-11.64-21.02-1.06-.62-3.8-1.58-4.38-2.14-.94-.92-2.44-4.36-3.62-5.83-11-13.83-40.52-16.07-56.99-15.43-4.91.19-10.96.74-17.55,1.72l-.35.06c-6.61.88-12.57,2.04-17.34,3.22-16,3.98-43.73,14.35-50.44,30.69-.72,1.74-1.2,5.45-1.85,6.61-.4.71-2.78,2.39-3.62,3.27-7.22,7.65-7.37,13.45-5.32,23.43,2.63,12.82,8.6,26.68,18.42,35.55,6.23,5.62,15.33,9.49,23.1,12.6,9.48,3.8,22.41,5.23,36.15,4.77"/>
    <path class="cls-5" d="M324.94,279.31c-7.44,7.35-24.57,16.37-34.66,10.51-12.23-7.1-13.96-33.92-28.66-35.26-.31-.02-.62-.05-.93-.05-.66-.02-1.28-.01-1.9.05-.59.12-1.21.27-1.84.48-.29.09-.58.19-.88.31-13.75,5.38-7.94,31.62-17.71,41.84-8.06,8.45-27.01,4.52-36.21-.45-13.33-7.22-22.68-28.1-23.22-42.79-.47-12.49,21.37-20.79,31.04-24.1,13.29-4.54,27.58-7.92,41.97-10.06h.08c.29-.06.59-.11.88-.14.6-.09,1.21-.18,1.81-.26.29-.05.59-.08.88-.12h.08c14.43-1.96,29.09-2.69,43.12-2.03,10.21.48,33.5,2.39,36.53,14.5,3.56,14.27.39,36.92-10.4,47.56Z"/>
  </g>
  <circle class="cls-4" cx="367.41" cy="277.28" r="14.73"/>
  <circle class="cls-4" cx="360.61" cy="232.73" r="10.45"/>
  <circle class="cls-4" cx="373.65" cy="190.54" r="8.5"/>
  <rect class="cls-6" x="113.04" y="158.63" width="119.61" height="15.23" rx="4.22" ry="4.22" transform="translate(71.01 -50.88) rotate(20.99)"/>
  <rect class="cls-6" x="61.62" y="291.19" width="119.61" height="15.23" rx="4.22" ry="4.22" transform="translate(115.08 -23.67) rotate(20.99)"/>
</svg>