<svg xmlns="http://www.w3.org/2000/svg" id="Layer_1" data-name="Layer 1" viewBox="0 0 450 450"><defs><style>.cls-1,.cls-3{fill:#fff;stroke:#181d4c;stroke-linecap:round;stroke-linejoin:round;stroke-width:2px}.cls-3{fill:none}</style></defs><circle cx="225" cy="225" r="208.64" style="fill:#ebf6ff"/><path d="m121.52 115.3-2.81 1.92c.86-.72 1.8-1.36 2.81-1.92m169.93 180.12c-1.45 2.24-3.35 4.07-5.65 5.47-12.84 13.28-30.16 20.2-47.67 20.2-12.43 0-24.96-3.49-36.04-10.69-10.01-6.5-19.65-13.5-28.89-21.02a334 334 0 0 1-26.47-24 131 131 0 0 1-17.84-22.47C113 217.57 83.5 162.83 102.02 130.66c1.35-2.33 7.32-7.01 8.08-7.53l8.63-5.9 2.81-1.92c12.48-6.9 30.6 2 40.47 19.85 9.86 17.86 7.73 37.92-4.75 44.82-1.75.97-3.61 1.63-5.55 1.99-2.49.47-4.13 2.89-3.41 5.33 2.32 7.92 5.59 15.87 9.83 23.64 13.63 24.96 34.31 42.49 55.29 49.37 3.73 1.23 7.72-.82 9.01-4.53.44-1.27 1.03-2.49 1.77-3.64 7.72-11.98 29.03-12.02 47.61-.07 18.58 11.96 27.38 31.36 19.67 43.36Z" class="cls-1"/><path d="M141.5 178.1c-8.82-.25-18.68-7.03-24.72-17.97-5.99-10.85-6.52-22.71-2.14-30.32m38.67 35.98c-6 3.31-15.76-2.87-21.8-13.81s-6.08-22.49-.08-25.8m84.43 174.31s-70.89-23.92-104.11-123.71m157.9 125.07c-7.39 1.43-17-.68-25.8-6.34-8.75-5.63-14.64-13.45-16.44-20.74m40.56-15.63c11.18 7.19 16.47 18.87 11.83 26.09s-17.47 7.24-28.64.05c-11.18-7.19-16.47-18.87-11.83-26.09s17.47-7.24 28.64-.05m4.99 17.8" class="cls-1"/><path d="m375.66 236.7-.02 3.78m.02-3.78-.02 3.78m-11.96 3.07 3.28 1.9m-3.33 11.89 3.29-1.88m8.63 8.82.01-3.79m11.96-3.06-3.27-1.9m3.32-11.89-3.29 1.88" class="cls-3"/><path d="m353.89 234.82-56.68 23.79 49.97-32.64zm-47.48 32.06 27.27-8.88 6.5 5.17zm-70.98-84.98 22.19 54.02-11.4-55.95zm8.8 50.69-13.85-25.1-8.28-.67z" style="stroke:#181d4c;stroke-linecap:round;stroke-linejoin:round;stroke-width:2px;fill:#181d4c"/><path d="M296.35 127.66c7.28-20.11 35.11-28.47 62.17-18.68s43.09 34.03 35.81 54.14c-6.09 16.83-26.58 25.42-48.95 22.04l-61.11 63.51 45.73-67.7c-25.74-10.27-40.73-33.75-33.65-53.31M70.09 324.33c0-26.86 21.76-48.63 48.63-48.63 12 0 22.97 4.36 31.45 11.57l73.8-16.67-65.37 25.95c5.5 7.88 8.76 17.44 8.76 27.78 0 26.85-21.78 48.62-48.64 48.62s-48.63-21.77-48.63-48.62" style="stroke:#181d4c;stroke-linecap:round;stroke-linejoin:round;stroke-width:2px;fill:#fefcee"/><path d="M302.35 196.7c-11.9-3.11-23.8-6.21-35.68-9.32-6.23-21.32-4.31-43.11 4.73-60.91 18.01 3.74 36.03 7.48 54.05 11.22-15.45 17.06-23.51 38.28-23.11 59Z" class="cls-1"/><path d="M275.81 137.86c6.94 1.48 13.88 2.97 20.82 4.45m-25.44 12.05c9.63 2.18 19.26 4.36 28.9 6.54m-29.89 2.09c7.16 1.67 14.32 3.35 21.49 5.02" class="cls-3"/><path d="M226.99 173.2c9.08-2.37 18.14-4.74 27.21-7.1 4.75-16.25 3.29-32.87-3.61-46.44-13.73 2.85-27.47 5.7-41.22 8.56 11.78 13.01 17.92 29.19 17.62 44.99Z" class="cls-1"/><path d="m247.22 128.34-15.87 3.39m19.4 9.19c-7.34 1.66-14.69 3.32-22.03 4.99m22.78 1.59c-5.46 1.28-10.92 2.55-16.38 3.83" class="cls-3"/><path d="m404.02 255.54-14.23-1.97-14.24-1.96 6.78 12.67 6.78 12.67 3.08-10.05 8.47 5.9 3.47-4.99-8.47-5.9zm-260.1 68.74c0 12.69-7.03 19.09-14.05 19.09-5.6 0-8.77-3.42-8.27-9.33-1.8 3.05-4.6 5.29-8.52 5.29-6.22 0-10.63-5.16-8.33-16.17 1.74-8.15 7.21-11.44 12.06-11.44 4.23 0 6.71 2.36 7.52 5.47l.55-2.84a2.029 2.029 0 1 1 3.98.8l-3.1 14.91c-1.43 6.9 0 9.64 3.98 9.64 4.97 0 9.82-5.29 9.82-15.42 0-12.81-8.71-22.01-22.38-22.01s-23.01 10.13-23.01 24.68 11.16 22.97 25.12 20.88c.93-.14 1.78.53 1.88 1.46.1.89-.53 1.69-1.41 1.84-16.85 2.81-30.13-7.29-30.13-24.18s10.94-28.42 27.48-28.42 26.8 10.38 26.8 25.74Zm-26.43-9.14c-3.92 0-7.27 3.36-8.52 8.83-1.62 7.4.68 11.81 5.41 11.81 3.79 0 7.03-3.79 8.39-10.63 1.18-6.09-.81-10.01-5.29-10.01Z" style="fill:#181d4c"/></svg>