<?xml version="1.0" encoding="UTF-8"?>
<svg id="Layer_1" data-name="Layer 1" xmlns="http://www.w3.org/2000/svg" viewBox="0 0 450 450">
  <defs>
    <style>
      .cls-1 {
        fill: #fff;
      }

      .cls-1, .cls-2, .cls-3, .cls-4 {
        stroke: #181d4c;
        stroke-linecap: round;
        stroke-linejoin: round;
        stroke-width: 2px;
      }

      .cls-2 {
        fill: #fefcee;
      }

      .cls-3 {
        fill: none;
      }

      .cls-5, .cls-4 {
        fill: #181d4c;
      }

      .cls-6 {
        fill: #ebf6ff;
      }
    </style>
  </defs>
  <circle class="cls-6" cx="225" cy="225" r="208.64"/>
  <g>
    <g>
      <g>
        <path class="cls-1" d="M121.52,115.3l-2.81,1.92c.86-.72,1.8-1.36,2.81-1.92Z"/>
        <path class="cls-1" d="M291.45,295.42c-1.45,2.24-3.35,4.07-5.65,5.47-12.84,13.28-30.16,20.2-47.67,20.2-12.43,0-24.96-3.49-36.04-10.69-10.01-6.5-19.65-13.5-28.89-21.02-9.24-7.52-18.08-15.53-26.47-24-6.75-6.82-12.74-14.35-17.84-22.47-15.89-25.34-45.39-80.08-26.87-112.25,1.35-2.33,7.32-7.01,8.08-7.53l8.63-5.9,2.81-1.92c12.48-6.9,30.6,2,40.47,19.85,9.86,17.86,7.73,37.92-4.75,44.82-1.75.97-3.61,1.63-5.55,1.99-2.49.47-4.13,2.89-3.41,5.33,2.32,7.92,5.59,15.87,9.83,23.64,13.63,24.96,34.31,42.49,55.29,49.37,3.73,1.23,7.72-.82,9.01-4.53.44-1.27,1.03-2.49,1.77-3.64,7.72-11.98,29.03-12.02,47.61-.07,18.58,11.96,27.38,31.36,19.67,43.36Z"/>
      </g>
      <path class="cls-1" d="M141.5,178.1c-8.82-.25-18.68-7.03-24.72-17.97-5.99-10.85-6.52-22.71-2.14-30.32"/>
      <path class="cls-1" d="M153.31,165.79c-6,3.31-15.76-2.87-21.8-13.81-6.04-10.94-6.08-22.49-.08-25.8"/>
      <path class="cls-1" d="M215.86,300.49s-70.89-23.92-104.11-123.71"/>
      <path class="cls-1" d="M269.65,301.85c-7.39,1.43-17-.68-25.8-6.34-8.75-5.63-14.64-13.45-16.44-20.74"/>
      <path class="cls-1" d="M267.97,259.14c11.18,7.19,16.47,18.87,11.83,26.09-4.64,7.22-17.47,7.24-28.64.05-11.18-7.19-16.47-18.87-11.83-26.09,4.64-7.22,17.47-7.24,28.64-.05Z"/>
      <g>
        <line class="cls-1" x1="136.57" y1="140.01" x2="136.57" y2="140.01"/>
        <line class="cls-1" x1="138.08" y1="133.76" x2="138.08" y2="133.76"/>
        <line class="cls-1" x1="144.67" y1="137.06" x2="144.67" y2="137.06"/>
        <line class="cls-1" x1="139.22" y1="148.58" x2="139.22" y2="148.58"/>
        <line class="cls-1" x1="142.34" y1="142.32" x2="142.34" y2="142.32"/>
        <line class="cls-1" x1="146" y1="149.11" x2="146" y2="149.11"/>
        <line class="cls-1" x1="146.12" y1="157.34" x2="146.12" y2="157.34"/>
        <line class="cls-1" x1="149.4" y1="144.57" x2="149.4" y2="144.57"/>
        <line class="cls-1" x1="153.44" y1="153.91" x2="153.44" y2="153.91"/>
      </g>
      <g>
        <line class="cls-1" x1="247.17" y1="270.6" x2="247.17" y2="270.6"/>
        <line class="cls-1" x1="248.12" y1="261.86" x2="248.12" y2="261.86"/>
        <line class="cls-1" x1="257.6" y1="262.2" x2="257.6" y2="262.2"/>
        <line class="cls-1" x1="254.88" y1="278.74" x2="254.88" y2="278.74"/>
        <line class="cls-1" x1="256.3" y1="270.51" x2="256.3" y2="270.51"/>
        <line class="cls-1" x1="263.15" y1="273.73" x2="263.15" y2="273.73"/>
        <line class="cls-1" x1="267.04" y1="282.63" x2="267.04" y2="282.63"/>
        <line class="cls-1" x1="265.74" y1="267.04" x2="265.74" y2="267.04"/>
        <line class="cls-1" x1="272.96" y1="276.94" x2="272.96" y2="276.94"/>
      </g>
    </g>
    <g>
      <line class="cls-3" x1="375.66" y1="236.7" x2="375.64" y2="240.48"/>
      <line class="cls-3" x1="375.66" y1="236.7" x2="375.64" y2="240.48"/>
      <line class="cls-3" x1="363.68" y1="243.55" x2="366.96" y2="245.45"/>
      <line class="cls-3" x1="363.63" y1="257.34" x2="366.92" y2="255.46"/>
      <line class="cls-3" x1="375.55" y1="264.28" x2="375.56" y2="260.49"/>
      <line class="cls-3" x1="387.52" y1="257.43" x2="384.25" y2="255.53"/>
      <line class="cls-3" x1="387.57" y1="243.64" x2="384.28" y2="245.52"/>
    </g>
    <polygon class="cls-4" points="353.89 234.82 297.21 258.61 347.18 225.97 353.89 234.82"/>
    <polygon class="cls-4" points="306.41 266.88 333.68 258 340.18 263.17 306.41 266.88"/>
    <polygon class="cls-4" points="235.43 181.9 257.62 235.92 246.22 179.97 235.43 181.9"/>
    <polygon class="cls-4" points="244.23 232.59 230.38 207.49 222.1 206.82 244.23 232.59"/>
    <path class="cls-2" d="M296.35,127.66c7.28-20.11,35.11-28.47,62.17-18.68,27.06,9.79,43.09,34.03,35.81,54.14-6.09,16.83-26.58,25.42-48.95,22.04l-61.11,63.51,45.73-67.7c-25.74-10.27-40.73-33.75-33.65-53.31Z"/>
    <path class="cls-2" d="M70.09,324.33c0-26.86,21.76-48.63,48.63-48.63,12,0,22.97,4.36,31.45,11.57l73.8-16.67-65.37,25.95c5.5,7.88,8.76,17.44,8.76,27.78,0,26.85-21.78,48.62-48.64,48.62s-48.63-21.77-48.63-48.62Z"/>
  </g>
  <g>
    <path class="cls-1" d="M302.35,196.7c-11.9-3.11-23.8-6.21-35.68-9.32-6.23-21.32-4.31-43.11,4.73-60.91,18.01,3.74,36.03,7.48,54.05,11.22-15.45,17.06-23.51,38.28-23.11,59Z"/>
    <path class="cls-3" d="M275.81,137.86c6.94,1.48,13.88,2.97,20.82,4.45"/>
    <path class="cls-3" d="M271.19,154.36c9.63,2.18,19.26,4.36,28.9,6.54"/>
    <path class="cls-3" d="M270.2,162.99c7.16,1.67,14.32,3.35,21.49,5.02"/>
  </g>
  <g>
    <path class="cls-1" d="M226.99,173.2c9.08-2.37,18.14-4.74,27.21-7.1,4.75-16.25,3.29-32.87-3.61-46.44-13.73,2.85-27.47,5.7-41.22,8.56,11.78,13.01,17.92,29.19,17.62,44.99Z"/>
    <path class="cls-3" d="M247.22,128.34c-5.29,1.13-10.58,2.26-15.87,3.39"/>
    <path class="cls-3" d="M250.75,140.92c-7.34,1.66-14.69,3.32-22.03,4.99"/>
    <path class="cls-3" d="M251.5,147.5c-5.46,1.28-10.92,2.55-16.38,3.83"/>
  </g>
  <polygon class="cls-5" points="404.02 255.54 389.79 253.57 375.55 251.61 382.33 264.28 389.11 276.95 392.19 266.9 400.66 272.8 404.13 267.81 395.66 261.91 404.02 255.54"/>
  <path class="cls-5" d="M143.92,324.28c0,12.69-7.03,19.09-14.05,19.09-5.6,0-8.77-3.42-8.27-9.33-1.8,3.05-4.6,5.29-8.52,5.29-6.22,0-10.63-5.16-8.33-16.17,1.74-8.15,7.21-11.44,12.06-11.44,4.23,0,6.71,2.36,7.52,5.47l.55-2.84c.19-.95,1.02-1.64,1.99-1.64h0c1.29,0,2.25,1.18,1.99,2.44l-3.1,14.91c-1.43,6.9,0,9.64,3.98,9.64,4.97,0,9.82-5.29,9.82-15.42,0-12.81-8.71-22.01-22.38-22.01s-23.01,10.13-23.01,24.68,11.16,22.97,25.12,20.88c.93-.14,1.78.53,1.88,1.46h0c.1.89-.53,1.69-1.41,1.84-16.85,2.81-30.13-7.29-30.13-24.18s10.94-28.42,27.48-28.42,26.8,10.38,26.8,25.74ZM117.49,315.14c-3.92,0-7.27,3.36-8.52,8.83-1.62,7.4.68,11.81,5.41,11.81,3.79,0,7.03-3.79,8.39-10.63,1.18-6.09-.81-10.01-5.29-10.01Z"/>
</svg>