<?xml version="1.0" encoding="UTF-8"?>
<svg id="Layer_1" data-name="Layer 1" xmlns="http://www.w3.org/2000/svg" viewBox="0 0 45 45">
  <defs>
    <style>
      .cls-1 {
        fill: #1b1464;
      }

      .cls-2 {
        fill: #ebf6ff;
      }
    </style>
  </defs>
  <rect class="cls-2" x="6.39" y="6.54" width="31.93" height="31.93" rx="9.29" ry="9.29"/>
  <path class="cls-1" d="M32.62,22.03c0,5.2-2.73,7.57-5.63,7.57-2.2,0-3.8-1.11-3.94-3-.58.8-1.43,1.28-2.61,1.28-2.1,0-4.09-1.62-3.17-6.26.68-3.41,2.93-4.35,4.43-4.35,1.35,0,2.13.6,2.49,1.33l.19-1.02h2.73l-1.43,6.7c-.48,2.25.07,2.88,1.21,2.88,1.57,0,2.85-1.64,2.85-5.13,0-4.33-2.71-7.52-7.47-7.52s-7.76,3.6-7.76,8.56,3.82,8.1,9.07,7.21l.22,2.15c-7.38,1.38-12.29-3.02-12.29-9.36s4.21-11.05,10.71-11.05,10.4,3.97,10.4,10.01ZM22.2,19.52c-.97,0-1.81.97-2.13,2.66-.44,2.18.07,3.36,1.28,3.36.92,0,1.67-1.11,2.06-3.14.36-1.81-.02-2.88-1.21-2.88Z"/>
</svg>