<?xml version="1.0" encoding="UTF-8"?>
<svg id="Layer_1" data-name="Layer 1" xmlns="http://www.w3.org/2000/svg" viewBox="0 0 45 45">
  <defs>
    <style>
      .cls-1 {
        fill: #1b1464;
      }

      .cls-2 {
        fill: #ebf6ff;
      }
    </style>
  </defs>
  <rect class="cls-2" x="7.44" y="6.54" width="31.93" height="31.93" rx="9.29" ry="9.29"/>
  <g>
    <path class="cls-1" d="M33.85,30.72h-4.47v-7.25c-.02-1.61-.56-3.1-2.44-2.99-1.26.07-2.2,1.17-2.29,2.39v7.85s-4.49,0-4.49,0l.04-13.48h4.41l.04.04v1.87l.42-.56c1.7-2.15,5.29-2.18,7.2-.3,1.12,1.11,1.51,2.71,1.58,4.24v8.19Z"/>
    <polygon class="cls-1" points="17.68 17.24 17.68 30.72 13.21 30.72 13.21 17.28 13.25 17.24 17.68 17.24"/>
    <path class="cls-1" d="M15.19,10.77c1.6-.13,2.89.83,2.8,2.51-.15,2.72-4.57,2.91-5.01.23-.24-1.47.75-2.63,2.21-2.74Z"/>
  </g>
</svg>