<svg xmlns="http://www.w3.org/2000/svg" data-name="Layer 1" viewBox="0 0 45 45"><rect width="31.93" height="31.93" x="7.44" y="6.54" rx="9.29" ry="9.29" style="fill:#ebf6ff"/><path d="M33.85 30.72h-4.47v-7.25c-.02-1.61-.56-3.1-2.44-2.99-1.26.07-2.2 1.17-2.29 2.39v7.85h-4.49l.04-13.48h4.41l.04.04v1.87l.42-.56c1.7-2.15 5.29-2.18 7.2-.3 1.12 1.11 1.51 2.71 1.58 4.24zM17.68 17.24v13.48h-4.47V17.28l.04-.04zm-2.49-6.47c1.6-.13 2.89.83 2.8 2.51-.15 2.72-4.57 2.91-5.01.23-.24-1.47.75-2.63 2.21-2.74" style="fill:#1b1464"/></svg>