<?xml version="1.0" encoding="UTF-8"?>
<svg id="Layer_2" data-name="Layer 2" xmlns="http://www.w3.org/2000/svg" viewBox="0 0 90 90">
  <defs>
    <style>
      .cls-1 {
        fill: none;
        stroke: #232873;
        stroke-miterlimit: 10;
        stroke-width: 7px;
      }

      .cls-2 {
        fill: #232873;
      }
    </style>
  </defs>
  <rect class="cls-1" x="7" y="7.65" width="75.99" height="75.99" rx="24.1" ry="24.1"/>
  <g>
    <path class="cls-2" d="M69.87,65.21h-10.63v-17.26c-.04-3.83-1.34-7.38-5.82-7.12-3,.17-5.23,2.78-5.44,5.69v18.69s-10.69,0-10.69,0l.09-32.08h10.51l.09.09v4.45l1-1.34c4.04-5.12,12.59-5.2,17.13-.72,2.67,2.64,3.59,6.45,3.76,10.1v19.49Z"/>
    <polygon class="cls-2" points="31.38 33.13 31.38 65.21 20.75 65.21 20.75 33.22 20.85 33.13 31.38 33.13"/>
    <path class="cls-2" d="M25.47,17.73c3.8-.3,6.89,1.98,6.67,5.98-.36,6.47-10.89,6.93-11.92.54-.57-3.5,1.78-6.25,5.25-6.52Z"/>
  </g>
</svg>