<svg xmlns="http://www.w3.org/2000/svg" data-name="Layer 2" viewBox="0 0 90 90"><rect width="75.99" height="75.99" x="7" y="7.65" rx="24.1" ry="24.1" style="fill:none;stroke:#232873;stroke-miterlimit:10;stroke-width:7px"/><path d="M69.87 65.21H59.24V47.95c-.04-3.83-1.34-7.38-5.82-7.12-3 .17-5.23 2.78-5.44 5.69v18.69H37.29l.09-32.08h10.51l.09.09v4.45l1-1.34c4.04-5.12 12.59-5.2 17.13-.72 2.67 2.64 3.59 6.45 3.76 10.1V65.2ZM31.38 33.13v32.08H20.75V33.22l.1-.09zm-5.91-15.4c3.8-.3 6.89 1.98 6.67 5.98-.36 6.47-10.89 6.93-11.92.54-.57-3.5 1.78-6.25 5.25-6.52" style="fill:#232873"/></svg>