<?xml version="1.0" encoding="UTF-8"?>
<svg id="Layer_2" data-name="Layer 2" xmlns="http://www.w3.org/2000/svg" xmlns:xlink="http://www.w3.org/1999/xlink" viewBox="0 0 939.13 881.02">
  <defs>
    <style>
      .cls-1 {
        fill: url(#linear-gradient);
      }

      .cls-2 {
        fill: #232873;
      }
    </style>
    <linearGradient id="linear-gradient" x1="-464.87" y1="440.51" x2="759.09" y2="440.51" gradientUnits="userSpaceOnUse">
      <stop offset=".31" stop-color="#fff" stop-opacity="0"/>
      <stop offset="1" stop-color="#ffdd39"/>
    </linearGradient>
  </defs>
  <path class="cls-1" d="M-452.87,0H318.58C561.71,0,759.09,197.39,759.09,440.51h0c0,243.13-197.39,440.51-440.51,440.51H-452.87c-6.62,0-12-5.38-12-12V12C-464.87,5.38-459.5,0-452.87,0Z"/>
  <path class="cls-2" d="M867.77,178.07c-106.26-106.65-161.93-39.27-161.93-39.27,0,0-41.86-78.4-165.84,2.25,1.2-1.36,103.29-117.07,169.38-39.65,79.68-61.38,158.39,76.67,158.39,76.67Z"/>
</svg>