<svg xmlns="http://www.w3.org/2000/svg" data-name="Layer 1" viewBox="0 0 432.72 338.15"><defs><linearGradient id="a" x1="168.73" x2="168.73" y1="317.08" y2="30.94" gradientUnits="userSpaceOnUse"><stop offset=".31" stop-color="#fff" stop-opacity="0"/><stop offset="1" stop-color="#ffdd39"/></linearGradient></defs><path d="M311.79 174.01c0 79.01-64.05 143.07-143.07 143.07S25.66 253.02 25.66 174.01 89.71 30.94 168.72 30.94c20.48 0 39.96 4.3 57.58 12.06 8.72 3.83 16.98 8.51 24.68 13.94 36.78 25.89 60.81 68.67 60.81 117.07" style="fill:url(#a)"/><path d="M420.24 112.28c-80.15-80.45-122.15-29.61-122.15-29.61s-13.02-24.38-47.11-25.73c-19-.76-44.54 5.65-78.01 27.41.72-.82 24.13-27.25 53.33-41.35 24.04-11.61 52-14.86 74.46 11.45 59.73-46.01 118.73 56.51 119.48 57.83" style="fill:#232873"/></svg>