<svg xmlns="http://www.w3.org/2000/svg" data-name="Layer 1" viewBox="0 0 1069.37 341.31"><defs><linearGradient id="a" x1="566.67" x2="566.67" y1="299.24" y2="13.1" gradientUnits="userSpaceOnUse"><stop offset=".31" stop-color="#fff" stop-opacity="0"/><stop offset="1" stop-color="#ffdd39"/></linearGradient></defs><circle cx="566.67" cy="156.17" r="143.07" style="fill:url(#a)"/><path d="M818.19 94.44c-80.16-80.45-122.16-29.61-122.16-29.61s-31.59-59.15-125.14 1.7c0 0 77.65-88.68 127.81-29.92C758.43-9.4 817.44 93.12 818.19 94.44m-704.13 88.58H54.15v-42.06h26.47v20.52h69.15l-43.5 123.11H77.34l36.73-101.57Zm161.48 49.45c0 38.17-14.98 52.12-47.6 52.12h-11.7v-21.54h7.18c15.59 0 24.42-5.13 24.42-30.16v-49.86h-79v-21.54h106.7v70.99Zm-78.17-18.88v101.77h-27.7V213.59zm108.95 19.7v-71.82h27.7v71.82zm147.52-50.27h-14.36v101.57h-27.7V183.02h-56.02v-21.54h98.08zm129.06 36.52v65.04h-59.09v-21.54H555v-42.68c0-27.29-6.77-37.34-27.7-37.34h-9.64l-17.24 101.57h-28.11l18.26-101.57h-17.03v-21.54h58.68c36.32 0 50.68 16.21 50.68 58.07Zm193.49 12.93c0 38.17-14.98 52.12-47.6 52.12h-11.7v-21.54h7.18c15.59 0 24.42-5.13 24.42-30.16v-49.86h-79v-21.54h106.7v70.99Zm-78.18-18.88v101.77h-27.7V213.59zm159.02 4.72c0-27.29-6.77-35.29-28.32-35.29h-31.6v-21.54h37.55c36.52 0 50.27 13.54 50.27 54.37v68.74h-27.91v-66.27Zm156.55 44.73v21.54H909.14v-21.54h61.14v-80.02h-61.14v-21.54h89.05v101.57h15.59Z" style="fill:#232873"/></svg>