<?xml version="1.0" encoding="UTF-8"?>
<svg id="Layer_1" data-name="Layer 1" xmlns="http://www.w3.org/2000/svg" xmlns:xlink="http://www.w3.org/1999/xlink" viewBox="0 0 1069.37 341.31">
  <defs>
    <style>
      .cls-1 {
        fill: url(#linear-gradient);
      }

      .cls-2 {
        fill: #232873;
      }
    </style>
    <linearGradient id="linear-gradient" x1="566.67" y1="299.24" x2="566.67" y2="13.1" gradientUnits="userSpaceOnUse">
      <stop offset=".31" stop-color="#fff" stop-opacity="0"/>
      <stop offset="1" stop-color="#ffdd39"/>
    </linearGradient>
  </defs>
  <circle class="cls-1" cx="566.67" cy="156.17" r="143.07"/>
  <g>
    <path class="cls-2" d="M570.89,66.53s77.65-88.68,127.81-29.92l-2.67,28.22s-31.59-59.15-125.14,1.7Z"/>
    <path class="cls-2" d="M818.2,94.45s-59.38-104.15-119.5-57.84l-2.67,28.22s42-50.84,122.17,29.63Z"/>
  </g>
  <g>
    <path class="cls-2" d="M114.06,183.02h-59.91v-42.06h26.47v20.52h69.15l-43.5,123.11h-28.93l36.73-101.57Z"/>
    <path class="cls-2" d="M275.54,232.47c0,38.17-14.98,52.12-47.6,52.12h-11.7v-21.54h7.18c15.59,0,24.42-5.13,24.42-30.16v-49.86h-79v-21.54h106.7v70.99ZM197.37,213.59v101.77h-27.7v-101.77h27.7Z"/>
    <path class="cls-2" d="M306.32,233.29v-71.82h27.7v71.82h-27.7Z"/>
    <path class="cls-2" d="M453.84,183.02h-14.36v101.57h-27.7v-101.57h-56.02v-21.54h98.08v21.54Z"/>
    <path class="cls-2" d="M582.9,219.54v65.04h-59.09v-21.54h31.19v-42.68c0-27.29-6.77-37.34-27.7-37.34h-9.64l-17.24,101.57h-28.11l18.26-101.57h-17.03v-21.54h58.68c36.32,0,50.68,16.21,50.68,58.07Z"/>
    <path class="cls-2" d="M776.39,232.47c0,38.17-14.98,52.12-47.6,52.12h-11.7v-21.54h7.18c15.59,0,24.42-5.13,24.42-30.16v-49.86h-79v-21.54h106.7v70.99ZM698.21,213.59v101.77h-27.7v-101.77h27.7Z"/>
    <path class="cls-2" d="M857.23,218.31c0-27.29-6.77-35.29-28.32-35.29h-31.6v-21.54h37.55c36.52,0,50.27,13.54,50.27,54.37v68.74h-27.91v-66.27Z"/>
    <path class="cls-2" d="M1013.78,263.04v21.54h-104.64v-21.54h61.14v-80.02h-61.14v-21.54h89.05v101.57h15.59Z"/>
  </g>
</svg>